<svg width="551" height="354" viewBox="0 0 551 354" fill="none" xmlns="http://www.w3.org/2000/svg">
<g clip-path="url(#clip0)">
<path fill-rule="evenodd" clip-rule="evenodd" d="M152.495 5.00791C166.867 8.25979 178.052 15.4139 184.945 23.5436C191.838 31.6733 194.57 40.8437 204.584 48.5181C214.599 56.1925 232.027 62.5012 254.918 60.42C277.808 58.3388 306.226 47.9328 339.717 54.8918C373.207 61.8508 411.77 86.1099 429.653 118.499C447.602 150.887 444.871 191.341 426.792 228.152C408.649 264.963 375.158 298.133 321.118 307.303C267.143 316.473 192.684 301.775 148.138 285.645C103.658 269.581 89.1559 252.151 74.1339 232.965C59.112 213.714 43.5698 192.707 38.6275 173.52C33.6852 154.334 39.2778 136.969 46.106 124.937C52.9341 112.905 61.0629 106.141 65.2248 98.8572C69.3867 91.573 69.7119 83.8336 68.6064 74.3381C67.5009 64.8426 65.0948 53.7211 70.5573 41.5591C76.0198 29.397 89.416 16.1944 104.958 9.30039C120.5 2.47144 138.124 1.75602 152.495 5.00791Z" stroke="#FEC34E" stroke-width="0.9488" stroke-miterlimit="22.9256"/>
<path fill-rule="evenodd" clip-rule="evenodd" d="M536.108 314.522C546.252 311.791 549.504 307.823 550.609 303.336C552.04 297.612 549.894 291.109 544.301 287.662C538.709 284.28 529.67 283.954 527.133 275.955C524.597 267.955 528.564 252.216 525.833 238.688C523.167 225.16 513.802 213.844 501.382 207.34C489.026 200.836 473.549 199.145 458.722 201.812C443.83 204.478 429.588 211.567 418.598 221.193C407.608 230.819 400 242.981 399.154 258.134C398.309 273.288 404.227 291.434 412.615 302.035C417.688 308.474 423.606 312.181 432.32 314.392H536.108V314.522Z" fill="#5087C7"/>
<path fill-rule="evenodd" clip-rule="evenodd" d="M418.859 171.309C404.682 169.423 389.465 169.748 372.102 175.016C354.739 180.284 335.165 190.495 309.218 196.739C283.206 202.917 250.821 205.129 232.353 213.258C213.884 221.323 209.332 235.371 217.071 254.818C224.874 274.329 244.969 299.303 260.576 318.424C276.248 337.545 287.433 350.748 311.559 353.48C335.685 356.211 372.818 348.407 398.049 336.635C423.281 324.798 436.742 308.929 442.4 293.32C448.057 277.711 445.977 262.362 450.008 250.655C454.04 238.948 464.25 230.819 466.786 219.892C469.322 208.966 464.25 195.178 455.146 186.268C446.107 177.293 432.97 173.195 418.859 171.309Z" fill="#F6A05A"/>
<path d="M543.196 314.522H259.34V324.993H543.196V314.522Z" fill="#FFF8F1"/>
<path fill-rule="evenodd" clip-rule="evenodd" d="M398.309 200.251C409.299 210.527 425.557 224.25 434.986 234.396C444.415 244.542 446.951 251.045 448.837 256.639C450.723 262.232 452.024 266.915 452.999 267.565C454.04 268.215 454.755 264.898 455.796 257.029C456.836 249.159 458.202 236.672 457.356 222.754C456.511 208.836 453.585 193.357 465.225 182.301C476.865 171.244 503.072 164.48 511.656 158.757C520.24 152.969 511.201 148.156 500.406 146.075C489.676 143.928 477.19 144.514 468.086 143.928C458.982 143.343 453.129 141.652 446.236 136.579C439.278 131.506 431.214 122.986 420.939 119.149C410.665 115.312 398.244 116.157 389.14 121.881C380.1 127.604 374.443 138.205 372.817 148.156C371.191 158.042 373.597 167.277 377.629 175.277C381.661 183.146 387.384 189.975 398.309 200.251Z" fill="#F6A05A"/>
<path fill-rule="evenodd" clip-rule="evenodd" d="M458.072 192.772C444.741 194.072 432.905 186.658 420.289 183.536C408.844 180.675 396.748 181.26 385.173 186.528C381.986 182.691 379.645 179.049 377.694 175.146C373.663 167.147 371.257 157.976 372.882 148.026C374.508 138.14 380.166 127.474 389.205 121.75C398.244 116.027 410.73 115.182 421.005 119.019C431.279 122.856 439.343 131.311 446.301 136.449C453.259 141.522 459.047 143.213 468.151 143.798C475.955 144.253 486.23 143.928 495.789 145.164C498.52 151.213 499.236 158.367 496.244 165.781C489.026 181.78 475.175 191.471 458.527 192.772C458.332 192.707 458.202 192.772 458.072 192.772Z" fill="#FEC34E"/>
<path fill-rule="evenodd" clip-rule="evenodd" d="M288.929 67.9644C278.329 70.3708 270.135 75.5738 265.063 81.5572C259.99 87.5407 258.039 94.2396 250.626 99.8979C243.278 105.556 230.467 110.174 213.624 108.613C196.781 107.117 175.906 99.4426 151.325 104.516C126.744 109.588 98.4556 127.474 85.2545 151.213C72.1184 175.016 74.0693 204.739 87.4004 231.794C100.732 258.85 125.313 283.174 164.981 289.938C204.65 296.702 259.34 285.841 291.985 274.069C324.63 262.232 335.295 249.484 346.35 235.371C357.405 221.258 368.786 205.844 372.427 191.731C376.069 177.618 371.972 164.87 366.965 156.025C361.957 147.18 355.975 142.237 352.918 136.904C349.862 131.571 349.602 125.848 350.447 118.889C351.228 111.93 353.048 103.735 349.016 94.8249C344.985 85.9148 335.165 76.2241 323.785 71.1512C312.47 66.0783 299.529 65.558 288.929 67.9644Z" fill="#FEC34E"/>
<path fill-rule="evenodd" clip-rule="evenodd" d="M182.345 206.234V210.592H185.011V213.844H182.345V254.948C182.345 272.443 192.944 298.848 198.732 315.107H153.211C159.259 298.458 169.599 272.443 169.599 254.948V213.779H166.932V210.527H169.599V206.169H166.932V202.918H171.354V142.237H168.818V134.628H171.419V95.8005H169.078V89.4268H167.518V76.3542H172.135V63.3467H174.281V33.2342H174.996L176.037 0L176.947 33.2342H177.662V63.3467H179.808V76.4193H184.426V89.4918H182.865V95.8655H180.524V134.628H183.125V142.237H180.589V202.918H185.011V206.169H182.345V206.234Z" fill="#FEC34E" stroke="#FFF8F1" stroke-width="0.7325" stroke-miterlimit="22.9256"/>
<path fill-rule="evenodd" clip-rule="evenodd" d="M337.636 227.632V146.205C336.921 139.636 326.321 134.043 314.745 140.221L298.943 148.676C300.699 155.83 301.024 162.464 301.934 168.708C303.04 175.992 304.601 187.699 305.576 201.227L318.452 197.129L330.418 201.357L330.678 234.201L337.636 227.632Z" fill="#FEC34E" stroke="#FFF8F1" stroke-width="0.7364" stroke-miterlimit="22.9256"/>
<path fill-rule="evenodd" clip-rule="evenodd" d="M267.209 175.602L252.902 181.91V143.603L237.88 138.075L219.737 149.717V261.126L270.395 258.59L267.209 175.602Z" fill="#FEC34E" stroke="#FFF8F1" stroke-width="0.7741" stroke-miterlimit="22.9256"/>
<path fill-rule="evenodd" clip-rule="evenodd" d="M311.169 250.72C309.868 194.918 306.812 147.831 296.342 107.442C287.563 94.8249 276.313 93.6543 263.047 94.1095V263.142L292.896 263.012L299.529 257.159L311.169 250.72Z" fill="#FEC34E" stroke="#FFF8F1" stroke-width="0.7364" stroke-miterlimit="22.9256"/>
<path fill-rule="evenodd" clip-rule="evenodd" d="M303.43 142.888C301.544 130.401 299.854 121.1 296.927 109.979C291.075 101.589 283.791 96.8411 275.662 96.1257L280.085 184.187C293.156 171.96 300.049 163.96 303.43 142.888Z" fill="#FFF8F1"/>
<path fill-rule="evenodd" clip-rule="evenodd" d="M221.427 248.769V115.507L211.868 111.214L204.389 116.938L195.22 136.579V160.903L180.653 183.471V271.727L220.907 271.857L221.427 248.769Z" fill="#FEC34E" stroke="#FFF8F1" stroke-width="0.7438" stroke-miterlimit="22.9256"/>
<path fill-rule="evenodd" clip-rule="evenodd" d="M221.427 163.31L221.362 115.507L211.673 111.214L202.634 130.466V157.326L209.267 151.603L207.056 156.936L193.399 178.919V250.265L201.983 250.005V177.228L221.427 163.31Z" fill="#FFF8F1"/>
<path fill-rule="evenodd" clip-rule="evenodd" d="M250.756 148.611L250.626 210.397L248.675 209.877V147.961L250.756 148.611Z" fill="#FFF8F1"/>
<path fill-rule="evenodd" clip-rule="evenodd" d="M246.464 147.31L246.334 209.291L244.383 208.706V146.66L246.464 147.31Z" fill="#FFF8F1"/>
<path fill-rule="evenodd" clip-rule="evenodd" d="M242.107 146.075L242.042 208.12L240.091 207.6V145.424L242.107 146.075Z" fill="#FFF8F1"/>
<path fill-rule="evenodd" clip-rule="evenodd" d="M112.177 143.603L195.22 144.904V143.278C192.684 142.563 190.473 141.652 188.847 140.221C186.376 138.01 184.165 135.278 180.718 134.563C177.532 133.913 171.939 136.319 170.054 139.116C167.843 137.099 164.851 137.295 163.29 140.937C160.494 142.042 159.844 142.498 154.706 142.302C153.861 140.481 152.235 139.571 149.049 140.937C147.358 131.571 135.978 133.848 130.125 135.343C129.475 132.482 122.907 131.116 121.086 135.994L118.55 138.14C113.022 134.953 104.633 142.823 95.6591 142.888C95.7241 138.79 89.3512 136.969 85.6445 141.522C82.523 141.067 77.1905 135.539 71.5329 140.611C71.4029 140.481 71.2078 140.286 71.0777 140.156C70.8826 135.474 67.0459 133.783 62.1036 135.669C58.2668 134.563 55.6656 135.539 54.1049 138.14C52.6092 136.969 50.6583 137.295 49.6828 138.4C47.6669 137.685 42.7246 139.116 42.3344 141.197C41.1639 141.327 40.5136 141.847 39.343 141.912C38.7578 138.075 32.3198 139.571 30.1088 140.611C27.8327 141.717 21.8499 141.587 19.899 141.717H19.5739H19.4438C19.3788 141.717 19.2487 141.652 19.0536 141.652L21.0045 138.335H18.7935L15.7371 141.262H15.542C14.3064 141.132 12.6157 141.067 10.9249 140.937L15.2819 133.978L13.7212 133.848L7.21817 140.677C6.50284 140.611 5.85254 140.611 5.26727 140.611C2.60103 140.546 2.08079 140.611 1.75564 140.742C1.43049 140.872 1.30043 141.002 1.2354 141.067C1.17037 141.132 1.17037 141.132 0.97528 141.197C0.78019 141.262 0.324979 141.392 0.129889 141.522C-0.130231 141.652 -0.130231 141.847 -0.000171217 142.042C0.129889 142.237 0.390009 142.498 1.49552 142.693C2.536 142.888 4.29181 143.083 6.24272 143.213L9.42919 149.066L10.9899 149.131L10.0145 143.343C11.0549 143.343 12.0954 143.278 13.1359 143.213C15.3469 143.083 17.558 142.693 18.6635 142.563C19.3788 142.433 19.6389 142.433 19.769 142.367L97.0247 143.668L112.177 143.603Z" fill="#FFF8F1"/>
<path d="M76.6703 189.26H82.7181V169.748L94.6837 167.862V180.805L103.658 182.951V177.618L114.453 180.349V198.105L119.07 198.04V187.373L129.54 184.837L133.377 186.853L149.699 182.496" stroke="#FFF8F1" stroke-width="0.8232" stroke-miterlimit="22.9256"/>
<path fill-rule="evenodd" clip-rule="evenodd" d="M166.932 255.078V151.603L148.659 149.001L145.017 155.05V255.013L166.932 255.078Z" fill="#FFF8F1"/>
<path fill-rule="evenodd" clip-rule="evenodd" d="M149.179 150.367L152.105 145.424L163.811 147.31L164.006 154.204L149.179 150.367Z" fill="#FFF8F1"/>
<path fill-rule="evenodd" clip-rule="evenodd" d="M157.893 255.143V213.128C164.851 212.348 176.687 212.088 184.945 217.096V255.273L157.893 255.143Z" fill="#FFF8F1"/>
<path d="M142.989 77.048C151.446 68.5903 151.446 54.8776 142.989 46.4199C134.533 37.9622 120.822 37.9622 112.365 46.4199C103.908 54.8776 103.908 68.5903 112.365 77.048C120.822 85.5057 134.533 85.5057 142.989 77.048Z" fill="#FEC34E"/>
<path fill-rule="evenodd" clip-rule="evenodd" d="M371.582 194.983C362.673 201.877 354.089 210.917 345.895 219.307C334.645 230.884 324.175 241.29 314.095 248.639C303.95 255.988 294.131 260.216 281.255 260.606C268.314 260.996 252.316 257.614 238.725 250.2C225.134 242.786 213.949 231.469 208.096 214.559C202.243 197.714 201.658 175.342 210.047 155.05C218.371 134.823 235.669 116.678 258.299 104.06C280.93 91.4429 308.958 84.3538 336.14 85.7847C338.741 85.9147 341.343 86.1098 343.944 86.435C346.155 89.1666 347.976 91.9632 349.211 94.7599C353.243 103.67 351.422 111.865 350.642 118.824C349.862 125.783 350.057 131.506 353.113 136.839C356.17 142.172 362.152 147.115 367.16 155.96C372.167 164.805 376.264 177.553 372.622 191.666C372.232 192.837 371.907 193.877 371.582 194.983Z" fill="#F47B6A"/>
<path fill-rule="evenodd" clip-rule="evenodd" d="M337.636 227.567V146.205C336.921 139.636 326.321 134.043 314.745 140.221L298.943 148.676C300.699 155.83 301.024 162.529 301.934 168.708C303.04 175.992 304.601 187.699 305.576 201.227L318.452 197.129L330.418 201.292L330.678 234.331C332.433 232.705 334.189 230.949 335.945 229.193L337.636 227.567Z" fill="#F47B6A" stroke="#FFF8F1" stroke-width="0.7325" stroke-miterlimit="22.9256"/>
<path fill-rule="evenodd" clip-rule="evenodd" d="M267.208 175.602L252.901 181.91V143.668L237.814 138.075L219.736 149.717V235.241C225.068 241.485 231.506 246.363 238.595 250.2C246.333 254.427 254.852 257.289 263.111 258.98L270.394 258.59L267.208 175.602Z" fill="#F47B6A" stroke="#FFF8F1" stroke-width="0.7325" stroke-miterlimit="22.9256"/>
<path fill-rule="evenodd" clip-rule="evenodd" d="M311.104 250.655C309.803 195.958 306.682 147.115 296.342 107.442C291.139 99.9628 285.027 96.5159 278.133 95.02C272.931 96.9711 267.859 99.1824 263.046 101.589L261.876 258.655C268.184 259.956 272.541 260.866 281.19 260.606C289.839 260.281 301.999 256.704 311.104 250.655Z" fill="#F47B6A" stroke="#FFF8F1" stroke-width="0.7325" stroke-miterlimit="22.9256"/>
<path fill-rule="evenodd" clip-rule="evenodd" d="M303.43 142.888C301.544 130.4 299.853 121.1 296.927 109.979C291.074 101.589 283.791 96.841 275.662 96.1255L280.084 184.187C293.155 171.959 300.048 163.96 303.43 142.888Z" fill="#FFF8F1"/>
<path fill-rule="evenodd" clip-rule="evenodd" d="M221.427 237.062V135.278C216.615 141.522 212.778 148.221 209.917 155.115C201.593 175.342 202.113 197.714 207.966 214.624C211.087 223.534 215.704 230.949 221.427 237.062Z" fill="#F47B6A" stroke="#FFF8F1" stroke-width="0.7322" stroke-miterlimit="22.9256"/>
<path fill-rule="evenodd" clip-rule="evenodd" d="M221.427 163.31L221.362 135.343C216.615 141.587 212.713 148.286 209.852 155.18C207.121 161.814 205.3 168.708 204.389 175.537L221.427 163.31Z" fill="#FFF8F1"/>
<path fill-rule="evenodd" clip-rule="evenodd" d="M250.756 148.611L250.626 210.397L248.675 209.877V147.961L250.756 148.611Z" fill="#FFF8F1"/>
<path fill-rule="evenodd" clip-rule="evenodd" d="M246.464 147.31L246.334 209.291L244.383 208.706V146.66L246.464 147.31Z" fill="#FFF8F1"/>
<path fill-rule="evenodd" clip-rule="evenodd" d="M242.107 146.075L242.042 208.12L240.091 207.6V145.424L242.107 146.075Z" fill="#FFF8F1"/>
<path fill-rule="evenodd" clip-rule="evenodd" d="M243.407 256.509H267.924V203.503L287.563 204.283L296.147 211.503V231.664H301.869L302.129 276.67L280.344 285.385L243.017 284.605L243.407 256.509Z" fill="#FFF8F1"/>
<path fill-rule="evenodd" clip-rule="evenodd" d="M458.072 192.772C444.741 194.072 432.905 186.658 420.289 183.536C407.673 180.349 394.407 181.39 381.791 188.219C369.176 195.048 357.145 207.73 345.895 219.307C334.645 230.884 324.175 241.29 314.095 248.639C303.95 255.988 294.131 260.216 281.255 260.606C268.314 260.996 252.316 257.614 238.725 250.2C225.134 242.786 213.949 231.469 208.096 214.559C202.243 197.714 201.658 175.342 210.047 155.05C218.371 134.823 235.669 116.678 258.299 104.06C280.93 91.4429 308.958 84.3538 336.14 85.7847C363.323 87.2155 389.66 97.1012 408.194 106.597C426.727 116.092 437.522 125.132 447.407 127.994C457.291 130.856 466.396 127.409 474.719 128.579C483.043 129.685 490.717 135.343 494.944 143.278C503.853 159.928 493.188 177.358 478.361 186.463C471.923 190.43 464.51 192.121 458.072 192.772Z" stroke="#F47B6A" stroke-width="1.1718" stroke-miterlimit="22.9256"/>
<path fill-rule="evenodd" clip-rule="evenodd" d="M62.429 314.652C56.2511 309.579 50.9837 303.726 46.6917 297.222C35.1163 279.402 31.4746 256.313 36.1568 238.428C40.839 220.543 53.91 207.795 70.1676 200.316C86.4251 192.837 105.869 190.625 123.167 196.674C140.4 202.787 155.422 217.161 167.713 231.079C180.003 244.997 189.628 258.46 201.854 266.004C214.079 273.548 228.841 275.174 242.692 273.874C256.544 272.573 269.42 268.345 279.76 268.41C290.034 268.475 297.708 272.768 301.675 278.491C305.642 284.15 305.837 291.174 303.691 297.938C301.87 303.726 298.293 309.254 290.75 314.717H62.429V314.652Z" fill="#63C29D"/>
<path fill-rule="evenodd" clip-rule="evenodd" d="M76.9955 197.519C91.6923 192.316 108.275 191.406 123.167 196.674C140.4 202.787 155.422 217.161 167.712 231.079C180.003 244.997 189.628 258.46 201.853 266.004C214.079 273.548 228.841 275.174 242.692 273.874C256.544 272.573 269.42 268.345 279.759 268.41C286.132 268.476 291.53 270.166 295.627 272.768C294.456 273.223 293.286 273.679 292.115 274.069C259.47 285.906 204.78 296.702 165.111 289.938C125.443 283.174 100.797 258.85 87.5304 231.794C81.9378 220.673 78.3611 209.031 76.9955 197.519Z" fill="#AFC372"/>
<path d="M50.268 302.23L51.1134 253.842H83.3683V293.32V275.955H121.606L141.115 257.224V271.662H164.071L179.353 256.899H207.381V310.75" stroke="#FFF8F1" stroke-width="0.7325" stroke-miterlimit="22.9256"/>
<path fill-rule="evenodd" clip-rule="evenodd" d="M171.81 343.789C147.423 344.505 122.452 342.358 100.211 335.009C86.0999 330.326 73.0288 323.562 62.4289 314.652H290.75C289.514 315.563 288.148 316.473 286.718 317.319C276.378 323.627 260.185 329.806 240.156 334.684C220.062 339.627 196.196 343.074 171.81 343.789Z" fill="#FFF8F1" stroke="#65C299" stroke-width="0.7393" stroke-miterlimit="22.9256"/>
<path fill-rule="evenodd" clip-rule="evenodd" d="M164.786 309.384V281.678H190.538L190.603 238.233C200.553 212.998 220.777 203.958 259.08 204.153H262.721L261.616 289.483H272.736V300.799H298.878V314.067H165.176L164.786 309.384Z" fill="#FFF8F1"/>
<path d="M191.708 290.068H239.896" stroke="#65C299" stroke-width="1.2838" stroke-miterlimit="22.9256"/>
<path d="M191.774 285.515C206.926 284.41 223.378 283.174 239.961 283.174" stroke="#65C299" stroke-width="0.7325" stroke-miterlimit="22.9256"/>
<path d="M191.774 281.028C206.015 278.816 222.858 276.41 239.896 276.345" stroke="#65C299" stroke-width="0.7325" stroke-miterlimit="22.9256"/>
<path d="M191.839 276.54C205.105 273.223 222.403 269.581 239.961 269.516" stroke="#65C299" stroke-width="0.7325" stroke-miterlimit="22.9256"/>
<path d="M191.839 272.053C204.195 267.63 221.883 262.752 239.896 262.687" stroke="#65C299" stroke-width="0.7325" stroke-miterlimit="22.9256"/>
<path d="M191.903 267.565C203.349 262.037 221.427 255.988 239.961 255.858" stroke="#65C299" stroke-width="0.7325" stroke-miterlimit="22.9256"/>
<path d="M191.903 263.077C202.373 256.444 220.842 249.159 239.895 249.029" stroke="#65C299" stroke-width="0.7325" stroke-miterlimit="22.9256"/>
<path d="M191.968 258.525C201.528 250.785 220.387 242.265 239.961 242.2" stroke="#65C299" stroke-width="0.7325" stroke-miterlimit="22.9256"/>
<path d="M191.968 254.037C200.617 245.257 219.866 235.501 239.896 235.371" stroke="#65C299" stroke-width="0.7325" stroke-miterlimit="22.9256"/>
<path d="M192.034 249.55C199.772 239.664 219.411 228.672 239.896 228.542" stroke="#65C299" stroke-width="0.7325" stroke-miterlimit="22.9256"/>
<path d="M192.099 245.062C198.862 234.071 218.956 221.843 239.961 221.713" stroke="#65C299" stroke-width="0.7325" stroke-miterlimit="22.9256"/>
<path d="M192.099 240.574C197.951 228.477 218.436 215.08 239.896 214.884" stroke="#65C299" stroke-width="1.2838" stroke-miterlimit="22.9256"/>
<path d="M230.922 281.678H188.782V308.018H230.922V281.678Z" fill="#FFF8F1"/>
<path fill-rule="evenodd" clip-rule="evenodd" d="M121.476 225.551L121.802 247.989H147.098V297.482H172.655V309.059H194.7V315.368L74.1995 314.652V282.394H90.5871V229.778L103.073 225.225L121.476 225.551Z" fill="#FFF8F1" stroke="#65C299" stroke-width="0.7393" stroke-miterlimit="22.9256"/>
<path fill-rule="evenodd" clip-rule="evenodd" d="M37.0672 284.15H66.6559V314.002H42.6598L37.0672 284.15Z" fill="#FFF8F1"/>
<path fill-rule="evenodd" clip-rule="evenodd" d="M92.2127 308.474C90.9771 305.157 89.7415 299.629 89.7415 295.076C89.7415 290.523 90.9771 286.946 92.6029 284.54C94.2286 282.198 96.3096 281.028 98.0654 281.418C99.8212 281.808 101.382 283.759 101.967 286.686C102.618 289.613 102.292 293.645 102.162 295.596C102.032 297.612 102.032 297.612 102.162 297.287C102.292 296.962 102.552 296.312 103.398 295.596C104.243 294.881 105.609 294.1 106.779 294.23C107.95 294.36 108.925 295.401 109.576 296.897C109.901 297.677 110.226 298.588 110.356 299.564C111.136 298.653 111.982 297.938 112.697 297.482C114.388 296.377 115.624 296.702 116.469 297.873C117.314 299.043 117.704 301.124 117.639 303.531C117.574 305.937 116.989 308.734 116.144 310.49C115.298 312.246 114.128 312.961 113.087 313.352C112.827 313.417 112.632 313.482 112.372 313.547V319.205H111.136V313.547C110.876 313.482 110.681 313.417 110.421 313.352C109.706 313.026 109.055 312.311 108.405 310.685C108.275 310.295 108.08 309.774 107.95 309.254C107.755 309.644 107.495 310.035 107.3 310.36C106.389 311.726 105.479 312.506 104.308 312.961V319.14H103.073V313.352C103.008 313.352 102.943 313.417 102.813 313.417C101.187 313.807 99.0409 313.937 97.285 313.677V319.205H96.0495V313.417C94.5538 312.896 93.3832 311.661 92.2127 308.474ZM135.263 314.652C133.312 314.132 132.661 313.026 132.466 311.921C132.206 310.815 132.336 309.579 132.726 308.474C133.117 307.368 133.767 306.262 134.547 305.547C135.328 304.832 136.173 304.441 137.148 304.376C138.124 304.311 139.229 304.636 140.01 305.287C140.79 305.937 141.18 306.913 141.44 307.953C141.701 308.994 141.766 310.165 141.766 310.815C141.766 311.465 141.766 311.661 141.896 311.595C142.026 311.53 142.286 311.27 142.871 310.945C143.391 310.62 144.237 310.36 145.017 310.36C145.797 310.36 146.448 310.62 146.903 311.205C147.358 311.791 147.618 312.766 147.618 313.547C147.618 314.327 147.358 314.847 146.643 315.042C145.993 315.238 144.952 315.173 142.806 315.108C140.465 315.042 137.214 315.108 135.263 314.652ZM119.46 312.766C118.94 311.986 118.745 311.075 118.94 310.035C119.07 308.994 119.59 307.888 120.306 307.238C121.086 306.588 122.062 306.523 122.842 306.848C123.557 307.173 124.012 307.953 124.403 309.059C124.793 310.1 125.118 311.4 125.053 312.506C124.988 313.547 124.533 314.392 123.882 314.782C123.492 314.977 123.037 315.042 122.582 314.977V319.205H121.346V314.457C120.631 314.067 119.916 313.482 119.46 312.766Z" fill="#63C29D"/>
<path fill-rule="evenodd" clip-rule="evenodd" d="M188.457 313.156L188.392 311.921C187.026 313.937 185.205 315.563 183.58 316.278C183.059 316.538 182.539 316.668 182.084 316.733V319.14H180.848V316.668C180.328 316.538 179.873 316.278 179.483 315.888C178.442 314.847 177.857 312.766 177.857 309.774C177.792 306.718 178.312 302.685 178.898 299.433C179.483 296.182 180.198 293.84 181.174 292.604C182.214 291.434 183.58 291.434 184.88 292.084C186.116 292.735 187.286 293.905 188.327 295.921C188.587 294.165 188.977 292.93 189.367 291.824C190.018 290.003 190.668 288.637 191.448 287.532C192.164 286.426 192.944 285.58 193.724 285.841C194.505 286.166 195.22 287.597 195.61 289.938C196 292.279 196 295.596 195.48 299.889C195.48 300.149 195.415 300.344 195.415 300.604C196.066 299.629 196.911 299.043 197.756 298.783C198.927 298.458 200.227 298.783 201.528 300.344C202.829 301.905 204.064 304.636 204.454 307.303C204.91 309.97 204.584 312.571 203.934 314.392C203.284 316.213 202.308 317.319 200.618 317.384C200.423 317.384 200.162 317.384 199.967 317.384V319.14H198.732V317.189C197.366 316.864 196 316.278 194.96 315.498C194.05 314.782 193.464 314.002 193.139 313.221C192.554 315.953 192.164 316.864 191.513 317.319C191.383 317.384 191.253 317.449 191.123 317.514V319.14H189.888V317.644C189.628 317.579 189.367 317.514 189.172 317.384C188.587 317.059 188.587 316.473 188.457 313.156ZM230.857 317.774V319.14H229.621V317.384C229.556 317.319 229.491 317.319 229.491 317.254C228.711 316.603 227.67 315.433 227.15 314.847C226.63 314.262 226.63 314.197 226.5 314.782C226.37 315.303 226.174 316.473 225.849 317.189C225.524 317.904 225.004 318.229 223.963 318.229C222.923 318.164 221.362 317.774 220.257 316.798C219.151 315.758 218.566 314.197 218.306 312.311C218.046 310.49 218.046 308.409 218.306 306.718C218.566 305.027 219.021 303.661 219.606 302.685C220.257 301.71 221.037 301.059 221.882 301.059C222.728 301.059 223.573 301.71 224.028 302.1C224.484 302.425 224.484 302.425 224.549 301.71C224.614 300.929 224.679 299.433 225.069 297.482C225.459 295.531 226.109 293.125 227.02 291.239C227.93 289.418 229.036 288.117 230.336 287.792C231.572 287.467 232.938 288.117 233.783 289.873C234.563 291.694 234.758 294.686 234.758 298.133C234.758 301.515 234.563 305.352 234.108 308.409C233.653 311.465 233.003 313.677 232.482 315.173C231.962 316.668 231.507 317.384 231.117 317.709C231.117 317.709 230.987 317.774 230.857 317.774ZM256.478 315.563C254.723 314.912 252.772 313.612 251.276 312.051C249.845 310.425 248.87 308.539 248.415 306.458C247.96 304.376 248.025 302.035 248.61 299.954C249.195 297.873 250.236 295.986 251.666 294.1C253.097 292.214 254.853 290.263 256.804 289.092C258.755 287.987 260.901 287.597 262.656 288.897C264.412 290.198 265.713 293.06 266.558 295.271C267.404 297.482 267.794 298.978 267.989 299.824C268.184 300.669 268.249 300.929 268.574 300.864C268.899 300.799 269.484 300.409 270.265 300.409C271.045 300.409 272.021 300.799 272.866 301.45C273.646 302.1 274.297 303.011 274.492 304.246C274.557 304.701 274.557 305.157 274.492 305.612C274.622 305.547 274.752 305.482 274.882 305.482C276.183 305.092 277.678 304.897 278.979 305.352C280.279 305.807 281.255 306.978 281.71 308.018C282.165 309.059 281.97 309.97 281.84 310.62C281.71 311.27 281.58 311.661 281.645 311.726C281.71 311.791 281.84 311.595 282.425 311.27C282.946 310.945 283.921 310.555 284.767 310.49C285.677 310.425 286.522 310.685 287.238 311.075C287.953 311.465 288.538 312.051 288.994 312.571C289.449 313.091 289.839 313.612 289.969 314.002C290.034 314.392 289.839 314.717 285.157 314.847C281.255 314.977 274.362 314.977 269.68 314.782C269.159 315.238 268.769 315.368 268.119 315.693C267.404 316.018 266.363 316.408 265.192 316.538C264.022 316.668 262.721 316.603 261.291 316.473C260.64 316.473 259.99 316.408 259.34 316.343V319.335H258.104V316.148C257.584 315.888 257.064 315.758 256.478 315.563Z" fill="#63C29D"/>
<path d="M141.766 304.051H169.208" stroke="#65C299" stroke-width="0.7322" stroke-miterlimit="22.9256"/>
<path d="M141.766 309.124H169.208" stroke="#65C299" stroke-width="0.7322" stroke-miterlimit="22.9256"/>
<path d="M136.433 297.482H131.751V315.303H136.433V297.482Z" fill="#63C29D"/>
<path d="M103.593 224.835V307.888" stroke="#65C299" stroke-width="0.7322" stroke-miterlimit="22.9256"/>
<path d="M121.671 247.989V312.896" stroke="#65C299" stroke-width="0.7322" stroke-miterlimit="22.9256"/>
<path d="M133.572 255.403H130.841V258.134H133.572V255.403Z" fill="#63C29D"/>
<path d="M126.744 266.004H124.013V268.736H126.744V266.004Z" fill="#63C29D"/>
<path d="M140.465 255.403H137.734V258.134H140.465V255.403Z" fill="#63C29D"/>
<path d="M140.465 260.736H137.734V263.467H140.465V260.736Z" fill="#63C29D"/>
<path d="M133.572 281.808H130.841V284.54H133.572V281.808Z" fill="#63C29D"/>
<path d="M126.744 287.076H124.013V289.808H126.744V287.076Z" fill="#63C29D"/>
<path d="M140.465 276.54H137.734V279.272H140.465V276.54Z" fill="#63C29D"/>
<path d="M140.465 281.808H137.734V284.54H140.465V281.808Z" fill="#63C29D"/>
<path d="M140.465 292.409H137.734V295.141H140.465V292.409Z" fill="#63C29D"/>
<path d="M108.731 236.932H117.315" stroke="#65C299" stroke-width="0.7325" stroke-miterlimit="22.9256"/>
<path d="M108.731 242.135H117.315" stroke="#65C299" stroke-width="0.7325" stroke-miterlimit="22.9256"/>
<path d="M108.731 247.468H117.315" stroke="#65C299" stroke-width="0.7325" stroke-miterlimit="22.9256"/>
<path d="M108.731 252.671H117.315" stroke="#65C299" stroke-width="0.7325" stroke-miterlimit="22.9256"/>
<path d="M108.731 258.07H117.315" stroke="#65C299" stroke-width="0.7325" stroke-miterlimit="22.9256"/>
<path d="M108.731 263.273H117.315" stroke="#65C299" stroke-width="0.7325" stroke-miterlimit="22.9256"/>
<path d="M108.731 268.671H117.315" stroke="#65C299" stroke-width="0.7325" stroke-miterlimit="22.9256"/>
<path d="M108.731 273.874H117.315" stroke="#65C299" stroke-width="0.7325" stroke-miterlimit="22.9256"/>
<path d="M108.731 279.012H117.315" stroke="#65C299" stroke-width="0.7325" stroke-miterlimit="22.9256"/>
<path d="M108.731 284.215H117.315" stroke="#65C299" stroke-width="0.7325" stroke-miterlimit="22.9256"/>
<path d="M53.715 261.256H72.0535" stroke="#FFF8F1" stroke-width="0.7415" stroke-miterlimit="22.9256"/>
<path d="M53.715 266.134H72.0535" stroke="#FFF8F1" stroke-width="0.7415" stroke-miterlimit="22.9256"/>
<path d="M53.715 271.012H72.0535" stroke="#FFF8F1" stroke-width="0.7415" stroke-miterlimit="22.9256"/>
<path d="M53.715 276.345H72.0535" stroke="#FFF8F1" stroke-width="0.7415" stroke-miterlimit="22.9256"/>
<path fill-rule="evenodd" clip-rule="evenodd" d="M66.721 318.099H285.482C284.507 318.685 283.466 319.205 282.426 319.79H69.0621C68.2818 319.205 67.5014 318.62 66.721 318.099Z" fill="#63C29D"/>
<path fill-rule="evenodd" clip-rule="evenodd" d="M222.924 318.099H225.005C224.744 318.229 224.419 318.229 223.964 318.229C223.704 318.229 223.314 318.164 222.924 318.099Z" fill="#63C29D"/>
<path d="M184.751 282.459V309.644" stroke="#65C299" stroke-width="1.6458" stroke-miterlimit="22.9256"/>
<path d="M179.418 257.419V284.54" stroke="#FFF8F1" stroke-width="1.6461" stroke-miterlimit="22.9256"/>
<path d="M108.731 236.932H117.315" stroke="#65C299" stroke-width="0.7325" stroke-miterlimit="22.9256"/>
<path d="M90.977 288.182H76.3452V292.344H90.977V288.182Z" stroke="#65C299" stroke-width="0.7325" stroke-miterlimit="22.9256"/>
<path d="M90.977 295.791H76.3452V299.954H90.977V295.791Z" stroke="#65C299" stroke-width="0.7325" stroke-miterlimit="22.9256"/>
<path d="M90.977 303.336H76.3452V307.498H90.977V303.336Z" stroke="#65C299" stroke-width="0.7325" stroke-miterlimit="22.9256"/>
<path fill-rule="evenodd" clip-rule="evenodd" d="M217.851 331.692L214.924 323.888L215.12 313.742L213.039 311.856L214.274 308.669C212.453 306.002 208.812 306.067 209.852 308.409L209.007 311.4L211.348 312.246L209.462 314.977L209.137 320.961L207.316 322.067L206.21 323.432L206.731 324.278L207.836 323.758L209.072 323.432L208.747 333.578L206.926 334.749L211.673 334.554L212.518 326.944L215.575 332.212L214.339 334.554L215.77 334.489L217.851 331.692ZM195.546 325.904L194.18 325.253C192.359 324.473 192.294 324.148 192.554 323.172L194.05 323.432L195.025 322.912H195.611L196.001 321.741L196.781 323.172L197.041 322.002C197.236 321.937 197.757 323.562 197.952 323.562L198.082 325.774L202.114 326.814L202.244 326.749L202.634 325.709L201.593 324.538C204.455 323.627 205.69 325.774 203.674 327.855L203.804 328.05L205.04 330.977L206.21 331.302L206.861 333.968L206.145 334.359L206.08 334.229L205.365 332.603L203.349 332.082L202.439 330.782L201.073 331.887L201.528 332.733L200.553 334.033H199.903L199.707 333.708L200.098 332.733L198.992 331.367L199.512 330.261L198.212 330.847L199.252 333.773L198.472 333.968L197.952 333.838L198.147 333.188L196.326 330.326L195.025 330.001L193.595 330.587L193.334 331.692L192.424 331.822L192.164 330.977L192.879 329.936L193.009 329.806L194.505 328.31L194.44 327.009L194.57 326.814L195.546 325.904Z" fill="#63C29D"/>
<path fill-rule="evenodd" clip-rule="evenodd" d="M150.089 329.546C147.228 327.204 143.847 322.457 145.082 318.229L146.903 312.116L151.585 307.303C150.415 302.685 150.935 301.059 153.536 299.694C155.032 298.913 157.373 298.328 158.934 299.498L158.478 300.604L158.999 302.165L158.869 303.336L158.218 307.628L156.397 307.693L159.779 311.14L159.844 325.318L161.665 335.594L160.624 349.252L163.811 349.773L164.656 351.268H156.527L156.853 339.757L155.617 335.269L152.431 349.577L154.967 350.553L155.357 351.398L147.553 351.333L150.089 329.546Z" fill="#63C29D"/>
<path fill-rule="evenodd" clip-rule="evenodd" d="M164.071 311.335C163.811 307.758 163.16 306.002 167.387 304.897C169.663 304.246 172.59 304.311 171.744 307.043L172.98 310.62L171.484 311.205L171.809 312.766L173.435 314.067L173.565 314.522L177.402 327.725L176.556 328.961L177.012 334.944L175.581 335.659L175.841 348.472L179.678 350.618H173.63L171.224 335.92L170.183 341.383L168.883 346.911L169.338 349.122L171.029 350.748H167.907L165.176 348.342L167.582 340.277L167.192 335.334L163.42 332.408L165.891 317.059L163.941 315.563C164.461 313.547 164.201 313.352 164.071 311.335Z" fill="#63C29D"/>
<path fill-rule="evenodd" clip-rule="evenodd" d="M80.0519 305.287L80.312 303.921C79.7918 303.986 79.4667 304.181 79.3366 303.726C79.0114 302.815 79.0765 301.515 79.6617 300.864C80.9623 299.368 82.2629 301.905 82.5881 302.945L81.6126 303.466C84.0838 304.441 84.2789 307.888 84.9292 310.295L83.6286 311.4L85.9697 313.612V315.042L85.1243 314.132L83.0433 313.221L83.4335 316.538H87.5304C87.7255 316.213 88.1157 316.018 88.5058 316.018C89.1561 316.018 89.6113 316.538 89.6113 317.124C89.6113 317.774 89.0911 318.229 88.5058 318.229C87.9856 318.229 87.5304 317.904 87.4003 317.384H79.9219C79.7918 317.839 79.3366 318.229 78.8164 318.229C78.1661 318.229 77.7108 317.709 77.7108 317.124C77.7108 316.603 78.036 316.148 78.5562 316.018V309.384H78.2961L78.101 309.449L77.6458 309.319L77.9059 308.604L78.5562 308.279L80.117 307.433L80.0519 305.287ZM79.0765 316.148C79.3366 316.213 79.5967 316.408 79.7918 316.603H82.2629L80.4421 308.864L79.5317 309.124L79.0114 309.514L79.0765 316.148Z" fill="#63C29D"/>
<path fill-rule="evenodd" clip-rule="evenodd" d="M235.994 314.067C236.255 311.27 235.734 308.604 237.555 306.327L236.515 306.262C237.23 305.222 236.255 303.986 237.685 303.076C238.661 302.425 240.872 303.726 239.896 304.051V304.506L239.571 305.872H239.311L239.116 306.262L239.896 306.718L240.612 309.124L241.327 309.254L241.717 309.449L241.782 309.644C242.107 309.709 242.497 309.904 243.018 310.555L244.123 312.051C244.318 310.75 245.424 310.75 245.879 312.116L245.684 312.766L246.074 312.831L247.049 314.327L247.96 314.457L248.545 317.254C248.545 317.709 248.155 318.099 247.7 318.099C247.245 318.099 246.854 317.774 246.854 317.319H245.424C245.359 317.774 245.034 318.099 244.578 318.099C244.123 318.099 243.733 317.709 243.733 317.254V317.189H243.668H242.692V317.254C242.692 317.709 242.302 318.099 241.847 318.099C241.392 318.099 241.002 317.709 241.002 317.254C241.002 316.994 241.132 316.733 241.327 316.603L241.197 316.473L240.156 314.197L239.896 314.327L239.181 317.579L240.351 318.099H238.466L238.27 314.717L236.385 316.148L236.45 317.384H236.124L235.474 315.953L236.84 314.197L235.994 314.067ZM239.961 309.839L239.701 309.449V309.579L239.766 309.839H239.961Z" fill="#63C29D"/>
<path fill-rule="evenodd" clip-rule="evenodd" d="M127.654 306.718L125.833 307.953V308.214L125.573 311.661L126.419 314.002V315.693L126.679 317.514L126.939 318.424L128.5 318.555L128.435 316.148L129.67 318.424L130.841 318.75L130.906 311.726L130.386 307.953L129.345 306.783C129.8 306.653 129.735 305.937 129.735 305.287C129.735 304.311 129.085 303.271 127.719 303.921C126.874 304.246 126.549 305.677 127.654 306.718Z" fill="#63C29D"/>
<path fill-rule="evenodd" clip-rule="evenodd" d="M131.816 327.009L132.141 320.961L133.572 319.335C132.206 314.132 138.449 315.628 135.523 319.075L136.563 320.18L136.433 322.262L137.734 322.652L137.214 323.888L136.043 324.213V324.863L137.149 327.465L137.994 327.205L138.254 327.79L136.303 328.961L134.157 326.099L133.702 327.595L131.881 328.57L131.296 329.676L130.451 327.205L131.816 327.009Z" fill="#63C29D"/>
<path fill-rule="evenodd" clip-rule="evenodd" d="M343.684 339.106C333.084 344.765 318.062 348.407 305.901 352.634C307.722 353.024 309.608 353.285 311.559 353.545C335.685 356.276 372.817 348.472 398.049 336.7C399.935 335.789 401.756 334.879 403.512 333.968C403.837 326.294 402.861 319.465 401.366 314.457H368.851V314.132C363.453 321.546 357.145 331.887 343.684 339.106Z" fill="#FBDCA1"/>
<path fill-rule="evenodd" clip-rule="evenodd" d="M384.132 198.69C386.734 186.203 392.456 182.431 399.935 178.984C418.013 170.529 446.366 175.667 451.829 198.69C454.43 209.551 451.504 221.843 444.415 230.233C445.001 229.908 447.147 227.892 450.528 226.396C453.91 224.9 458.462 223.925 462.039 224.51C465.615 225.095 468.151 227.177 469.647 229.323C471.208 231.469 471.728 233.68 471.598 235.436C471.533 237.257 470.818 238.623 470.557 239.274C470.427 239.534 470.427 239.664 470.688 239.664C527.329 227.567 537.864 286.816 505.349 305.807C499.821 309.059 491.432 309.384 479.922 309.644C463.469 309.969 439.733 308.213 421.655 303.921C403.641 299.628 391.351 292.8 386.018 283.629C380.686 274.459 382.247 262.947 382.442 247.208C382.702 231.274 381.531 211.242 384.132 198.69Z" stroke="#FFF8F1" stroke-width="0.7325" stroke-miterlimit="22.9256"/>
<path fill-rule="evenodd" clip-rule="evenodd" d="M412.42 314.067V228.998H454.495V314.327L412.42 314.067Z" fill="#FFF8F1"/>
<path d="M472.443 263.923H397.398V314.132H472.443V263.923Z" fill="#FFF8F1"/>
<path d="M483.889 253.647H469.062V314.327H483.889V253.647Z" fill="#FFF8F1"/>
<path d="M448.902 212.283H418.078V238.558H448.902V212.283Z" fill="#FFF8F1"/>
<path fill-rule="evenodd" clip-rule="evenodd" d="M425.101 199.796C425.101 189.975 441.814 190.235 441.814 199.796V217.746H425.101V199.796Z" fill="#FFF8F1"/>
<path d="M433.815 160.383H433.1V197.649H433.815V160.383Z" fill="#FFF8F1"/>
<path d="M412.355 257.874H409.039V314.522H412.355V257.874Z" fill="#F6A05A"/>
<path d="M451.373 285.906H410.729V301.84H451.373V285.906Z" fill="#F6A05A"/>
<path d="M469.062 257.874H465.745V314.522H469.062V257.874Z" fill="#F6A05A"/>
<path fill-rule="evenodd" clip-rule="evenodd" d="M476.475 259.305C479.141 259.305 481.222 261.451 481.222 264.053C481.222 266.719 479.076 268.801 476.475 268.801C473.808 268.801 471.727 266.654 471.727 264.053C471.727 261.451 473.873 259.305 476.475 259.305Z" fill="#FFF8F1" stroke="#F6A05A" stroke-width="0.7325" stroke-miterlimit="22.9256"/>
<path fill-rule="evenodd" clip-rule="evenodd" d="M458.657 311.14C458.072 310.62 457.681 309.514 457.486 308.279C457.291 306.978 457.291 305.482 457.421 303.921C457.616 302.36 457.942 300.734 458.397 299.563C458.852 298.393 459.372 297.612 459.892 297.417C460.413 297.222 460.868 297.612 461.128 298.783C461.388 299.954 461.518 301.905 461.648 303.596C461.843 305.287 462.103 306.848 462.168 307.888C462.233 308.994 462.103 309.644 461.843 310.165C461.583 310.75 461.193 311.14 460.608 311.4C460.087 311.66 459.242 311.66 458.657 311.14Z" fill="#F6A05A"/>
<path fill-rule="evenodd" clip-rule="evenodd" d="M457.096 311.921C457.551 311.4 457.941 311.075 458.462 310.815C458.982 310.62 459.697 310.49 460.413 310.62C461.128 310.75 461.778 311.01 462.429 311.075C463.079 311.075 463.794 310.815 464.379 310.62C464.965 310.36 465.485 310.165 466.07 310.165C466.656 310.165 467.371 310.36 467.956 310.62C468.541 310.88 469.127 311.205 469.582 311.465C470.102 311.726 470.492 311.856 471.013 311.791C471.533 311.726 472.118 311.4 472.703 311.205C473.289 311.01 473.874 310.945 474.329 310.945C474.849 310.945 475.24 311.14 475.565 311.335C475.89 311.595 476.215 311.921 476.345 312.116C476.475 312.311 476.475 312.376 476.605 312.246C476.735 312.116 476.995 311.921 477.32 311.661C477.646 311.4 478.036 311.075 478.621 311.01C479.206 310.945 479.922 311.01 480.507 311.335C481.092 311.595 481.547 312.051 481.808 312.636C482.068 313.156 482.263 313.807 481.808 314.132C481.417 314.522 480.442 314.587 476.02 314.587C471.598 314.587 463.729 314.522 459.697 314.457C455.665 314.392 455.405 314.327 455.275 314.197C455.21 314.067 455.34 313.872 455.665 313.482C456.121 313.026 456.641 312.376 457.096 311.921Z" fill="#F6A05A"/>
<path fill-rule="evenodd" clip-rule="evenodd" d="M473.158 300.864C472.963 302.36 472.963 304.246 473.028 305.612C473.093 307.043 473.354 307.953 473.679 308.669C474.004 309.384 474.394 309.839 474.914 309.579C475.434 309.319 476.02 308.344 476.41 307.303C476.8 306.197 476.995 304.962 476.995 303.531C476.995 302.1 476.865 300.409 476.605 299.173C476.28 297.938 475.825 297.092 475.369 296.832C474.914 296.572 474.459 296.832 474.069 297.547C473.614 298.263 473.288 299.368 473.158 300.864Z" fill="#F47B6A"/>
<path fill-rule="evenodd" clip-rule="evenodd" d="M477.84 302.1C477.385 302.62 476.8 303.531 476.41 304.311C476.02 305.092 475.824 305.677 475.889 306.392C475.954 307.043 476.215 307.758 476.605 308.344C476.995 308.929 477.58 309.319 478.166 309.384C478.751 309.449 479.466 309.254 480.051 308.864C480.637 308.474 481.092 307.953 481.352 307.433C481.612 306.913 481.612 306.457 481.482 306.067C481.352 305.612 480.962 305.222 480.637 305.092C480.312 304.962 480.051 305.027 479.921 304.897C479.791 304.766 479.726 304.441 479.661 303.791C479.531 303.141 479.401 302.165 479.076 301.775C478.751 301.385 478.296 301.58 477.84 302.1Z" fill="#F47B6A"/>
<path fill-rule="evenodd" clip-rule="evenodd" d="M407.673 294.491C406.763 293.45 405.917 293.125 405.267 294.1C404.617 295.076 404.226 297.287 403.771 299.368C403.316 301.45 402.861 303.401 402.861 305.027C402.861 306.653 403.316 307.823 403.901 308.604C404.486 309.319 405.267 309.579 406.112 309.189C406.958 308.799 407.868 307.823 408.518 306.783C409.169 305.742 409.624 304.636 409.884 303.336C410.144 302.035 410.274 300.604 409.819 298.978C409.559 297.352 408.583 295.531 407.673 294.491Z" fill="#F6A05A"/>
<path fill-rule="evenodd" clip-rule="evenodd" d="M401.43 300.279C400.845 301.71 400.39 303.596 400.26 305.287C400.13 306.913 400.39 308.344 400.715 309.254C401.04 310.165 401.43 310.685 401.885 310.945C402.341 311.205 402.796 311.27 403.511 310.36C404.226 309.449 405.202 307.563 405.657 306.067C406.112 304.571 406.047 303.531 405.592 302.035C405.137 300.604 404.226 298.718 403.446 298.328C402.666 297.873 402.015 298.848 401.43 300.279Z" fill="#F6A05A"/>
<path fill-rule="evenodd" clip-rule="evenodd" d="M419.704 294.295V309.839H417.298V294.295H415.412V286.166H457.681V294.295H455.796V309.839H453.39V294.295H448.577V309.839H446.171V294.295H441.359V309.839H438.953V294.295H434.141V309.839H431.735V294.295H426.922V309.839H424.516V294.295H419.704Z" fill="#FFF8F1" stroke="#F6A05A" stroke-width="0.7322" stroke-miterlimit="22.9256"/>
<path d="M457.226 309.384H415.151V314.132H457.226V309.384Z" fill="#FFF8F1" stroke="#F6A05A" stroke-width="0.7325" stroke-miterlimit="22.9256"/>
<path d="M420.159 309.059H411.315V314.392H420.159V309.059Z" fill="#F6A05A"/>
<path d="M416.322 228.672H450.463" stroke="#F6A05A" stroke-width="0.7325" stroke-miterlimit="22.9256"/>
<path d="M418.208 233.615V281.418" stroke="#F6A05A" stroke-width="0.7325" stroke-miterlimit="22.9256"/>
<path d="M448.772 233.615V281.418" stroke="#F6A05A" stroke-width="0.7325" stroke-miterlimit="22.9256"/>
<path d="M437.912 213.259V228.607" stroke="#F47B6A" stroke-width="2.7247" stroke-miterlimit="22.9256"/>
<path d="M439.472 232.9V281.873" stroke="#F6A05A" stroke-width="0.8586" stroke-miterlimit="22.9256"/>
<path d="M435.441 232.9V281.873" stroke="#F6A05A" stroke-width="0.8586" stroke-miterlimit="22.9256"/>
<path d="M431.474 232.9V281.873" stroke="#F6A05A" stroke-width="0.8586" stroke-miterlimit="22.9256"/>
<path d="M427.507 232.9V281.873" stroke="#F6A05A" stroke-width="0.8586" stroke-miterlimit="22.9256"/>
<path d="M444.935 228.933H441.619V286.166H444.935V228.933Z" fill="#F6A05A"/>
<path d="M439.863 212.348H436.547V228.868H439.863V212.348Z" fill="#F6A05A"/>
<path d="M510.095 280.442H474.654V314.392H510.095V280.442Z" fill="#FFF8F1" stroke="#F6A05A" stroke-width="0.7325" stroke-miterlimit="22.9256"/>
<path fill-rule="evenodd" clip-rule="evenodd" d="M492.667 270.882L510.68 280.572H474.004L492.667 270.882Z" fill="#FFF8F1" stroke="#F6A05A" stroke-width="0.8887" stroke-miterlimit="22.9256"/>
<path d="M520.956 291.044H463.729V314.392H520.956V291.044Z" fill="#FFF8F1" stroke="#F6A05A" stroke-width="0.7325" stroke-miterlimit="22.9256"/>
<path fill-rule="evenodd" clip-rule="evenodd" d="M475.89 290.979L468.541 295.011V314.262H475.304L475.174 313.221V303.726H510.486H511.786V296.962L488.57 286.426L479.596 290.979H475.89Z" fill="#F6A05A"/>
<path d="M513.737 295.076H471.013V298.328H513.737V295.076Z" fill="#FFF8F1" stroke="#F6A05A" stroke-width="0.7322" stroke-miterlimit="22.9256"/>
<path d="M513.737 311.27H471.013V314.522H513.737V311.27Z" fill="#FFF8F1" stroke="#F6A05A" stroke-width="0.7322" stroke-miterlimit="22.9256"/>
<path d="M475.825 299.498H473.549V311.075H475.825V299.498Z" fill="#FFF8F1" stroke="#F6A05A" stroke-width="0.7322" stroke-miterlimit="22.9256"/>
<path d="M481.743 299.498H479.467V311.075H481.743V299.498Z" fill="#FFF8F1" stroke="#F6A05A" stroke-width="0.7325" stroke-miterlimit="22.9256"/>
<path d="M487.725 299.498H485.449V311.075H487.725V299.498Z" fill="#FFF8F1" stroke="#F6A05A" stroke-width="0.7325" stroke-miterlimit="22.9256"/>
<path d="M493.643 299.498H491.367V311.075H493.643V299.498Z" fill="#FFF8F1" stroke="#F6A05A" stroke-width="0.7325" stroke-miterlimit="22.9256"/>
<path d="M499.561 299.498H497.285V311.075H499.561V299.498Z" fill="#FFF8F1" stroke="#F6A05A" stroke-width="0.7325" stroke-miterlimit="22.9256"/>
<path d="M505.544 299.498H503.268V311.075H505.544V299.498Z" fill="#FFF8F1" stroke="#F6A05A" stroke-width="0.7325" stroke-miterlimit="22.9256"/>
<path d="M511.461 299.498H509.185V311.075H511.461V299.498Z" fill="#FFF8F1" stroke="#F6A05A" stroke-width="0.7325" stroke-miterlimit="22.9256"/>
<path d="M463.924 295.076H521.085" stroke="#F6A05A" stroke-width="0.7325" stroke-miterlimit="22.9256"/>
<path fill-rule="evenodd" clip-rule="evenodd" d="M492.732 284.475L513.542 295.076H471.142L492.732 284.475Z" fill="#FFF8F1" stroke="#F6A05A" stroke-width="0.9488" stroke-miterlimit="22.9256"/>
<path fill-rule="evenodd" clip-rule="evenodd" d="M514.713 311.01C514.193 310.425 513.803 309.449 513.608 308.213C513.413 306.913 513.413 305.417 513.543 303.856C513.738 302.295 514.063 300.669 514.518 299.498C514.973 298.328 515.493 297.547 516.014 297.352C516.534 297.157 516.989 297.547 517.249 298.718C517.509 299.889 517.639 301.84 517.77 303.531C517.965 305.222 518.225 306.783 518.29 307.823C518.355 308.929 518.225 309.579 517.965 310.1C517.835 310.425 517.639 310.685 517.379 310.945C517.77 311.075 518.16 311.14 518.485 311.14C519.135 311.14 519.85 310.88 520.436 310.685C521.021 310.425 521.541 310.23 522.127 310.23C522.712 310.23 523.427 310.425 524.012 310.685C524.598 310.945 525.183 311.27 525.638 311.53C526.158 311.791 526.549 311.921 527.069 311.856C527.589 311.791 528.174 311.465 528.76 311.27C529.28 311.14 529.735 311.01 530.19 311.01V309.384C529.995 309.189 529.8 308.929 529.605 308.539C529.28 307.823 529.085 306.848 528.955 305.482C528.89 304.051 528.89 302.165 529.085 300.734C529.28 299.238 529.605 298.133 529.995 297.482C530.385 296.767 530.841 296.507 531.296 296.767C531.751 297.027 532.206 297.872 532.531 299.108C532.791 300.279 532.987 301.84 532.921 303.206C533.182 302.75 533.507 302.295 533.767 301.97C534.287 301.45 534.677 301.254 535.002 301.645C535.328 302.035 535.458 303.01 535.588 303.661C535.718 304.311 535.718 304.636 535.848 304.766C535.978 304.897 536.303 304.766 536.563 304.962C536.888 305.092 537.213 305.482 537.409 305.937C537.539 306.392 537.539 306.848 537.278 307.303C537.018 307.823 536.563 308.344 535.978 308.734C535.718 308.929 535.393 309.059 535.067 309.189V311.14C535.588 311.14 536.108 311.27 536.563 311.465C537.148 311.725 537.604 312.181 537.864 312.766C538.124 313.286 538.319 313.937 537.864 314.262C537.474 314.652 536.498 314.717 532.466 314.717C528.434 314.717 521.346 314.652 517.704 314.587C514.063 314.522 513.803 314.457 513.673 314.327C513.608 314.197 513.738 314.002 513.673 313.612C513.608 313.221 513.347 312.571 513.413 312.051C513.478 311.53 513.868 311.205 514.388 310.945C514.648 311.075 514.713 311.01 514.713 311.01ZM534.612 309.384C534.547 309.384 534.417 309.384 534.352 309.384C533.767 309.319 533.182 308.864 532.791 308.344C532.661 308.148 532.531 307.888 532.401 307.693C532.011 308.604 531.556 309.384 531.101 309.644V311.27C531.426 311.335 531.686 311.465 531.881 311.66C532.206 311.921 532.531 312.246 532.661 312.441C532.791 312.636 532.791 312.701 532.921 312.571C533.052 312.441 533.312 312.246 533.637 311.986C533.897 311.791 534.222 311.53 534.612 311.4V309.384V309.384Z" fill="#F6A05A"/>
<path fill-rule="evenodd" clip-rule="evenodd" d="M439.928 321.481L437.522 315.042L437.717 306.718L435.961 305.157L437.002 302.555C435.506 300.344 432.515 300.409 433.36 302.36L432.645 304.832L434.596 305.547L433.035 307.823L432.71 313.547L432.385 323.172L430.889 324.148L434.791 323.953L435.506 317.709L438.042 322.067L437.067 323.953L438.237 323.888L439.928 321.481Z" fill="#F6A05A"/>
<path fill-rule="evenodd" clip-rule="evenodd" d="M418.664 307.368L417.103 308.474V308.734L416.843 311.725L417.363 314.002L416.778 315.238L417.038 316.863L417.298 317.644L420.549 317.514L420.68 316.603L420.81 318.099L419.834 318.294L420.289 319.79L422.305 318.554L422.5 316.343L424.907 318.88L425.687 318.229L424.256 315.693L424.191 315.172L424.972 314.977L425.232 314.002L424.191 313.677L424.061 312.116L423.151 311.27L423.606 310.555L423.736 309.189L422.5 308.994L421.59 309.774L421.72 311.465L421.525 311.66L420.419 307.238L420.094 305.222L418.859 304.506L418.078 305.222L417.753 306.457L418.664 307.368Z" fill="#F6A05A"/>
<path fill-rule="evenodd" clip-rule="evenodd" d="M409.949 313.742C410.079 313.677 410.144 313.547 410.274 313.482L410.339 313.547L410.209 315.498L409.949 313.742ZM411.315 308.344L411.12 307.628L409.494 305.937C409.884 304.311 409.754 303.726 408.779 303.271C408.259 303.01 407.413 302.75 406.893 303.206L407.023 303.596L406.828 304.116L406.893 304.506L407.088 306.002H407.738L406.568 307.238V312.246L405.917 315.823L406.308 320.636L405.202 320.831L404.942 321.351H407.803L407.673 317.319L408.128 315.758L409.234 320.766L408.324 321.091L408.194 321.416H410.925V321.286H411.445L412.29 316.148L413.136 319.985L412.941 320.766L412.355 321.351H413.461L414.436 320.506L413.656 318.294L413.721 315.953L415.022 314.912L414.371 309.97L415.087 309.449C414.892 308.734 414.957 308.539 415.022 307.823C415.087 306.588 415.087 305.352 413.591 304.962C412.811 304.766 411.77 304.766 412.03 305.742L411.51 307.238L412.16 307.498L412.03 308.083L411.315 308.344ZM410.6 319.01L410.209 315.693L410.665 315.953L410.6 319.01Z" fill="#F6A05A"/>
<path fill-rule="evenodd" clip-rule="evenodd" d="M446.497 307.628L446.757 307.953L445.586 308.864L444.156 312.896L444.871 315.693L446.041 316.018L446.562 320.506L448.838 320.636L448.708 316.668L450.073 310.555L449.033 308.344L449.293 308.278L449.488 307.953V306.002L448.252 305.287H447.082L446.497 307.628ZM452.219 306.522L453.195 308.539L451.244 310.36L450.008 316.994L451.439 316.863L451.049 320.115L452.219 320.636L453.26 317.514L453.39 319.985H454.82L456.251 308.539L455.601 308.148L456.121 306.067L455.406 304.506C455.016 304.506 455.081 304.571 455.081 304.311L453.52 304.506L452.219 306.522Z" fill="#F6A05A"/>
<path fill-rule="evenodd" clip-rule="evenodd" d="M467.046 309.579L466.33 310.1L467.046 313.872L466.915 315.953L467.631 316.083L467.501 318.164L468.541 318.424L469.127 316.798L469.517 318.164L470.492 318.294L470.427 312.766V312.506L468.931 308.864L468.801 308.929L468.931 308.604L468.086 306.718L466.785 306.783L466.525 308.278L467.046 309.579Z" fill="#F6A05A"/>
<path fill-rule="evenodd" clip-rule="evenodd" d="M481.222 338.066L480.312 331.952L477.451 330.782L479.076 324.798L478.036 313.807L480.117 311.335C479.466 310.035 479.206 308.604 479.466 307.433C479.792 305.742 481.092 304.766 483.693 306.262L484.929 311.856L484.344 312.116L486.165 313.872V314.197L488.376 321.871L490.066 312.701L492.928 311.725L491.367 311.205L492.603 306.783C491.107 305.677 497.025 305.222 496.634 308.409L495.919 311.66L499.626 313.807L500.991 320.506L498 324.733L498.26 327.595L498.715 334.098L499.171 335.074L498.26 337.871L497.22 337.936L497.025 334.294L494.749 327.985L494.684 339.106L491.107 339.301L492.407 337.806L491.237 326.619L490.847 322.392L489.416 326.294L487.53 326.229L487.595 325.969L485.774 322.587L485.189 328.96V333.123L486.23 336.83L485.384 339.171L484.279 339.301L484.344 337.22L483.108 333.903L483.043 339.301L478.556 339.562L481.222 338.066Z" fill="#F6A05A"/>
<path fill-rule="evenodd" clip-rule="evenodd" d="M507.82 310.035L508.015 310.295L507.43 310.75V310.685L506.714 310.1L507.17 308.864L506.974 307.368L505.674 307.303L504.763 309.124L504.959 309.449H504.763L503.333 313.091V313.351L503.268 318.815L504.243 318.75L504.633 317.384L505.154 319.01L506.259 318.75L506.129 316.668L506.779 316.538V315.628L507.495 315.823L507.82 318.945L509.381 319.01L509.316 316.278L510.291 312.051L509.511 310.49H509.706L509.836 310.23V308.864L508.99 308.409H508.21L507.82 310.035Z" fill="#F6A05A"/>
</g>
<defs>
<clipPath id="clip0">
<rect width="551" height="354" fill="white"/>
</clipPath>
</defs>
</svg>
