<svg width="1280" height="600" viewBox="0 0 1280 600" fill="none" xmlns="http://www.w3.org/2000/svg">
<rect x="-2" width="1282" height="600" fill="#FFF8F1"/>
<g clip-path="url(#clip0)">
<path fill-rule="evenodd" clip-rule="evenodd" d="M232.499 35.7C254.599 40.7 271.799 51.7 282.399 64.2C292.999 76.7 297.199 90.8 312.599 102.6C327.999 114.4 354.799 124.1 389.999 120.9C425.199 117.7 468.899 101.7 520.399 112.4C571.899 123.1 631.199 160.4 658.699 210.2C686.299 260 682.099 322.2 654.299 378.8C626.399 435.4 574.899 486.4 491.799 500.5C408.799 514.6 294.299 492 225.799 467.2C157.399 442.5 135.099 415.7 111.999 386.2C88.8991 356.6 64.9991 324.3 57.3991 294.8C49.7991 265.3 58.3991 238.6 68.8991 220.1C79.3991 201.6 91.8991 191.2 98.2991 180C104.699 168.8 105.199 156.9 103.499 142.3C101.799 127.7 98.0991 110.6 106.499 91.9C114.899 73.2 135.499 52.9 159.399 42.3C183.299 31.8 210.399 30.7 232.499 35.7Z" stroke="#FEC34E" stroke-width="0.9488" stroke-miterlimit="22.9256"/>
<path fill-rule="evenodd" clip-rule="evenodd" d="M822.399 511.6C837.999 507.4 842.999 501.3 844.699 494.4C846.899 485.6 843.599 475.6 834.999 470.3C826.399 465.1 812.499 464.6 808.599 452.3C804.699 440 810.799 415.8 806.599 395C802.499 374.2 788.099 356.8 768.999 346.8C749.999 336.8 726.199 334.2 703.399 338.3C680.499 342.4 658.599 353.3 641.699 368.1C624.799 382.9 613.099 401.6 611.799 424.9C610.499 448.2 619.599 476.1 632.499 492.4C640.299 502.3 649.399 508 662.799 511.4H822.399V511.6Z" fill="#5087C7"/>
<path fill-rule="evenodd" clip-rule="evenodd" d="M642.1 291.4C620.3 288.5 596.9 289 570.2 297.1C543.5 305.2 513.4 320.9 473.5 330.5C433.5 340 383.7 343.4 355.3 355.9C326.9 368.3 319.9 389.9 331.8 419.8C343.8 449.8 374.7 488.2 398.7 517.6C422.8 547 440 567.3 477.1 571.5C514.2 575.7 571.3 563.7 610.1 545.6C648.9 527.4 669.6 503 678.3 479C687 455 683.8 431.4 690 413.4C696.2 395.4 711.9 382.9 715.8 366.1C719.7 349.3 711.9 328.1 697.9 314.4C684 300.6 663.8 294.3 642.1 291.4Z" fill="#F6A05A"/>
<path d="M833.299 511.6H396.799V527.7H833.299V511.6Z" fill="#FFF8F1"/>
<path fill-rule="evenodd" clip-rule="evenodd" d="M610.499 335.9C627.399 351.7 652.399 372.8 666.899 388.4C681.399 404 685.299 414 688.199 422.6C691.099 431.2 693.099 438.4 694.599 439.4C696.199 440.4 697.299 435.3 698.899 423.2C700.499 411.1 702.599 391.9 701.299 370.5C699.999 349.1 695.499 325.3 713.399 308.3C731.299 291.3 771.599 280.9 784.799 272.1C797.999 263.2 784.099 255.8 767.499 252.6C750.999 249.3 731.799 250.2 717.799 249.3C703.799 248.4 694.799 245.8 684.199 238C673.499 230.2 661.099 217.1 645.299 211.2C629.499 205.3 610.399 206.6 596.399 215.4C582.499 224.2 573.799 240.5 571.299 255.8C568.799 271 572.499 285.2 578.699 297.5C584.899 309.6 593.699 320.1 610.499 335.9Z" fill="#F6A05A"/>
<path fill-rule="evenodd" clip-rule="evenodd" d="M702.399 324.4C681.899 326.4 663.699 315 644.299 310.2C626.699 305.8 608.099 306.7 590.299 314.8C585.399 308.9 581.799 303.3 578.799 297.3C572.599 285 568.899 270.9 571.399 255.6C573.899 240.4 582.599 224 596.499 215.2C610.399 206.4 629.599 205.1 645.399 211C661.199 216.9 673.599 229.9 684.299 237.8C694.999 245.6 703.899 248.2 717.899 249.1C729.899 249.8 745.699 249.3 760.399 251.2C764.599 260.5 765.699 271.5 761.099 282.9C749.999 307.5 728.699 322.4 703.099 324.4C702.799 324.3 702.599 324.4 702.399 324.4Z" fill="#FEC34E"/>
<path fill-rule="evenodd" clip-rule="evenodd" d="M442.299 132.5C425.999 136.2 413.399 144.2 405.599 153.4C397.799 162.6 394.799 172.9 383.399 181.6C372.099 190.3 352.399 197.4 326.499 195C300.599 192.7 268.499 180.9 230.699 188.7C192.899 196.5 149.399 224 129.099 260.5C108.899 297.1 111.899 342.799 132.399 384.4C152.899 426 190.699 463.4 251.699 473.799C312.699 484.199 396.799 467.5 446.999 449.4C497.199 431.199 513.599 411.6 530.599 389.9C547.599 368.2 565.099 344.499 570.699 322.799C576.299 301.1 569.999 281.5 562.299 267.9C554.599 254.3 545.399 246.7 540.699 238.5C535.999 230.3 535.599 221.5 536.899 210.8C538.099 200.1 540.899 187.5 534.699 173.8C528.499 160.1 513.399 145.2 495.899 137.4C478.499 129.6 458.599 128.8 442.299 132.5Z" fill="#FEC34E"/>
<path fill-rule="evenodd" clip-rule="evenodd" d="M278.4 345.1V351.8H282.5V356.8H278.4V420C278.4 446.9 294.7 487.5 303.6 512.5H233.6C242.9 486.9 258.8 446.9 258.8 420V356.7H254.7V351.7H258.8V345H254.7V340H261.5V246.7H257.6V235H261.6V175.3H258V165.5H255.6V145.4H262.7V125.4H266V79.1H267.1L268.7 28L270.1 79.1H271.2V125.4H274.5V145.5H281.6V165.6H279.2V175.4H275.6V235H279.6V246.7H275.7V340H282.5V345H278.4V345.1Z" fill="#FEC34E" stroke="#FFF8F1" stroke-width="0.7325" stroke-miterlimit="22.9256"/>
<path fill-rule="evenodd" clip-rule="evenodd" d="M517.2 378.001V252.801C516.1 242.701 499.8 234.101 482 243.601L457.7 256.601C460.4 267.601 460.9 277.8 462.3 287.4C464 298.6 466.4 316.6 467.9 337.4L487.7 331.101L506.1 337.601L506.5 388.101L517.2 378.001Z" fill="#FEC34E" stroke="#FFF8F1" stroke-width="0.7364" stroke-miterlimit="22.9256"/>
<path fill-rule="evenodd" clip-rule="evenodd" d="M408.899 298.001L386.899 307.701V248.801L363.799 240.301L335.899 258.201V429.501L413.799 425.601L408.899 298.001Z" fill="#FEC34E" stroke="#FFF8F1" stroke-width="0.7741" stroke-miterlimit="22.9256"/>
<path fill-rule="evenodd" clip-rule="evenodd" d="M476.5 413.5C474.5 327.7 469.8 255.3 453.7 193.2C440.2 173.8 422.9 172 402.5 172.7V432.6L448.4 432.4L458.6 423.4L476.5 413.5Z" fill="#FEC34E" stroke="#FFF8F1" stroke-width="0.7364" stroke-miterlimit="22.9256"/>
<path fill-rule="evenodd" clip-rule="evenodd" d="M464.6 247.701C461.7 228.501 459.1 214.201 454.6 197.101C445.6 184.201 434.4 176.901 421.9 175.801L428.7 311.201C448.8 292.401 459.4 280.101 464.6 247.701Z" fill="#FFF8F1"/>
<path fill-rule="evenodd" clip-rule="evenodd" d="M338.5 410.5V205.6L323.8 199L312.3 207.8L298.2 238V275.4L275.8 310.1V445.8L337.7 446L338.5 410.5Z" fill="#FEC34E" stroke="#FFF8F1" stroke-width="0.7438" stroke-miterlimit="22.9256"/>
<path fill-rule="evenodd" clip-rule="evenodd" d="M338.499 279.1L338.399 205.6L323.499 199L309.599 228.6V269.9L319.799 261.1L316.399 269.3L295.399 303.1V412.8L308.599 412.4V300.5L338.499 279.1Z" fill="#FFF8F1"/>
<path fill-rule="evenodd" clip-rule="evenodd" d="M383.6 256.501L383.4 351.501L380.4 350.701V255.501L383.6 256.501Z" fill="#FFF8F1"/>
<path fill-rule="evenodd" clip-rule="evenodd" d="M377 254.501L376.8 349.801L373.8 348.901V253.501L377 254.501Z" fill="#FFF8F1"/>
<path fill-rule="evenodd" clip-rule="evenodd" d="M370.3 252.601L370.2 348.001L367.2 347.201V251.601L370.3 252.601Z" fill="#FFF8F1"/>
<path fill-rule="evenodd" clip-rule="evenodd" d="M170.5 248.8L298.2 250.8V248.3C294.3 247.2 290.9 245.8 288.4 243.6C284.6 240.2 281.2 236 275.9 234.9C271 233.9 262.4 237.6 259.5 241.9C256.1 238.8 251.5 239.1 249.1 244.7C244.8 246.4 243.8 247.1 235.9 246.8C234.6 244 232.1 242.6 227.2 244.7C224.6 230.3 207.1 233.8 198.1 236.1C197.1 231.7 187 229.6 184.2 237.1L180.3 240.4C171.8 235.5 158.9 247.6 145.1 247.7C145.2 241.4 135.4 238.6 129.7 245.6C124.9 244.9 116.7 236.4 108 244.2C107.8 244 107.5 243.7 107.3 243.5C107 236.3 101.1 233.7 93.4995 236.6C87.5995 234.9 83.5995 236.4 81.1995 240.4C78.8995 238.6 75.8995 239.1 74.3995 240.8C71.2995 239.7 63.6995 241.9 63.0995 245.1C61.2995 245.3 60.2995 246.1 58.4995 246.2C57.5995 240.3 47.6995 242.6 44.2995 244.2C40.7995 245.9 31.5995 245.7 28.5995 245.9H28.0995H27.8995C27.7995 245.9 27.5995 245.8 27.2995 245.8L30.2995 240.7H26.8995L22.1995 245.2H21.8995C19.9995 245 17.3995 244.9 14.7995 244.7L21.4995 234L19.0995 233.8L9.09953 244.3C7.99953 244.2 6.99953 244.2 6.09953 244.2C1.99954 244.1 1.19953 244.2 0.699535 244.4C0.199535 244.6 -0.000465155 244.8 -0.100465 244.9C-0.200465 245 -0.200465 245 -0.500465 245.1C-0.800465 245.2 -1.50047 245.4 -1.80047 245.6C-2.20047 245.8 -2.20047 246.1 -2.00047 246.4C-1.80047 246.7 -1.40047 247.1 0.299535 247.4C1.89953 247.7 4.59953 248 7.59953 248.2L12.4995 257.2L14.8995 257.3L13.3995 248.4C14.9995 248.4 16.5995 248.3 18.1995 248.2C21.5995 248 24.9995 247.4 26.6995 247.2C27.7995 247 28.1995 247 28.3995 246.9L147.2 248.9L170.5 248.8Z" fill="#FFF8F1"/>
<path d="M115.899 319H125.199V289L143.599 286.1V306L157.399 309.3V301.1L173.999 305.3V332.6L181.099 332.5V316.1L197.199 312.2L203.099 315.3L228.199 308.6" stroke="#FFF8F1" stroke-width="0.8232" stroke-miterlimit="22.9256"/>
<path fill-rule="evenodd" clip-rule="evenodd" d="M254.7 420.2V261.1L226.6 257.1L221 266.4V420.1L254.7 420.2Z" fill="#FFF8F1"/>
<path fill-rule="evenodd" clip-rule="evenodd" d="M227.4 259.2L231.9 251.6L249.9 254.5L250.2 265.1L227.4 259.2Z" fill="#FFF8F1"/>
<path fill-rule="evenodd" clip-rule="evenodd" d="M240.8 420.299V355.699C251.5 354.499 269.7 354.099 282.4 361.799V420.499L240.8 420.299Z" fill="#FFF8F1"/>
<path d="M217.881 146.466C230.886 133.462 230.886 112.378 217.881 99.3735C204.877 86.3692 183.793 86.3692 170.789 99.3735C157.784 112.378 157.784 133.462 170.789 146.466C183.793 159.471 204.877 159.471 217.881 146.466Z" fill="#FEC34E"/>
<path fill-rule="evenodd" clip-rule="evenodd" d="M569.399 327.8C555.699 338.4 542.499 352.3 529.899 365.2C512.599 383 496.499 399 480.999 410.3C465.399 421.6 450.299 428.1 430.499 428.7C410.599 429.3 385.999 424.1 365.099 412.7C344.199 401.3 326.999 383.9 317.999 357.9C308.999 332 308.099 297.6 320.999 266.4C333.799 235.3 360.399 207.4 395.199 188C429.999 168.6 473.099 157.7 514.899 159.9C518.899 160.1 522.899 160.4 526.899 160.9C530.299 165.1 533.099 169.4 534.999 173.7C541.199 187.4 538.399 200 537.199 210.7C535.999 221.4 536.299 230.2 540.999 238.4C545.699 246.6 554.899 254.2 562.599 267.8C570.299 281.4 576.599 301 570.999 322.7C570.399 324.5 569.899 326.1 569.399 327.8Z" fill="#F47B6A"/>
<path fill-rule="evenodd" clip-rule="evenodd" d="M517.199 377.9V252.8C516.099 242.7 499.799 234.1 481.999 243.6L457.699 256.6C460.399 267.6 460.899 277.9 462.299 287.4C463.999 298.6 466.399 316.6 467.899 337.4L487.699 331.1L506.099 337.5L506.499 388.3C509.199 385.8 511.899 383.1 514.599 380.4L517.199 377.9Z" fill="#F47B6A" stroke="#FFF8F1" stroke-width="0.7325" stroke-miterlimit="22.9256"/>
<path fill-rule="evenodd" clip-rule="evenodd" d="M408.899 298L386.899 307.7V248.9L363.699 240.3L335.899 258.2V389.7C344.099 399.3 353.999 406.8 364.899 412.7C376.799 419.2 389.899 423.6 402.599 426.2L413.799 425.6L408.899 298Z" fill="#F47B6A" stroke="#FFF8F1" stroke-width="0.7325" stroke-miterlimit="22.9256"/>
<path fill-rule="evenodd" clip-rule="evenodd" d="M476.399 413.4C474.399 329.3 469.599 254.2 453.699 193.2C445.699 181.7 436.299 176.4 425.699 174.1C417.699 177.1 409.899 180.5 402.499 184.2L400.699 425.7C410.399 427.7 417.099 429.1 430.399 428.7C443.699 428.2 462.399 422.7 476.399 413.4Z" fill="#F47B6A" stroke="#FFF8F1" stroke-width="0.7325" stroke-miterlimit="22.9256"/>
<path fill-rule="evenodd" clip-rule="evenodd" d="M464.599 247.7C461.699 228.5 459.099 214.2 454.599 197.1C445.599 184.2 434.399 176.9 421.899 175.8L428.699 311.2C448.799 292.4 459.399 280.1 464.599 247.7Z" fill="#FFF8F1"/>
<path fill-rule="evenodd" clip-rule="evenodd" d="M338.499 392.5V236C331.099 245.6 325.199 255.9 320.799 266.5C307.999 297.6 308.799 332 317.799 358C322.599 371.7 329.699 383.1 338.499 392.5Z" fill="#F47B6A" stroke="#FFF8F1" stroke-width="0.7322" stroke-miterlimit="22.9256"/>
<path fill-rule="evenodd" clip-rule="evenodd" d="M338.5 279.1L338.4 236.1C331.1 245.7 325.1 256 320.7 266.6C316.5 276.8 313.7 287.4 312.3 297.9L338.5 279.1Z" fill="#FFF8F1"/>
<path fill-rule="evenodd" clip-rule="evenodd" d="M383.599 256.5L383.399 351.5L380.399 350.7V255.5L383.599 256.5Z" fill="#FFF8F1"/>
<path fill-rule="evenodd" clip-rule="evenodd" d="M376.999 254.5L376.799 349.8L373.799 348.9V253.5L376.999 254.5Z" fill="#FFF8F1"/>
<path fill-rule="evenodd" clip-rule="evenodd" d="M370.299 252.6L370.199 348L367.199 347.2V251.6L370.299 252.6Z" fill="#FFF8F1"/>
<path fill-rule="evenodd" clip-rule="evenodd" d="M372.299 422.4H409.999V340.9L440.199 342.1L453.399 353.2V384.2H462.199L462.599 453.4L429.099 466.8L371.699 465.6L372.299 422.4Z" fill="#FFF8F1"/>
<path fill-rule="evenodd" clip-rule="evenodd" d="M702.399 324.4C681.899 326.4 663.699 315 644.299 310.2C624.899 305.3 604.499 306.9 585.099 317.4C565.699 327.9 547.199 347.4 529.899 365.2C512.599 383 496.499 399 480.999 410.3C465.399 421.6 450.299 428.1 430.499 428.7C410.599 429.3 385.999 424.1 365.099 412.7C344.199 401.3 326.999 383.9 317.999 357.9C308.999 332 308.099 297.6 320.999 266.4C333.799 235.3 360.399 207.4 395.199 188C429.999 168.6 473.099 157.7 514.899 159.9C556.699 162.1 597.199 177.3 625.699 191.9C654.199 206.5 670.799 220.4 685.999 224.8C701.199 229.2 715.199 223.9 727.999 225.7C740.799 227.4 752.599 236.1 759.099 248.3C772.799 273.9 756.399 300.7 733.599 314.7C723.699 320.8 712.299 323.4 702.399 324.4Z" stroke="#F47B6A" stroke-width="1.1718" stroke-miterlimit="22.9256"/>
<path fill-rule="evenodd" clip-rule="evenodd" d="M93.9998 511.8C84.4998 504 76.3998 495 69.7998 485C51.9998 457.6 46.3998 422.1 53.5998 394.6C60.7998 367.1 80.8998 347.5 105.9 336C130.9 324.5 160.8 321.1 187.4 330.4C213.9 339.8 237 361.9 255.9 383.3C274.8 404.7 289.6 425.4 308.4 437C327.2 448.6 349.9 451.1 371.2 449.1C392.5 447.1 412.3 440.6 428.2 440.7C444 440.8 455.8 447.4 461.9 456.201C468 464.9 468.3 475.701 465 486.1C462.2 495 456.7 503.5 445.1 511.9H93.9998V511.8Z" fill="#63C29D"/>
<path fill-rule="evenodd" clip-rule="evenodd" d="M116.399 331.7C138.999 323.7 164.499 322.3 187.399 330.4C213.899 339.8 236.999 361.9 255.899 383.3C274.799 404.7 289.599 425.4 308.399 437C327.199 448.6 349.899 451.1 371.199 449.1C392.499 447.1 412.299 440.6 428.199 440.7C437.999 440.8 446.299 443.4 452.599 447.4C450.799 448.1 448.999 448.8 447.199 449.4C396.999 467.6 312.899 484.2 251.899 473.8C190.899 463.4 152.999 426 132.599 384.4C123.999 367.3 118.499 349.4 116.399 331.7Z" fill="#AFC372"/>
<path d="M75.2998 492.701L76.5998 418.301H126.2V479.001V452.301H185L215 423.501V445.701H250.3L273.8 423.001H316.9V505.801" stroke="#FFF8F1" stroke-width="0.7325" stroke-miterlimit="22.9256"/>
<path fill-rule="evenodd" clip-rule="evenodd" d="M262.2 556.601C224.7 557.701 186.3 554.401 152.1 543.101C130.4 535.901 110.3 525.501 94 511.801H445.1C443.2 513.201 441.1 514.601 438.9 515.901C423 525.601 398.1 535.101 367.3 542.601C336.4 550.201 299.7 555.501 262.2 556.601Z" fill="#FFF8F1" stroke="#65C299" stroke-width="0.7393" stroke-miterlimit="22.9256"/>
<path fill-rule="evenodd" clip-rule="evenodd" d="M251.399 503.7V461.1H290.999L291.099 394.3C306.399 355.5 337.499 341.6 396.399 341.9H401.999L400.299 473.1H417.399V490.5H457.599V510.9H251.999L251.399 503.7Z" fill="#FFF8F1"/>
<path d="M292.8 474H366.9" stroke="#65C299" stroke-width="1.2838" stroke-miterlimit="22.9256"/>
<path d="M292.899 467C316.199 465.3 341.499 463.4 366.999 463.4" stroke="#65C299" stroke-width="0.7325" stroke-miterlimit="22.9256"/>
<path d="M292.899 460.1C314.799 456.7 340.699 453 366.899 452.9" stroke="#65C299" stroke-width="0.7325" stroke-miterlimit="22.9256"/>
<path d="M293 453.2C313.4 448.1 340 442.5 367 442.4" stroke="#65C299" stroke-width="0.7325" stroke-miterlimit="22.9256"/>
<path d="M293 446.3C312 439.5 339.2 432 366.9 431.9" stroke="#65C299" stroke-width="0.7325" stroke-miterlimit="22.9256"/>
<path d="M293.1 439.4C310.7 430.9 338.5 421.6 367 421.4" stroke="#65C299" stroke-width="0.7325" stroke-miterlimit="22.9256"/>
<path d="M293.1 432.5C309.2 422.3 337.6 411.1 366.9 410.9" stroke="#65C299" stroke-width="0.7325" stroke-miterlimit="22.9256"/>
<path d="M293.2 425.5C307.9 413.6 336.9 400.5 367 400.4" stroke="#65C299" stroke-width="0.7325" stroke-miterlimit="22.9256"/>
<path d="M293.2 418.6C306.5 405.1 336.1 390.1 366.9 389.9" stroke="#65C299" stroke-width="0.7325" stroke-miterlimit="22.9256"/>
<path d="M293.3 411.7C305.2 396.5 335.4 379.6 366.9 379.4" stroke="#65C299" stroke-width="0.7325" stroke-miterlimit="22.9256"/>
<path d="M293.399 404.8C303.799 387.9 334.699 369.1 366.999 368.9" stroke="#65C299" stroke-width="0.7325" stroke-miterlimit="22.9256"/>
<path d="M293.399 397.9C302.399 379.3 333.899 358.7 366.899 358.4" stroke="#65C299" stroke-width="1.2838" stroke-miterlimit="22.9256"/>
<path d="M353.1 461.101H288.3V501.601H353.1V461.101Z" fill="#FFF8F1"/>
<path fill-rule="evenodd" clip-rule="evenodd" d="M184.8 374.801L185.3 409.301H224.2V485.401H263.5V503.201H297.4V512.901L112.1 511.801V462.201H137.3V381.301L156.5 374.301L184.8 374.801Z" fill="#FFF8F1" stroke="#65C299" stroke-width="0.7393" stroke-miterlimit="22.9256"/>
<path fill-rule="evenodd" clip-rule="evenodd" d="M55 464.9H100.5V510.8H63.6L55 464.9Z" fill="#FFF8F1"/>
<path fill-rule="evenodd" clip-rule="evenodd" d="M139.8 502.301C137.9 497.201 136 488.701 136 481.701C136 474.701 137.9 469.201 140.4 465.501C142.9 461.901 146.1 460.101 148.8 460.701C151.5 461.301 153.9 464.301 154.8 468.801C155.8 473.301 155.3 479.501 155.1 482.501C154.9 485.601 154.9 485.601 155.1 485.101C155.3 484.601 155.7 483.601 157 482.501C158.3 481.401 160.4 480.201 162.2 480.401C164 480.601 165.5 482.201 166.5 484.501C167 485.701 167.5 487.101 167.7 488.601C168.9 487.201 170.2 486.101 171.3 485.401C173.9 483.701 175.8 484.201 177.1 486.001C178.4 487.801 179 491.001 178.9 494.701C178.8 498.401 177.9 502.701 176.6 505.401C175.3 508.101 173.5 509.201 171.9 509.801C171.5 509.901 171.2 510.001 170.8 510.101V518.801H168.9V510.101C168.5 510.001 168.2 509.901 167.8 509.801C166.7 509.301 165.7 508.201 164.7 505.701C164.5 505.101 164.2 504.301 164 503.501C163.7 504.101 163.3 504.701 163 505.201C161.6 507.301 160.2 508.501 158.4 509.201V518.701H156.5V509.801C156.4 509.801 156.3 509.901 156.1 509.901C153.6 510.501 150.3 510.701 147.6 510.301V518.801H145.7V509.901C143.4 509.101 141.6 507.201 139.8 502.301ZM206 511.801C203 511.001 202 509.301 201.7 507.601C201.3 505.901 201.5 504.001 202.1 502.301C202.7 500.601 203.7 498.901 204.9 497.801C206.1 496.701 207.4 496.101 208.9 496.001C210.4 495.901 212.1 496.401 213.3 497.401C214.5 498.401 215.1 499.901 215.5 501.501C215.9 503.101 216 504.901 216 505.901C216 506.901 216 507.201 216.2 507.101C216.4 507.001 216.8 506.601 217.7 506.101C218.5 505.601 219.8 505.201 221 505.201C222.2 505.201 223.2 505.601 223.9 506.501C224.6 507.401 225 508.901 225 510.101C225 511.301 224.6 512.101 223.5 512.401C222.5 512.701 220.9 512.601 217.6 512.501C214 512.401 209 512.501 206 511.801ZM181.7 508.901C180.9 507.701 180.6 506.301 180.9 504.701C181.1 503.101 181.9 501.401 183 500.401C184.2 499.401 185.7 499.301 186.9 499.801C188 500.301 188.7 501.501 189.3 503.201C189.9 504.801 190.4 506.801 190.3 508.501C190.2 510.101 189.5 511.401 188.5 512.001C187.9 512.301 187.2 512.401 186.5 512.301V518.801H184.6V511.501C183.5 510.901 182.4 510.001 181.7 508.901Z" fill="#63C29D"/>
<path fill-rule="evenodd" clip-rule="evenodd" d="M287.8 509.501L287.7 507.601C285.6 510.701 282.8 513.201 280.3 514.301C279.5 514.701 278.7 514.901 278 515.001V518.701H276.1V514.901C275.3 514.701 274.6 514.301 274 513.701C272.4 512.101 271.5 508.901 271.5 504.301C271.4 499.601 272.2 493.401 273.1 488.401C274 483.401 275.1 479.801 276.6 477.901C278.2 476.101 280.3 476.101 282.3 477.101C284.2 478.101 286 479.901 287.6 483.001C288 480.301 288.6 478.401 289.2 476.701C290.2 473.901 291.2 471.801 292.4 470.101C293.5 468.401 294.7 467.101 295.9 467.501C297.1 468.001 298.2 470.201 298.8 473.801C299.4 477.401 299.4 482.501 298.6 489.101C298.6 489.501 298.5 489.801 298.5 490.201C299.5 488.701 300.8 487.801 302.1 487.401C303.9 486.901 305.9 487.401 307.9 489.801C309.9 492.201 311.8 496.401 312.4 500.501C313.1 504.601 312.6 508.601 311.6 511.401C310.6 514.201 309.1 515.901 306.5 516.001C306.2 516.001 305.8 516.001 305.5 516.001V518.701H303.6V515.701C301.5 515.201 299.4 514.301 297.8 513.101C296.4 512.001 295.5 510.801 295 509.601C294.1 513.801 293.5 515.201 292.5 515.901C292.3 516.001 292.1 516.101 291.9 516.201V518.701H290V516.401C289.6 516.301 289.2 516.201 288.9 516.001C288 515.501 288 514.601 287.8 509.501ZM353 516.601V518.701H351.1V516.001C351 515.901 350.9 515.901 350.9 515.801C349.7 514.801 348.1 513.001 347.3 512.101C346.5 511.201 346.5 511.101 346.3 512.001C346.1 512.801 345.8 514.601 345.3 515.701C344.8 516.801 344 517.301 342.4 517.301C340.8 517.201 338.4 516.601 336.7 515.101C335 513.501 334.1 511.101 333.7 508.201C333.3 505.401 333.3 502.201 333.7 499.601C334.1 497.001 334.8 494.901 335.7 493.401C336.7 491.901 337.9 490.901 339.2 490.901C340.5 490.901 341.8 491.901 342.5 492.501C343.2 493.001 343.2 493.001 343.3 491.901C343.4 490.701 343.5 488.401 344.1 485.401C344.7 482.401 345.7 478.701 347.1 475.801C348.5 473.001 350.2 471.001 352.2 470.501C354.1 470.001 356.2 471.001 357.5 473.701C358.7 476.501 359 481.101 359 486.401C359 491.601 358.7 497.501 358 502.201C357.3 506.901 356.3 510.301 355.5 512.601C354.7 514.901 354 516.001 353.4 516.501C353.4 516.501 353.2 516.601 353 516.601ZM392.4 513.201C389.7 512.201 386.7 510.201 384.4 507.801C382.2 505.301 380.7 502.401 380 499.201C379.3 496.001 379.4 492.401 380.3 489.201C381.2 486.001 382.8 483.101 385 480.201C387.2 477.301 389.9 474.301 392.9 472.501C395.9 470.801 399.2 470.201 401.9 472.201C404.6 474.201 406.6 478.601 407.9 482.001C409.2 485.401 409.8 487.701 410.1 489.001C410.4 490.301 410.5 490.701 411 490.601C411.5 490.501 412.4 489.901 413.6 489.901C414.8 489.901 416.3 490.501 417.6 491.501C418.8 492.501 419.8 493.901 420.1 495.801C420.2 496.501 420.2 497.201 420.1 497.901C420.3 497.801 420.5 497.701 420.7 497.701C422.7 497.101 425 496.801 427 497.501C429 498.201 430.5 500.001 431.2 501.601C431.9 503.201 431.6 504.601 431.4 505.601C431.2 506.601 431 507.201 431.1 507.301C431.2 507.401 431.4 507.101 432.3 506.601C433.1 506.101 434.6 505.501 435.9 505.401C437.3 505.301 438.6 505.701 439.7 506.301C440.8 506.901 441.7 507.801 442.4 508.601C443.1 509.401 443.7 510.201 443.9 510.801C444 511.401 443.7 511.901 436.5 512.101C430.5 512.301 419.9 512.301 412.7 512.001C411.9 512.701 411.3 512.901 410.3 513.401C409.2 513.901 407.6 514.501 405.8 514.701C404 514.901 402 514.801 399.8 514.601C398.8 514.601 397.8 514.501 396.8 514.401V519.001H394.9V514.101C394.1 513.701 393.3 513.501 392.4 513.201Z" fill="#63C29D"/>
<path d="M216 495.5H258.2" stroke="#65C299" stroke-width="0.7322" stroke-miterlimit="22.9256"/>
<path d="M216 503.301H258.2" stroke="#65C299" stroke-width="0.7322" stroke-miterlimit="22.9256"/>
<path d="M207.8 485.4H200.6V512.8H207.8V485.4Z" fill="#63C29D"/>
<path d="M157.3 373.7V501.4" stroke="#65C299" stroke-width="0.7322" stroke-miterlimit="22.9256"/>
<path d="M185.1 409.301V509.101" stroke="#65C299" stroke-width="0.7322" stroke-miterlimit="22.9256"/>
<path d="M203.4 420.7H199.2V424.9H203.4V420.7Z" fill="#63C29D"/>
<path d="M192.9 437H188.7V441.2H192.9V437Z" fill="#63C29D"/>
<path d="M214 420.7H209.8V424.9H214V420.7Z" fill="#63C29D"/>
<path d="M214 428.9H209.8V433.1H214V428.9Z" fill="#63C29D"/>
<path d="M203.4 461.3H199.2V465.5H203.4V461.3Z" fill="#63C29D"/>
<path d="M192.9 469.4H188.7V473.6H192.9V469.4Z" fill="#63C29D"/>
<path d="M214 453.2H209.8V457.4H214V453.2Z" fill="#63C29D"/>
<path d="M214 461.3H209.8V465.5H214V461.3Z" fill="#63C29D"/>
<path d="M214 477.601H209.8V481.801H214V477.601Z" fill="#63C29D"/>
<path d="M165.2 392.301H178.4" stroke="#65C299" stroke-width="0.7325" stroke-miterlimit="22.9256"/>
<path d="M165.2 400.301H178.4" stroke="#65C299" stroke-width="0.7325" stroke-miterlimit="22.9256"/>
<path d="M165.2 408.501H178.4" stroke="#65C299" stroke-width="0.7325" stroke-miterlimit="22.9256"/>
<path d="M165.2 416.501H178.4" stroke="#65C299" stroke-width="0.7325" stroke-miterlimit="22.9256"/>
<path d="M165.2 424.801H178.4" stroke="#65C299" stroke-width="0.7325" stroke-miterlimit="22.9256"/>
<path d="M165.2 432.801H178.4" stroke="#65C299" stroke-width="0.7325" stroke-miterlimit="22.9256"/>
<path d="M165.2 441.101H178.4" stroke="#65C299" stroke-width="0.7325" stroke-miterlimit="22.9256"/>
<path d="M165.2 449.101H178.4" stroke="#65C299" stroke-width="0.7325" stroke-miterlimit="22.9256"/>
<path d="M165.2 457.001H178.4" stroke="#65C299" stroke-width="0.7325" stroke-miterlimit="22.9256"/>
<path d="M165.2 465.001H178.4" stroke="#65C299" stroke-width="0.7325" stroke-miterlimit="22.9256"/>
<path d="M80.5996 429.7H108.8" stroke="#FFF8F1" stroke-width="0.7415" stroke-miterlimit="22.9256"/>
<path d="M80.5996 437.2H108.8" stroke="#FFF8F1" stroke-width="0.7415" stroke-miterlimit="22.9256"/>
<path d="M80.5996 444.7H108.8" stroke="#FFF8F1" stroke-width="0.7415" stroke-miterlimit="22.9256"/>
<path d="M80.5996 452.9H108.8" stroke="#FFF8F1" stroke-width="0.7415" stroke-miterlimit="22.9256"/>
<path fill-rule="evenodd" clip-rule="evenodd" d="M100.6 517.101H437C435.5 518.001 433.9 518.801 432.3 519.701H104.2C103 518.801 101.8 517.901 100.6 517.101Z" fill="#63C29D"/>
<path fill-rule="evenodd" clip-rule="evenodd" d="M340.8 517.101H344C343.6 517.301 343.1 517.301 342.4 517.301C342 517.301 341.4 517.201 340.8 517.101Z" fill="#63C29D"/>
<path d="M282.1 462.301V504.101" stroke="#65C299" stroke-width="1.6458" stroke-miterlimit="22.9256"/>
<path d="M273.899 423.801V465.501" stroke="#FFF8F1" stroke-width="1.6461" stroke-miterlimit="22.9256"/>
<path d="M165.2 392.301H178.4" stroke="#65C299" stroke-width="0.7325" stroke-miterlimit="22.9256"/>
<path d="M137.899 471.101H115.399V477.501H137.899V471.101Z" stroke="#65C299" stroke-width="0.7325" stroke-miterlimit="22.9256"/>
<path d="M137.899 482.801H115.399V489.201H137.899V482.801Z" stroke="#65C299" stroke-width="0.7325" stroke-miterlimit="22.9256"/>
<path d="M137.899 494.4H115.399V500.8H137.899V494.4Z" stroke="#65C299" stroke-width="0.7325" stroke-miterlimit="22.9256"/>
<path fill-rule="evenodd" clip-rule="evenodd" d="M333 538L328.5 526L328.8 510.4L325.6 507.5L327.5 502.6C324.7 498.5 319.1 498.6 320.7 502.2L319.4 506.8L323 508.1L320.1 512.3L319.6 521.5L316.8 523.2L315.1 525.3L315.9 526.6L317.6 525.8L319.5 525.3L319 540.9L316.2 542.7L323.5 542.4L324.8 530.7L329.5 538.8L327.6 542.4L329.8 542.3L333 538ZM298.7 529.1L296.6 528.1C293.8 526.9 293.7 526.4 294.1 524.9L296.4 525.3L297.9 524.5H298.8L299.4 522.7L300.6 524.9L301 523.1C301.3 523 302.1 525.5 302.4 525.5L302.6 528.9L308.8 530.5L309 530.4L309.6 528.8L308 527C312.4 525.6 314.3 528.9 311.2 532.1L311.4 532.4L313.3 536.9L315.1 537.4L316.1 541.5L315 542.1L314.9 541.9L313.8 539.4L310.7 538.6L309.3 536.6L307.2 538.3L307.9 539.6L306.4 541.6H305.4L305.1 541.1L305.7 539.6L304 537.5L304.8 535.8L302.8 536.7L304.4 541.2L303.2 541.5L302.4 541.3L302.7 540.3L299.9 535.9L297.9 535.4L295.7 536.3L295.3 538L293.9 538.2L293.5 536.9L294.6 535.3L294.8 535.1L297.1 532.8L297 530.8L297.2 530.5L298.7 529.1Z" fill="#63C29D"/>
<path fill-rule="evenodd" clip-rule="evenodd" d="M228.8 534.7C224.4 531.1 219.2 523.8 221.1 517.3L223.9 507.9L231.1 500.5C229.3 493.4 230.1 490.9 234.1 488.8C236.4 487.6 240 486.7 242.4 488.5L241.7 490.2L242.5 492.6L242.3 494.4L241.3 501L238.5 501.1L243.7 506.4L243.8 528.2L246.6 544L245 565L249.9 565.8L251.2 568.1H238.7L239.2 550.4L237.3 543.5L232.4 565.5L236.3 567L236.9 568.3L224.9 568.2L228.8 534.7Z" fill="#63C29D"/>
<path fill-rule="evenodd" clip-rule="evenodd" d="M250.3 506.7C249.9 501.2 248.9 498.5 255.4 496.8C258.9 495.8 263.4 495.9 262.1 500.1L264 505.6L261.7 506.5L262.2 508.9L264.7 510.9L264.9 511.6L270.8 531.9L269.5 533.8L270.2 543L268 544.1L268.4 563.8L274.3 567.1H265L261.3 544.5L259.7 552.9L257.7 561.4L258.4 564.8L261 567.3H256.2L252 563.6L255.7 551.2L255.1 543.6L249.3 539.1L253.1 515.5L250.1 513.2C250.9 510.1 250.5 509.8 250.3 506.7Z" fill="#63C29D"/>
<path fill-rule="evenodd" clip-rule="evenodd" d="M121.099 497.401L121.499 495.301C120.699 495.401 120.199 495.701 119.999 495.001C119.499 493.601 119.599 491.601 120.499 490.601C122.499 488.301 124.499 492.201 124.999 493.801L123.499 494.601C127.299 496.101 127.599 501.401 128.599 505.101L126.599 506.801L130.199 510.201V512.401L128.899 511.001L125.699 509.601L126.299 514.701H132.599C132.899 514.201 133.499 513.901 134.099 513.901C135.099 513.901 135.799 514.701 135.799 515.601C135.799 516.601 134.999 517.301 134.099 517.301C133.299 517.301 132.599 516.801 132.399 516.001H120.899C120.699 516.701 119.999 517.301 119.199 517.301C118.199 517.301 117.499 516.501 117.499 515.601C117.499 514.801 117.999 514.101 118.799 513.901V503.701H118.399L118.099 503.801L117.399 503.601L117.799 502.501L118.799 502.001L121.199 500.701L121.099 497.401ZM119.599 514.101C119.999 514.201 120.399 514.501 120.699 514.801H124.499L121.699 502.901L120.299 503.301L119.499 503.901L119.599 514.101Z" fill="#63C29D"/>
<path fill-rule="evenodd" clip-rule="evenodd" d="M360.9 510.901C361.3 506.601 360.5 502.501 363.3 499.001L361.7 498.901C362.8 497.301 361.3 495.401 363.5 494.001C365 493.001 368.4 495.001 366.9 495.501V496.201L366.4 498.301H366L365.7 498.901L366.9 499.601L368 503.301L369.1 503.501L369.7 503.801L369.8 504.101C370.3 504.201 370.9 504.501 371.7 505.501L373.4 507.801C373.7 505.801 375.4 505.801 376.1 507.901L375.8 508.901L376.4 509.001L377.9 511.301L379.3 511.501L380.2 515.801C380.2 516.501 379.6 517.101 378.9 517.101C378.2 517.101 377.6 516.601 377.6 515.901H375.4C375.3 516.601 374.8 517.101 374.1 517.101C373.4 517.101 372.8 516.501 372.8 515.801V515.701H372.7H371.2V515.801C371.2 516.501 370.6 517.101 369.9 517.101C369.2 517.101 368.6 516.501 368.6 515.801C368.6 515.401 368.8 515.001 369.1 514.801L368.9 514.601L367.3 511.101L366.9 511.301L365.8 516.301L367.6 517.101H364.7L364.4 511.901L361.5 514.101L361.6 516.001H361.1L360.1 513.801L362.2 511.101L360.9 510.901ZM367 504.401L366.6 503.801V504.001L366.7 504.401H367Z" fill="#63C29D"/>
<path fill-rule="evenodd" clip-rule="evenodd" d="M194.3 499.601L191.5 501.501V501.901L191.1 507.201L192.4 510.801V513.401L192.8 516.201L193.2 517.601L195.6 517.801L195.5 514.101L197.4 517.601L199.2 518.101L199.3 507.301L198.5 501.501L196.9 499.701C197.6 499.501 197.5 498.401 197.5 497.401C197.5 495.901 196.5 494.301 194.4 495.301C193.1 495.801 192.6 498.001 194.3 499.601Z" fill="#63C29D"/>
<path fill-rule="evenodd" clip-rule="evenodd" d="M200.7 530.801L201.2 521.501L203.4 519.001C201.3 511.001 210.9 513.301 206.4 518.601L208 520.301L207.8 523.501L209.8 524.101L209 526.001L207.2 526.501V527.501L208.9 531.501L210.2 531.101L210.6 532.001L207.6 533.801L204.3 529.401L203.6 531.701L200.8 533.201L199.9 534.901L198.6 531.101L200.7 530.801Z" fill="#63C29D"/>
<path fill-rule="evenodd" clip-rule="evenodd" d="M526.499 549.4C510.199 558.1 487.099 563.7 468.399 570.2C471.199 570.8 474.099 571.2 477.099 571.6C514.199 575.8 571.299 563.8 610.099 545.7C612.999 544.3 615.799 542.9 618.499 541.5C618.999 529.7 617.499 519.2 615.199 511.5H565.199V511C556.899 522.4 547.199 538.3 526.499 549.4Z" fill="#FBDCA1"/>
<path fill-rule="evenodd" clip-rule="evenodd" d="M588.699 333.5C592.699 314.3 601.499 308.5 612.999 303.2C640.799 290.2 684.399 298.1 692.799 333.5C696.799 350.2 692.299 369.1 681.399 382C682.299 381.5 685.599 378.4 690.799 376.1C695.999 373.8 702.999 372.3 708.499 373.2C713.999 374.1 717.899 377.3 720.199 380.6C722.599 383.9 723.399 387.3 723.199 390C723.099 392.8 721.999 394.9 721.599 395.9C721.399 396.3 721.399 396.5 721.799 396.5C808.899 377.9 825.099 469 775.099 498.2C766.599 503.2 753.699 503.7 735.999 504.1C710.699 504.6 674.199 501.9 646.399 495.3C618.699 488.7 599.799 478.2 591.599 464.1C583.399 450 585.799 432.3 586.099 408.1C586.499 383.6 584.699 352.8 588.699 333.5Z" stroke="#FFF8F1" stroke-width="0.7325" stroke-miterlimit="22.9256"/>
<path fill-rule="evenodd" clip-rule="evenodd" d="M632.2 510.9V380.1H696.9V511.3L632.2 510.9Z" fill="#FFF8F1"/>
<path d="M724.5 433.8H609.1V511H724.5V433.8Z" fill="#FFF8F1"/>
<path d="M742.1 418H719.3V511.3H742.1V418Z" fill="#FFF8F1"/>
<path d="M688.299 354.399H640.899V394.799H688.299V354.399Z" fill="#FFF8F1"/>
<path fill-rule="evenodd" clip-rule="evenodd" d="M651.7 335.2C651.7 320.1 677.4 320.5 677.4 335.2V362.8H651.7V335.2Z" fill="#FFF8F1"/>
<path d="M665.099 274.6H664V331.9H665.099V274.6Z" fill="#FFF8F1"/>
<path d="M632.099 424.5H627V511.6H632.099V424.5Z" fill="#F6A05A"/>
<path d="M692.1 467.6H629.6V492.1H692.1V467.6Z" fill="#F6A05A"/>
<path d="M719.3 424.5H714.2V511.6H719.3V424.5Z" fill="#F6A05A"/>
<path fill-rule="evenodd" clip-rule="evenodd" d="M730.699 426.699C734.799 426.699 737.999 429.999 737.999 433.999C737.999 438.099 734.699 441.299 730.699 441.299C726.599 441.299 723.399 437.999 723.399 433.999C723.399 429.999 726.699 426.699 730.699 426.699Z" fill="#FFF8F1" stroke="#F6A05A" stroke-width="0.7325" stroke-miterlimit="22.9256"/>
<path fill-rule="evenodd" clip-rule="evenodd" d="M703.3 506.399C702.4 505.599 701.8 503.899 701.5 501.999C701.2 499.999 701.2 497.699 701.4 495.299C701.7 492.899 702.2 490.399 702.9 488.599C703.6 486.799 704.4 485.599 705.2 485.299C706 484.999 706.7 485.599 707.1 487.399C707.5 489.199 707.7 492.199 707.9 494.799C708.2 497.399 708.6 499.799 708.7 501.399C708.8 503.099 708.6 504.099 708.2 504.899C707.8 505.799 707.2 506.399 706.3 506.799C705.5 507.199 704.2 507.199 703.3 506.399Z" fill="#F6A05A"/>
<path fill-rule="evenodd" clip-rule="evenodd" d="M700.9 507.599C701.6 506.799 702.2 506.299 703 505.899C703.8 505.599 704.9 505.399 706 505.599C707.1 505.799 708.1 506.199 709.1 506.299C710.1 506.299 711.2 505.899 712.1 505.599C713 505.199 713.8 504.899 714.7 504.899C715.6 504.899 716.7 505.199 717.6 505.599C718.5 505.999 719.4 506.499 720.1 506.899C720.9 507.299 721.5 507.499 722.3 507.399C723.1 507.299 724 506.799 724.9 506.499C725.8 506.199 726.7 506.099 727.4 506.099C728.2 506.099 728.8 506.399 729.3 506.699C729.8 507.099 730.3 507.599 730.5 507.899C730.7 508.199 730.7 508.299 730.9 508.099C731.1 507.899 731.5 507.599 732 507.199C732.5 506.799 733.1 506.299 734 506.199C734.9 506.099 736 506.199 736.9 506.699C737.8 507.099 738.5 507.799 738.9 508.699C739.3 509.499 739.6 510.499 738.9 510.999C738.3 511.599 736.8 511.699 730 511.699C723.2 511.699 711.1 511.599 704.9 511.499C698.7 511.399 698.3 511.299 698.1 511.099C698 510.899 698.2 510.599 698.7 509.999C699.4 509.299 700.2 508.299 700.9 507.599Z" fill="#F6A05A"/>
<path fill-rule="evenodd" clip-rule="evenodd" d="M725.6 490.6C725.3 492.9 725.3 495.8 725.4 497.9C725.5 500.1 725.9 501.5 726.4 502.6C726.9 503.7 727.5 504.4 728.3 504C729.1 503.6 730 502.1 730.6 500.5C731.2 498.8 731.5 496.9 731.5 494.7C731.5 492.5 731.3 489.9 730.9 488C730.4 486.1 729.7 484.8 729 484.4C728.3 484 727.6 484.4 727 485.5C726.3 486.6 725.8 488.3 725.6 490.6Z" fill="#F47B6A"/>
<path fill-rule="evenodd" clip-rule="evenodd" d="M732.8 492.499C732.1 493.299 731.2 494.699 730.6 495.899C730 497.099 729.7 497.999 729.8 499.099C729.9 500.099 730.3 501.199 730.9 502.099C731.5 502.999 732.4 503.599 733.3 503.699C734.2 503.799 735.3 503.499 736.2 502.899C737.1 502.299 737.8 501.499 738.2 500.699C738.6 499.899 738.6 499.199 738.4 498.599C738.2 497.899 737.6 497.299 737.1 497.099C736.6 496.899 736.2 496.999 736 496.799C735.8 496.599 735.7 496.099 735.6 495.099C735.4 494.099 735.2 492.599 734.7 491.999C734.2 491.399 733.5 491.699 732.8 492.499Z" fill="#F47B6A"/>
<path fill-rule="evenodd" clip-rule="evenodd" d="M624.9 480.799C623.5 479.199 622.2 478.699 621.2 480.199C620.2 481.699 619.6 485.099 618.9 488.299C618.2 491.499 617.5 494.499 617.5 496.999C617.5 499.499 618.2 501.299 619.1 502.499C620 503.599 621.2 503.999 622.5 503.399C623.8 502.799 625.2 501.299 626.2 499.699C627.2 498.099 627.9 496.399 628.3 494.399C628.7 492.399 628.9 490.199 628.2 487.699C627.8 485.199 626.3 482.399 624.9 480.799Z" fill="#F6A05A"/>
<path fill-rule="evenodd" clip-rule="evenodd" d="M615.3 489.699C614.4 491.899 613.7 494.799 613.5 497.399C613.3 499.899 613.7 502.099 614.2 503.499C614.7 504.899 615.3 505.699 616 506.099C616.7 506.499 617.4 506.599 618.5 505.199C619.6 503.799 621.1 500.899 621.8 498.599C622.5 496.299 622.4 494.699 621.7 492.399C621 490.199 619.6 487.299 618.4 486.699C617.2 485.999 616.2 487.499 615.3 489.699Z" fill="#F6A05A"/>
<path fill-rule="evenodd" clip-rule="evenodd" d="M643.4 480.5V504.4H639.7V480.5H636.8V468H701.8V480.5H698.9V504.4H695.2V480.5H687.8V504.4H684.1V480.5H676.7V504.4H673V480.5H665.6V504.4H661.9V480.5H654.5V504.4H650.8V480.5H643.4Z" fill="#FFF8F1" stroke="#F6A05A" stroke-width="0.7322" stroke-miterlimit="22.9256"/>
<path d="M701.099 503.699H636.399V510.999H701.099V503.699Z" fill="#FFF8F1" stroke="#F6A05A" stroke-width="0.7325" stroke-miterlimit="22.9256"/>
<path d="M644.099 503.199H630.5V511.399H644.099V503.199Z" fill="#F6A05A"/>
<path d="M638.2 379.6H690.7" stroke="#F6A05A" stroke-width="0.7325" stroke-miterlimit="22.9256"/>
<path d="M641.1 387.199V460.699" stroke="#F6A05A" stroke-width="0.7325" stroke-miterlimit="22.9256"/>
<path d="M688.1 387.199V460.699" stroke="#F6A05A" stroke-width="0.7325" stroke-miterlimit="22.9256"/>
<path d="M671.399 355.899V379.499" stroke="#F47B6A" stroke-width="2.7247" stroke-miterlimit="22.9256"/>
<path d="M673.799 386.1V461.4" stroke="#F6A05A" stroke-width="0.8586" stroke-miterlimit="22.9256"/>
<path d="M667.6 386.1V461.4" stroke="#F6A05A" stroke-width="0.8586" stroke-miterlimit="22.9256"/>
<path d="M661.5 386.1V461.4" stroke="#F6A05A" stroke-width="0.8586" stroke-miterlimit="22.9256"/>
<path d="M655.399 386.1V461.4" stroke="#F6A05A" stroke-width="0.8586" stroke-miterlimit="22.9256"/>
<path d="M682.2 380H677.1V468H682.2V380Z" fill="#F6A05A"/>
<path d="M674.4 354.5H669.3V379.9H674.4V354.5Z" fill="#F6A05A"/>
<path d="M782.399 459.2H727.899V511.4H782.399V459.2Z" fill="#FFF8F1" stroke="#F6A05A" stroke-width="0.7325" stroke-miterlimit="22.9256"/>
<path fill-rule="evenodd" clip-rule="evenodd" d="M755.599 444.5L783.299 459.4H726.899L755.599 444.5Z" fill="#FFF8F1" stroke="#F6A05A" stroke-width="0.8887" stroke-miterlimit="22.9256"/>
<path d="M799.1 475.5H711.1V511.4H799.1V475.5Z" fill="#FFF8F1" stroke="#F6A05A" stroke-width="0.7325" stroke-miterlimit="22.9256"/>
<path fill-rule="evenodd" clip-rule="evenodd" d="M729.799 475.4L718.5 481.6V511.2H728.9L728.7 509.6V495H783H785V484.6L749.299 468.4L735.5 475.4H729.799Z" fill="#F6A05A"/>
<path d="M788 481.7H722.3V486.7H788V481.7Z" fill="#FFF8F1" stroke="#F6A05A" stroke-width="0.7322" stroke-miterlimit="22.9256"/>
<path d="M788 506.6H722.3V511.6H788V506.6Z" fill="#FFF8F1" stroke="#F6A05A" stroke-width="0.7322" stroke-miterlimit="22.9256"/>
<path d="M729.7 488.5H726.2V506.3H729.7V488.5Z" fill="#FFF8F1" stroke="#F6A05A" stroke-width="0.7322" stroke-miterlimit="22.9256"/>
<path d="M738.8 488.5H735.3V506.3H738.8V488.5Z" fill="#FFF8F1" stroke="#F6A05A" stroke-width="0.7325" stroke-miterlimit="22.9256"/>
<path d="M748 488.5H744.5V506.3H748V488.5Z" fill="#FFF8F1" stroke="#F6A05A" stroke-width="0.7325" stroke-miterlimit="22.9256"/>
<path d="M757.1 488.5H753.6V506.3H757.1V488.5Z" fill="#FFF8F1" stroke="#F6A05A" stroke-width="0.7325" stroke-miterlimit="22.9256"/>
<path d="M766.2 488.5H762.7V506.3H766.2V488.5Z" fill="#FFF8F1" stroke="#F6A05A" stroke-width="0.7325" stroke-miterlimit="22.9256"/>
<path d="M775.4 488.5H771.9V506.3H775.4V488.5Z" fill="#FFF8F1" stroke="#F6A05A" stroke-width="0.7325" stroke-miterlimit="22.9256"/>
<path d="M784.5 488.5H781V506.3H784.5V488.5Z" fill="#FFF8F1" stroke="#F6A05A" stroke-width="0.7325" stroke-miterlimit="22.9256"/>
<path d="M711.399 481.7H799.299" stroke="#F6A05A" stroke-width="0.7325" stroke-miterlimit="22.9256"/>
<path fill-rule="evenodd" clip-rule="evenodd" d="M755.7 465.4L787.7 481.7H722.5L755.7 465.4Z" fill="#FFF8F1" stroke="#F6A05A" stroke-width="0.9488" stroke-miterlimit="22.9256"/>
<path fill-rule="evenodd" clip-rule="evenodd" d="M789.499 506.2C788.699 505.3 788.099 503.8 787.799 501.9C787.499 499.9 787.499 497.6 787.699 495.2C787.999 492.8 788.499 490.3 789.199 488.5C789.899 486.7 790.699 485.5 791.499 485.2C792.299 484.9 792.999 485.5 793.399 487.3C793.799 489.1 793.999 492.1 794.199 494.7C794.499 497.3 794.899 499.7 794.999 501.3C795.099 503 794.899 504 794.499 504.8C794.299 505.3 793.999 505.7 793.599 506.1C794.199 506.3 794.799 506.4 795.299 506.4C796.299 506.4 797.399 506 798.299 505.7C799.199 505.3 799.999 505 800.899 505C801.799 505 802.899 505.3 803.799 505.7C804.699 506.1 805.599 506.6 806.299 507C807.099 507.4 807.699 507.6 808.499 507.5C809.299 507.4 810.199 506.9 811.099 506.6C811.899 506.4 812.599 506.2 813.299 506.2V503.7C812.999 503.4 812.699 503 812.399 502.4C811.899 501.3 811.599 499.8 811.399 497.7C811.299 495.5 811.299 492.6 811.599 490.4C811.899 488.1 812.399 486.4 812.999 485.4C813.599 484.3 814.299 483.9 814.999 484.3C815.699 484.7 816.399 486 816.899 487.9C817.299 489.7 817.599 492.1 817.499 494.2C817.899 493.5 818.399 492.8 818.799 492.3C819.599 491.5 820.199 491.2 820.699 491.8C821.199 492.4 821.399 493.9 821.599 494.9C821.799 495.9 821.799 496.4 821.999 496.6C822.199 496.8 822.699 496.6 823.099 496.9C823.599 497.1 824.099 497.7 824.399 498.4C824.599 499.1 824.599 499.8 824.199 500.5C823.799 501.3 823.099 502.1 822.199 502.7C821.799 503 821.299 503.2 820.799 503.4V506.4C821.599 506.4 822.399 506.6 823.099 506.9C823.999 507.3 824.699 508 825.099 508.9C825.499 509.7 825.799 510.7 825.099 511.2C824.499 511.8 822.999 511.9 816.799 511.9C810.599 511.9 799.699 511.8 794.099 511.7C788.499 511.6 788.099 511.5 787.899 511.3C787.799 511.1 787.999 510.8 787.899 510.2C787.799 509.6 787.399 508.6 787.499 507.8C787.599 507 788.199 506.5 788.999 506.1C789.399 506.3 789.499 506.2 789.499 506.2ZM820.099 503.7C819.999 503.7 819.799 503.7 819.699 503.7C818.799 503.6 817.899 502.9 817.299 502.1C817.099 501.8 816.899 501.4 816.699 501.1C816.099 502.5 815.399 503.7 814.699 504.1V506.6C815.199 506.7 815.599 506.9 815.899 507.2C816.399 507.6 816.899 508.1 817.099 508.4C817.299 508.7 817.299 508.8 817.499 508.6C817.699 508.4 818.099 508.1 818.599 507.7C818.999 507.4 819.499 507 820.099 506.8V503.7Z" fill="#F6A05A"/>
<path fill-rule="evenodd" clip-rule="evenodd" d="M674.5 522.3L670.8 512.4L671.1 499.6L668.4 497.2L670 493.2C667.7 489.8 663.1 489.9 664.4 492.9L663.3 496.7L666.3 497.8L663.9 501.3L663.4 510.1L662.9 524.9L660.6 526.4L666.6 526.1L667.7 516.5L671.6 523.2L670.1 526.1L671.9 526L674.5 522.3Z" fill="#F6A05A"/>
<path fill-rule="evenodd" clip-rule="evenodd" d="M641.799 500.599L639.399 502.299V502.699L638.999 507.299L639.799 510.799L638.899 512.699L639.299 515.199L639.699 516.399L644.699 516.199L644.899 514.799L645.099 517.099L643.599 517.399L644.299 519.699L647.399 517.799L647.699 514.399L651.399 518.299L652.599 517.299L650.399 513.399L650.299 512.599L651.499 512.299L651.899 510.799L650.299 510.299L650.099 507.899L648.699 506.599L649.399 505.499L649.599 503.399L647.699 503.099L646.299 504.299L646.499 506.899L646.199 507.199L644.499 500.399L643.999 497.299L642.099 496.199L640.899 497.299L640.399 499.199L641.799 500.599Z" fill="#F6A05A"/>
<path fill-rule="evenodd" clip-rule="evenodd" d="M628.399 510.4C628.599 510.3 628.699 510.1 628.899 510L628.999 510.1L628.799 513.1L628.399 510.4ZM630.499 502.1L630.199 501L627.699 498.4C628.299 495.9 628.099 495 626.599 494.3C625.799 493.9 624.499 493.5 623.699 494.2L623.899 494.8L623.599 495.6L623.699 496.2L623.999 498.5H624.999L623.199 500.4V508.1L622.199 513.6L622.799 521L621.099 521.3L620.699 522.1H625.099L624.899 515.9L625.599 513.5L627.299 521.2L625.899 521.7L625.699 522.2H629.899V522H630.699L631.999 514.1L633.299 520L632.999 521.2L632.099 522.1H633.799L635.299 520.8L634.099 517.4L634.199 513.8L636.199 512.2L635.199 504.6L636.299 503.8C635.999 502.7 636.099 502.4 636.199 501.3C636.299 499.4 636.299 497.5 633.999 496.9C632.799 496.6 631.199 496.6 631.599 498.1L630.799 500.4L631.799 500.8L631.599 501.7L630.499 502.1ZM629.399 518.5L628.799 513.4L629.499 513.8L629.399 518.5Z" fill="#F6A05A"/>
<path fill-rule="evenodd" clip-rule="evenodd" d="M684.599 500.999L685 501.499L683.2 502.899L681 509.099L682.099 513.399L683.9 513.899L684.7 520.799L688.2 520.999L688 514.899L690.099 505.499L688.5 502.099L688.9 501.999L689.2 501.499V498.499L687.299 497.399H685.5L684.599 500.999ZM693.4 499.299L694.9 502.399L691.9 505.199L690 515.399L692.2 515.199L691.599 520.199L693.4 520.999L695 516.199L695.2 519.999H697.4L699.599 502.399L698.599 501.799L699.4 498.599L698.299 496.199C697.699 496.199 697.799 496.299 697.799 495.899L695.4 496.199L693.4 499.299Z" fill="#F6A05A"/>
<path fill-rule="evenodd" clip-rule="evenodd" d="M716.2 504L715.1 504.8L716.2 510.6L716 513.8L717.1 514L716.9 517.2L718.5 517.6L719.4 515.1L720 517.2L721.5 517.4L721.4 508.9V508.5L719.1 502.9L718.9 503L719.1 502.5L717.8 499.6L715.8 499.7L715.4 502L716.2 504Z" fill="#F6A05A"/>
<path fill-rule="evenodd" clip-rule="evenodd" d="M737.999 547.799L736.599 538.399L732.199 536.599L734.699 527.399L733.099 510.499L736.299 506.699C735.299 504.699 734.899 502.499 735.299 500.699C735.799 498.099 737.799 496.599 741.799 498.899L743.699 507.499L742.799 507.899L745.599 510.599V511.099L748.999 522.899L751.599 508.799L755.999 507.299L753.599 506.499L755.499 499.699C753.199 497.999 762.299 497.299 761.699 502.199L760.599 507.199L766.299 510.499L768.399 520.799L763.799 527.299L764.199 531.699L764.899 541.699L765.599 543.199L764.199 547.499L762.599 547.599L762.299 541.999L758.799 532.299L758.699 549.399L753.199 549.699L755.199 547.399L753.399 530.199L752.799 523.699L750.599 529.699L747.699 529.599L747.799 529.199L744.999 523.999L744.099 533.799V540.199L745.699 545.899L744.399 549.499L742.699 549.699L742.799 546.499L740.899 541.399L740.799 549.699L733.899 550.099L737.999 547.799Z" fill="#F6A05A"/>
<path fill-rule="evenodd" clip-rule="evenodd" d="M778.899 504.7L779.199 505.1L778.299 505.8V505.7L777.199 504.8L777.899 502.9L777.599 500.6L775.599 500.5L774.199 503.3L774.499 503.8H774.199L771.999 509.4V509.8L771.899 518.2L773.399 518.1L773.999 516L774.799 518.5L776.499 518.1L776.299 514.9L777.299 514.7V513.3L778.399 513.6L778.899 518.4L781.299 518.5L781.199 514.3L782.699 507.8L781.499 505.4H781.799L781.999 505V502.9L780.699 502.2H779.499L778.899 504.7Z" fill="#F6A05A"/>
</g>
<defs>
<clipPath id="clip0">
<rect width="847.3" height="544.3" fill="white" transform="translate(-2 28)"/>
</clipPath>
</defs>
</svg>
