<svg width="1920" height="598" viewBox="0 0 1920 598" fill="none" xmlns="http://www.w3.org/2000/svg">
<g clip-path="url(#clip0)">
<rect width="1920" height="598" fill="#FFFAF3"/>
<path fill-rule="evenodd" clip-rule="evenodd" d="M1227.83 681H439.833V-107H1227.83V681Z" fill="#FFFAF3"/>
<path d="M711.475 70.2722C729.08 74.2305 742.727 82.9641 751.188 92.9272C759.65 102.89 762.925 114.081 775.208 123.497C787.49 132.913 808.779 140.557 836.793 138.018C864.806 135.479 899.544 122.759 940.482 131.248C981.421 139.737 1028.56 169.437 1050.48 209.035C1072.4 248.635 1069.1 298.134 1046.95 343.154C1024.79 388.173 983.778 428.715 917.741 439.966C851.703 451.218 760.64 433.179 706.239 413.514C651.836 393.849 634.095 372.56 615.728 349.059C597.36 325.559 578.367 299.846 572.289 276.384C566.21 252.922 573.046 231.707 581.414 216.976C589.781 202.244 599.681 193.995 604.804 185.113C609.927 176.232 610.275 166.718 608.947 155.138C607.618 143.559 604.617 129.911 611.304 115.036C617.991 100.16 634.368 84.0564 653.338 75.5949C672.307 67.1341 693.87 66.3155 711.475 70.2722V70.2722Z" stroke="#FABD34" stroke-width="1.26507" stroke-miterlimit="22.9256"/>
<path fill-rule="evenodd" clip-rule="evenodd" d="M1180.6 448.699C1192.99 445.376 1196.95 440.5 1198.3 435.051C1200.03 428.04 1197.43 420.077 1190.59 415.921C1183.76 411.767 1172.67 411.42 1169.56 401.64C1166.44 391.859 1171.29 372.643 1168 356.111C1164.71 339.578 1153.29 325.729 1138.14 317.766C1122.99 309.802 1104.12 307.724 1085.94 311.014C1067.77 314.303 1050.28 322.958 1036.87 334.73C1023.45 346.502 1014.1 361.39 1013.06 379.913C1012.02 398.436 1019.29 420.595 1029.51 433.579C1035.7 441.453 1042.98 445.952 1053.62 448.699H1180.6" fill="#5784CC"/>
<path fill-rule="evenodd" clip-rule="evenodd" d="M378.028 340.982C341.436 329.756 326.8 327.51 314.134 329.194C301.468 330.879 290.772 336.491 274.728 342.853C258.684 349.215 218.716 360.254 218.716 360.254C218.716 360.254 212.843 361.43 210 361.893V133.574C359.719 78.7133 483.502 161.504 535.084 181.301C570.781 195.002 606.015 194.662 636.413 187.177C666.812 179.693 695.522 168.841 723.105 163.227C750.691 157.614 777.148 157.24 801.073 160.421C824.999 163.602 846.39 170.338 863.842 180.817C881.293 191.294 894.804 205.515 897.9 221.419C900.997 237.324 893.678 254.912 882.138 274.745C870.598 294.579 854.837 316.658 829.785 335.368C804.735 354.08 770.395 369.423 719.168 378.404C667.941 387.385 599.825 390.005 536.495 381.211C473.163 372.416 414.617 352.208 378.028 340.982Z" fill="#5784CC"/>
<path fill-rule="evenodd" clip-rule="evenodd" d="M1037.16 273.573C1019.85 271.265 1001.24 271.672 979.992 278.123C958.74 284.573 934.84 297.067 903.067 304.658C871.293 312.25 831.647 314.94 809.04 324.841C786.433 334.742 780.865 351.852 790.371 375.684C799.876 399.517 824.456 430.071 843.6 453.441C862.744 476.81 876.453 492.996 905.986 496.335C935.519 499.675 980.875 490.17 1011.77 475.708C1042.66 461.245 1059.09 441.825 1066.02 422.747C1072.95 403.666 1070.37 384.927 1075.3 370.6C1080.24 356.273 1092.7 346.36 1095.82 332.984C1098.95 319.608 1092.74 302.77 1081.62 291.838C1070.5 280.906 1054.48 275.882 1037.16 273.573" fill="#F59444"/>
<path fill-rule="evenodd" clip-rule="evenodd" d="M842.104 448.698H1189.2V461.493H842.104V448.698Z" fill="#FFFAF3"/>
<path fill-rule="evenodd" clip-rule="evenodd" d="M1012.08 308.963C1025.5 321.513 1045.41 338.305 1056.92 350.682C1068.43 363.06 1071.55 371.023 1073.89 377.862C1076.22 384.7 1077.78 390.412 1079.01 391.234C1080.25 392.057 1081.16 387.99 1082.44 378.339C1083.71 368.687 1085.36 353.453 1084.36 336.402C1083.37 319.35 1079.73 300.481 1093.95 286.934C1108.16 273.388 1140.23 265.164 1150.73 258.11C1161.22 251.055 1150.14 245.169 1136.98 242.572C1123.83 239.976 1108.59 240.669 1097.43 239.976C1086.26 239.284 1079.16 237.206 1070.68 230.974C1062.2 224.741 1052.33 214.355 1039.78 209.68C1027.23 205.007 1012 206.045 1000.92 213.056C989.837 220.068 982.912 233.052 980.922 245.17C978.93 257.288 981.874 268.54 986.807 278.321C991.742 288.103 998.666 296.411 1012.08 308.963" fill="#F59444"/>
<path fill-rule="evenodd" clip-rule="evenodd" d="M1085.13 299.842C1068.85 301.399 1054.31 292.398 1038.92 288.521C1024.89 284.988 1010.15 285.715 995.944 292.212C992.082 287.492 989.208 283.08 986.807 278.321C981.874 268.54 978.93 257.288 980.922 245.17C982.912 233.052 989.837 220.068 1000.92 213.056C1012 206.045 1027.23 205.007 1039.78 209.68C1052.33 214.355 1062.2 224.741 1070.68 230.974C1079.16 237.206 1086.26 239.284 1097.43 239.976C1107 240.569 1119.55 240.146 1131.23 241.647C1134.56 249.053 1135.44 257.83 1131.75 266.818C1122.9 286.37 1105.96 298.199 1085.62 299.79C1085.46 299.808 1085.29 299.826 1085.13 299.842" fill="#FABD34"/>
<path fill-rule="evenodd" clip-rule="evenodd" d="M878.301 147.205C865.371 150.112 855.347 156.526 849.134 163.844C842.919 171.16 840.513 179.38 831.493 186.296C822.472 193.211 806.836 198.824 786.261 196.959C765.687 195.096 740.174 185.753 710.106 191.988C680.039 198.223 645.417 220.036 629.317 249.119C613.217 278.202 615.64 314.557 631.913 347.621C648.186 380.686 678.308 410.462 726.809 418.725C775.311 426.989 842.191 413.74 882.146 399.297C922.102 384.855 935.132 369.219 948.622 351.958C962.112 334.699 976.061 315.815 980.526 298.583C984.99 281.351 979.969 265.77 973.824 254.95C967.678 244.131 960.407 238.072 956.644 231.549C952.882 225.027 952.627 218.039 953.601 209.535C954.577 201.03 956.782 191.006 951.871 180.081C946.959 169.155 934.932 157.329 920.999 151.114C907.067 144.9 891.23 144.298 878.301 147.205" fill="#FABD34"/>
<path fill-rule="evenodd" clip-rule="evenodd" d="M747.989 316.28V321.605H751.262V325.597H747.989V375.915C747.989 397.322 760.93 429.608 768.066 449.502H712.381C719.74 429.166 732.459 397.325 732.459 375.915V325.597H729.187V321.605H732.459V316.28H729.187V312.287H734.567V238.078H731.461V228.761H734.678V181.285H731.794V173.52H729.908V157.547H735.565V141.574H738.228V104.747H739.113L740.22 64.1478L741.335 104.747H742.221V141.574H744.883V157.547H750.54V173.52H748.654V181.285H745.77V228.761H748.987V238.078H745.882V312.287H751.262V316.28H747.989" fill="#FABD34"/>
<path d="M747.989 316.28V321.605H751.262V325.597H747.989V375.915C747.989 397.322 760.93 429.608 768.066 449.502H712.381C719.74 429.166 732.459 397.325 732.459 375.915V325.597H729.187V321.605H732.459V316.28H729.187V312.287H734.567V238.078H731.461V228.761H734.678V181.285H731.794V173.52H729.908V157.547H735.565V141.574H738.228V104.747H739.113L740.22 64.1478L741.335 104.747H742.221V141.574H744.883V157.547H750.54V173.52H748.654V181.285H745.77V228.761H748.987V238.078H745.882V312.287H751.262V316.28H747.989Z" stroke="#FFFAF3" stroke-width="0.976667" stroke-miterlimit="22.9256"/>
<path fill-rule="evenodd" clip-rule="evenodd" d="M937.83 342.447V242.91C936.956 234.909 923.978 228.05 909.872 235.616L890.577 245.967C892.704 254.698 893.151 262.866 894.271 270.442C895.592 279.368 897.496 293.691 898.734 310.241L914.515 305.195L929.167 310.384L929.452 350.564L937.83 342.447" fill="#FABD34"/>
<path d="M937.83 342.447V242.91C936.956 234.909 923.978 228.05 909.872 235.616L890.577 245.967C892.704 254.698 893.151 262.866 894.271 270.442C895.592 279.368 897.496 293.691 898.734 310.241L914.515 305.195L929.167 310.384L929.452 350.564L937.83 342.447Z" stroke="#FFFAF3" stroke-width="0.981867" stroke-miterlimit="22.9256"/>
<path fill-rule="evenodd" clip-rule="evenodd" d="M851.746 278.851L834.282 286.537V239.746L815.852 232.933L793.709 247.167V383.412L855.66 380.355L851.746 278.851Z" fill="#FABD34"/>
<path d="M851.746 278.851L834.282 286.537V239.746L815.852 232.933L793.709 247.167V383.412L855.66 380.355L851.746 278.851Z" stroke="#FFFAF3" stroke-width="1.03213" stroke-miterlimit="22.9256"/>
<path fill-rule="evenodd" clip-rule="evenodd" d="M905.527 370.681C903.975 302.421 900.228 244.833 887.375 195.473C876.635 180.079 862.858 178.6 846.645 179.141V385.804L883.144 385.658L891.246 378.506L905.527 370.681Z" fill="#FABD34"/>
<path d="M905.527 370.681C903.975 302.421 900.228 244.833 887.375 195.473C876.635 180.079 862.858 178.6 846.645 179.141V385.804L883.144 385.658L891.246 378.506L905.527 370.681Z" stroke="#FFFAF3" stroke-width="0.981867" stroke-miterlimit="22.9256"/>
<path fill-rule="evenodd" clip-rule="evenodd" d="M896.042 238.868C893.74 223.61 891.661 212.24 888.122 198.651C880.986 188.423 872.032 182.613 862.099 181.703L867.493 289.398C883.484 274.428 891.942 264.595 896.042 238.868" fill="#FFFAF3"/>
<path fill-rule="evenodd" clip-rule="evenodd" d="M795.736 368.348V205.374L784.078 200.147L774.919 207.109L763.678 231.154V260.914L745.883 288.505V396.411L795.152 396.591L795.736 368.348" fill="#FABD34"/>
<path d="M795.736 368.348V205.374L784.078 200.147L774.919 207.109L763.678 231.154V260.914L745.883 288.505V396.411L795.152 396.591L795.736 368.348Z" stroke="#FFFAF3" stroke-width="0.991733" stroke-miterlimit="22.9256"/>
<path fill-rule="evenodd" clip-rule="evenodd" d="M795.777 263.789L795.685 205.373L783.792 200.138L772.751 223.699V256.544L780.925 249.505L778.167 256.041L761.462 282.918V370.173L771.972 369.803V280.811L795.777 263.789Z" fill="#FFFAF3"/>
<path fill-rule="evenodd" clip-rule="evenodd" d="M831.592 245.828L831.495 321.419L829.062 320.771V245.043L831.592 245.828Z" fill="#FFFAF3"/>
<path fill-rule="evenodd" clip-rule="evenodd" d="M826.336 244.276L826.24 320.02L823.806 319.373V243.491L826.336 244.276" fill="#FFFAF3"/>
<path fill-rule="evenodd" clip-rule="evenodd" d="M821.081 242.725L820.984 318.622L818.551 317.975V241.94L821.081 242.725" fill="#FFFAF3"/>
<path fill-rule="evenodd" clip-rule="evenodd" d="M662.136 239.729L763.678 241.346V239.351C760.582 238.455 757.838 237.346 755.891 235.587C752.879 232.867 750.184 229.545 745.922 228.705C742.007 227.932 735.198 230.862 732.892 234.306C730.214 231.863 726.527 232.042 724.66 236.494C721.263 237.841 720.436 238.412 714.168 238.199C713.096 235.986 711.183 234.828 707.264 236.526C705.224 225.059 691.251 227.895 684.135 229.682C683.304 226.188 675.279 224.479 673.119 230.462L669.996 233.082C663.269 229.165 653.002 238.817 642.022 238.861C642.117 233.872 634.282 231.639 629.776 237.165C625.96 236.618 619.429 229.878 612.52 236.05C612.327 235.87 612.133 235.689 611.94 235.509C611.677 229.774 607.018 227.699 600.979 230.046C596.31 228.665 593.139 229.911 591.205 233.073C589.361 231.651 587.02 232.035 585.78 233.39C583.325 232.538 577.254 234.228 576.828 236.815C575.373 236.939 574.636 237.603 573.181 237.727C572.433 233.015 564.629 234.88 561.907 236.169C559.109 237.497 551.816 237.378 549.454 237.495L549.057 237.512L548.927 237.48C548.809 237.451 548.664 237.416 548.461 237.375L550.822 233.357L548.099 233.336L544.382 236.893L544.131 236.873C542.599 236.75 540.564 236.617 538.492 236.498L543.833 228.014L541.911 227.88L533.943 236.261C533.065 236.221 532.256 236.188 531.567 236.165C528.311 236.056 527.703 236.165 527.309 236.3C526.914 236.434 526.732 236.595 526.645 236.682C526.556 236.769 526.564 236.785 526.303 236.868C526.043 236.952 525.517 237.105 525.235 237.289C524.953 237.473 524.915 237.689 525.054 237.934C525.193 238.179 525.509 238.451 526.888 238.722C528.159 238.971 530.335 239.22 532.661 239.375L536.59 246.533L538.523 246.637L537.297 239.536C538.56 239.535 539.837 239.495 541.123 239.403C543.802 239.213 546.513 238.799 547.91 238.583C548.758 238.452 549.121 238.394 549.285 238.362L643.747 239.937L662.136 239.729" fill="#FFFAF3"/>
<path d="M618.706 295.58H626.092V271.69L640.78 269.374V285.193L651.769 287.837V281.299L664.941 284.678V306.356L670.592 306.308V293.243L683.375 290.168L688.077 292.606L708.077 287.271" stroke="#FFFAF3" stroke-width="1.0976" stroke-miterlimit="22.9256"/>
<path fill-rule="evenodd" clip-rule="evenodd" d="M729.099 376.02V249.501L706.789 246.343L702.317 253.711V375.923L729.099 376.02Z" fill="#FFFAF3"/>
<path fill-rule="evenodd" clip-rule="evenodd" d="M707.421 248.028L710.999 241.924L725.311 244.239L725.521 252.658L707.421 248.028Z" fill="#FFFAF3"/>
<path fill-rule="evenodd" clip-rule="evenodd" d="M718.04 376.091V324.724C726.576 323.795 740.995 323.468 751.084 329.565V376.226L718.04 376.091Z" fill="#FFFAF3"/>
<path fill-rule="evenodd" clip-rule="evenodd" d="M681.117 113.093C695.745 113.093 707.604 124.952 707.604 139.58C707.604 154.209 695.745 166.068 681.117 166.068C666.488 166.068 654.63 154.209 654.63 139.58C654.63 124.952 666.488 113.093 681.117 113.093" fill="#FABD34"/>
<path fill-rule="evenodd" clip-rule="evenodd" d="M979.348 302.535C968.424 310.99 957.935 321.984 947.945 332.263C934.208 346.397 921.414 359.175 909.019 368.144C896.624 377.113 884.626 382.272 868.823 382.771C853.02 383.27 833.409 379.109 816.776 370.079C800.143 361.05 786.485 347.151 779.311 326.526C772.137 305.901 771.444 278.549 781.658 253.794C791.872 229.038 812.991 206.879 840.69 191.472C868.388 176.065 902.665 167.409 935.903 169.14C939.101 169.307 942.288 169.571 945.459 169.919C948.169 173.265 950.358 176.716 951.871 180.081C956.782 191.006 954.577 201.03 953.601 209.535C952.627 218.039 952.882 225.027 956.644 231.549C960.407 238.072 967.678 244.131 973.824 254.95C979.969 265.77 984.99 281.351 980.526 298.583C980.187 299.891 979.792 301.21 979.348 302.535" fill="#F3615E"/>
<path fill-rule="evenodd" clip-rule="evenodd" d="M937.83 342.383V242.91C936.956 234.91 923.978 228.05 909.872 235.616L890.577 245.966C892.704 254.699 893.152 262.866 894.272 270.443C895.592 279.368 897.496 293.691 898.733 310.242L914.515 305.196L929.167 310.32L929.453 350.746C931.581 348.719 933.728 346.627 935.896 344.478L937.83 342.383" fill="#F3615E"/>
<path d="M937.83 342.383V242.91C936.956 234.91 923.978 228.05 909.872 235.616L890.577 245.966C892.704 254.699 893.152 262.866 894.272 270.443C895.592 279.368 897.496 293.691 898.733 310.242L914.515 305.196L929.167 310.32L929.453 350.746C931.581 348.719 933.728 346.627 935.896 344.478L937.83 342.383Z" stroke="#FFFAF3" stroke-width="0.976667" stroke-miterlimit="22.9256"/>
<path fill-rule="evenodd" clip-rule="evenodd" d="M851.746 278.851L834.282 286.537V239.746L815.852 232.933L793.709 247.167V351.75C800.261 359.354 808.115 365.378 816.776 370.079C826.228 375.21 836.639 378.768 846.767 380.794L855.66 380.355L851.746 278.851Z" fill="#F3615E"/>
<path d="M851.746 278.851L834.282 286.537V239.746L815.852 232.933L793.709 247.167V351.75C800.261 359.354 808.115 365.378 816.776 370.079C826.228 375.21 836.639 378.768 846.767 380.794L855.66 380.355L851.746 278.851Z" stroke="#FFFAF3" stroke-width="0.976667" stroke-miterlimit="22.9256"/>
<path fill-rule="evenodd" clip-rule="evenodd" d="M905.447 370.626C903.846 303.753 900.011 244.004 887.376 195.473C880.992 186.324 873.535 182.09 865.131 180.274C858.754 182.632 852.57 185.324 846.645 188.317L845.216 380.38C852.956 381.937 858.252 383.105 868.823 382.771C879.394 382.438 894.279 378.062 905.447 370.626" fill="#F3615E"/>
<path d="M905.447 370.626C903.846 303.753 900.011 244.004 887.376 195.473C880.992 186.324 873.535 182.09 865.131 180.274C858.754 182.632 852.57 185.324 846.645 188.317L845.216 380.38C852.956 381.937 858.252 383.105 868.823 382.771C879.394 382.438 894.279 378.062 905.447 370.626V370.626Z" stroke="#FFFAF3" stroke-width="0.976667" stroke-miterlimit="22.9256"/>
<path fill-rule="evenodd" clip-rule="evenodd" d="M896.042 238.869C893.74 223.611 891.662 212.24 888.123 198.651C880.986 188.423 872.033 182.613 862.099 181.704L867.493 289.398C883.484 274.428 891.942 264.595 896.042 238.869Z" fill="#FFFAF3"/>
<path fill-rule="evenodd" clip-rule="evenodd" d="M795.736 354.01V229.545C789.891 237.217 785.139 245.354 781.658 253.794C771.444 278.549 772.137 305.901 779.311 326.526C783.128 337.498 788.779 346.566 795.736 354.01" fill="#F3615E"/>
<path d="M795.736 354.01V229.545C789.891 237.217 785.139 245.354 781.658 253.794C771.444 278.549 772.137 305.901 779.311 326.526C783.128 337.498 788.779 346.566 795.736 354.01V354.01Z" stroke="#FFFAF3" stroke-width="0.976267" stroke-miterlimit="22.9256"/>
<path fill-rule="evenodd" clip-rule="evenodd" d="M795.777 263.789L795.723 229.563C789.883 237.229 785.137 245.361 781.657 253.794C778.307 261.915 776.13 270.316 774.971 278.666L795.777 263.789" fill="#FFFAF3"/>
<path fill-rule="evenodd" clip-rule="evenodd" d="M831.592 245.828L831.495 321.419L829.062 320.771V245.043L831.592 245.828Z" fill="#FFFAF3"/>
<path fill-rule="evenodd" clip-rule="evenodd" d="M826.336 244.276L826.24 320.02L823.806 319.373V243.491L826.336 244.276" fill="#FFFAF3"/>
<path fill-rule="evenodd" clip-rule="evenodd" d="M821.081 242.725L820.984 318.622L818.551 317.975V241.94L821.081 242.725" fill="#FFFAF3"/>
<path fill-rule="evenodd" clip-rule="evenodd" d="M822.657 377.773H852.637V312.949L876.656 313.942L887.167 322.72V347.4H894.118L894.443 402.425L867.833 413.064L822.123 412.109L822.657 377.773Z" fill="#FFFAF3"/>
<path d="M1085.13 299.842C1068.86 301.399 1054.31 292.398 1038.92 288.521C1023.53 284.646 1007.29 285.894 991.827 294.265C976.365 302.635 961.683 318.128 947.945 332.263C934.208 346.397 921.414 359.175 909.019 368.144C896.624 377.113 884.627 382.272 868.823 382.771C853.02 383.27 833.409 379.109 816.776 370.079C800.143 361.05 786.485 347.151 779.311 326.526C772.137 305.901 771.444 278.549 781.658 253.794C791.872 229.038 812.991 206.879 840.69 191.472C868.388 176.065 902.665 167.409 935.903 169.14C969.14 170.871 1001.34 182.99 1024.02 194.588C1046.7 206.187 1059.85 217.266 1071.97 220.729C1084.09 224.191 1095.17 220.036 1105.38 221.421C1115.6 222.807 1124.94 229.731 1130.14 239.425C1141.06 259.811 1128 281.098 1109.85 292.256C1102.1 297.02 1093 299.089 1085.13 299.842V299.842Z" stroke="#F3615E" stroke-width="1.5624" stroke-miterlimit="22.9256"/>
<path fill-rule="evenodd" clip-rule="evenodd" d="M601.288 448.917C593.799 442.644 587.299 435.517 582.107 427.536C567.921 405.727 563.505 377.553 569.259 355.671C575.015 333.79 590.941 318.202 610.815 309.049C630.69 299.896 654.512 297.178 675.591 304.615C696.67 312.052 715.006 329.643 730.062 346.662C745.118 363.681 756.896 380.127 771.818 389.351C786.741 398.576 804.809 400.579 821.738 399.006C838.668 397.432 854.461 392.283 867.042 392.355C879.623 392.426 888.99 397.718 893.808 404.654C898.626 411.591 898.894 420.172 896.284 428.394C894.044 435.453 889.683 442.249 880.494 448.917H601.288Z" fill="#66C993"/>
<path fill-rule="evenodd" clip-rule="evenodd" d="M619.165 305.668C637.148 299.343 657.391 298.194 675.591 304.616C696.67 312.052 715.006 329.643 730.062 346.662C745.119 363.681 756.896 380.127 771.818 389.351C786.741 398.576 804.809 400.578 821.739 399.006C838.669 397.432 854.461 392.283 867.042 392.355C874.868 392.399 881.451 394.464 886.47 397.689C885.063 398.226 883.625 398.763 882.147 399.297C842.191 413.74 775.311 426.989 726.809 418.725C678.308 410.462 648.186 380.686 631.913 347.621C625.185 333.95 620.827 319.717 619.165 305.668Z" fill="#A6C85C"/>
<path d="M586.41 433.724L587.449 374.518H626.919V422.818V401.524H673.66L697.55 378.674V396.331H725.594L744.291 378.283H778.568V444.11" stroke="#FFFAF3" stroke-width="0.976667" stroke-miterlimit="22.9256"/>
<path fill-rule="evenodd" clip-rule="evenodd" d="M735.081 484.529C705.236 485.386 674.722 482.812 647.486 473.801C630.216 468.089 614.266 459.787 601.288 448.917H880.494C878.978 450.017 877.331 451.113 875.54 452.207C862.892 459.93 843.086 467.509 818.593 473.445C794.101 479.38 764.926 483.67 735.081 484.529" fill="#FFFAF3"/>
<path d="M735.081 484.529C705.236 485.386 674.722 482.812 647.486 473.801C630.216 468.089 614.266 459.787 601.288 448.917H880.494C878.978 450.017 877.331 451.113 875.54 452.207C862.892 459.93 843.086 467.509 818.593 473.445C794.101 479.38 764.926 483.67 735.081 484.529V484.529Z" stroke="#67C98E" stroke-width="0.985733" stroke-miterlimit="22.9256"/>
<path fill-rule="evenodd" clip-rule="evenodd" d="M726.516 442.41V408.55H758.038L758.098 355.445C770.253 324.575 794.986 313.561 841.815 313.767L846.242 313.785L844.874 418.088H858.46V431.918H890.433V448.133H726.966L726.516 442.41Z" fill="#FFFAF3"/>
<path d="M759.438 418.79H818.382" stroke="#67C98E" stroke-width="1.71173" stroke-miterlimit="22.9256"/>
<path d="M759.479 413.29C777.991 411.943 798.13 410.453 818.382 410.434" stroke="#67C98E" stroke-width="0.976667" stroke-miterlimit="22.9256"/>
<path d="M759.52 407.789C776.897 405.096 797.526 402.116 818.382 402.076" stroke="#67C98E" stroke-width="0.976667" stroke-miterlimit="22.9256"/>
<path d="M759.563 402.29C775.803 398.25 796.922 393.781 818.382 393.72" stroke="#67C98E" stroke-width="0.976667" stroke-miterlimit="22.9256"/>
<path d="M759.604 396.789C774.709 391.403 796.318 385.444 818.382 385.364" stroke="#67C98E" stroke-width="0.976667" stroke-miterlimit="22.9256"/>
<path d="M759.645 391.289C773.615 384.556 795.715 377.107 818.382 377.006" stroke="#67C98E" stroke-width="0.976667" stroke-miterlimit="22.9256"/>
<path d="M759.687 385.788C772.52 377.708 795.111 368.77 818.382 368.649" stroke="#67C98E" stroke-width="0.976667" stroke-miterlimit="22.9256"/>
<path d="M759.728 380.288C771.426 370.862 794.508 360.434 818.382 360.293" stroke="#67C98E" stroke-width="0.976667" stroke-miterlimit="22.9256"/>
<path d="M759.77 374.787C770.332 364.015 793.904 352.097 818.382 351.936" stroke="#67C98E" stroke-width="0.976667" stroke-miterlimit="22.9256"/>
<path d="M759.812 369.287C769.238 357.168 793.299 343.761 818.382 343.579" stroke="#67C98E" stroke-width="0.976667" stroke-miterlimit="22.9256"/>
<path d="M759.853 363.786C768.144 350.321 792.696 335.423 818.382 335.223" stroke="#67C98E" stroke-width="0.976667" stroke-miterlimit="22.9256"/>
<path d="M759.895 358.286C767.05 343.474 792.092 327.087 818.382 326.866" stroke="#67C98E" stroke-width="1.71173" stroke-miterlimit="22.9256"/>
<path fill-rule="evenodd" clip-rule="evenodd" d="M755.801 408.592H807.347V440.791H755.801V408.592" fill="#FFFAF3"/>
<path fill-rule="evenodd" clip-rule="evenodd" d="M673.516 339.94L673.918 367.398H704.834V427.894H736.151V442.053H763.052V449.775L615.7 448.917V409.445H635.775V345.088L651.033 339.511L673.516 339.94" fill="#FFFAF3"/>
<path d="M673.516 339.94L673.918 367.398H704.834V427.894H736.151V442.053H763.052V449.775L615.7 448.917V409.445H635.775V345.088L651.033 339.511L673.516 339.94Z" stroke="#67C98E" stroke-width="0.985733" stroke-miterlimit="22.9256"/>
<path fill-rule="evenodd" clip-rule="evenodd" d="M570.33 411.591H606.465V448.059H577.155L570.33 411.591Z" fill="#FFFAF3"/>
<path fill-rule="evenodd" clip-rule="evenodd" d="M671.03 446.576C670.38 445.611 670.17 444.507 670.359 443.265C670.548 442.024 671.135 440.644 672.059 439.885C672.982 439.126 674.242 438.989 675.144 439.403C676.047 439.816 676.592 440.782 677.074 442.07C677.557 443.357 677.978 444.967 677.894 446.278C677.81 447.588 677.222 448.6 676.467 449.037C675.995 449.31 675.458 449.359 674.875 449.239V454.426H673.403V448.659C672.509 448.163 671.601 447.424 671.03 446.576V446.576ZM690.36 448.845C687.967 448.217 687.211 446.871 686.918 445.481C686.624 444.091 686.792 442.655 687.274 441.287C687.757 439.919 688.555 438.618 689.478 437.72C690.402 436.823 691.451 436.33 692.648 436.262C693.843 436.195 695.187 436.554 696.11 437.339C697.033 438.124 697.538 439.336 697.832 440.636C698.125 441.938 698.21 443.328 698.23 444.135C698.251 444.943 698.21 445.166 698.356 445.1C698.503 445.033 698.839 444.674 699.511 444.315C700.183 443.956 701.189 443.597 702.113 443.574C703.037 443.551 703.876 443.866 704.443 444.606C705.01 445.346 705.303 446.512 705.282 447.432C705.261 448.352 704.926 449.024 704.128 449.294C703.33 449.563 702.072 449.428 699.427 449.406C696.782 449.383 692.752 449.473 690.36 448.845V448.845ZM637.723 441.348C636.211 437.269 634.7 430.525 634.7 424.955C634.7 419.387 636.211 414.995 638.226 412.093C640.241 409.191 642.76 407.78 644.942 408.25C647.125 408.72 648.972 411.074 649.727 414.681C650.483 418.289 650.147 423.152 649.98 425.584C649.812 428.015 649.812 428.015 649.98 427.622C650.147 427.23 650.483 426.446 651.491 425.584C652.498 424.72 654.177 423.78 655.604 423.937C657.031 424.094 658.207 425.348 659.046 427.23C659.467 428.172 659.803 429.272 659.97 430.519C660.907 429.434 661.92 428.536 662.824 427.957C664.923 426.612 666.434 426.971 667.442 428.406C668.449 429.841 668.952 432.354 668.869 435.313C668.785 438.274 668.114 441.684 667.064 443.836C666.015 445.989 664.587 446.887 663.349 447.313C663.047 447.416 662.755 447.493 662.476 447.542V454.426H661.004V447.545C660.708 447.488 660.427 447.394 660.158 447.267C659.256 446.841 658.5 446.035 657.724 443.994C657.532 443.489 657.339 442.909 657.171 442.275C656.905 442.76 656.632 443.213 656.36 443.622C655.26 445.277 654.161 446.226 652.738 446.833V454.426H651.266V447.319C651.174 447.343 651.081 447.365 650.986 447.387C648.998 447.852 646.408 448.035 644.234 447.701V454.426H642.762V447.37C640.599 446.696 639.161 445.23 637.723 441.348" fill="#66C993"/>
<path fill-rule="evenodd" clip-rule="evenodd" d="M838.645 449.965C836.483 449.157 834.091 447.588 832.306 445.636C830.522 443.685 829.347 441.352 828.802 438.773C828.255 436.194 828.34 433.367 829.032 430.811C829.725 428.255 831.026 425.967 832.748 423.635C834.469 421.301 836.61 418.925 839.001 417.534C841.394 416.143 844.039 415.739 846.159 417.31C848.278 418.879 849.873 422.423 850.902 425.114C851.931 427.805 852.392 429.645 852.666 430.698C852.939 431.753 853.022 432.023 853.421 431.933C853.82 431.843 854.533 431.394 855.498 431.394C856.464 431.394 857.682 431.843 858.668 432.628C859.655 433.413 860.41 434.534 860.619 436.014C860.694 436.54 860.7 437.112 860.649 437.706C860.818 437.644 860.991 437.586 861.165 437.531C862.76 437.023 864.608 436.778 866.161 437.35C867.714 437.922 868.972 439.312 869.498 440.572C870.023 441.83 869.813 442.96 869.644 443.75C869.477 444.542 869.351 444.995 869.392 445.083C869.435 445.171 869.644 444.894 870.316 444.512C870.988 444.129 872.121 443.639 873.212 443.554C874.304 443.47 875.353 443.791 876.235 444.298C877.116 444.803 877.83 445.496 878.417 446.147C879.005 446.799 879.467 447.41 879.572 447.9C879.677 448.39 879.425 448.757 873.716 448.919C868.982 449.053 860.498 449.044 854.782 448.838C854.155 449.374 853.664 449.59 852.854 449.92C851.972 450.279 850.713 450.772 849.287 450.951C847.859 451.131 846.264 450.997 844.501 450.907C843.735 450.868 842.938 450.837 842.104 450.749V454.426H840.632V450.528C839.991 450.4 839.33 450.22 838.645 449.965V449.965ZM807.308 452.729V454.426H805.836V452.216C805.776 452.172 805.714 452.125 805.651 452.073C804.707 451.31 803.405 449.875 802.755 449.135C802.105 448.395 802.105 448.35 801.978 449.024C801.852 449.695 801.6 451.086 801.181 451.983C800.761 452.88 800.173 453.284 798.914 453.239C797.655 453.194 795.724 452.702 794.402 451.467C793.08 450.234 792.366 448.26 792.03 446.017C791.694 443.775 791.736 441.263 792.03 439.177C792.324 437.091 792.869 435.432 793.645 434.22C794.422 433.009 795.43 432.247 796.459 432.269C797.487 432.292 798.537 433.099 799.082 433.503C799.627 433.906 799.67 433.906 799.733 432.986C799.795 432.067 799.879 430.228 800.341 427.829C800.803 425.429 801.643 422.468 802.755 420.203C803.867 417.937 805.253 416.368 806.784 415.964C808.317 415.56 809.996 416.322 810.962 418.543C811.927 420.764 812.179 424.442 812.179 428.613C812.179 432.785 811.927 437.45 811.402 441.15C810.878 444.852 810.08 447.588 809.429 449.404C808.778 451.221 808.275 452.118 807.729 452.521C807.593 452.622 807.454 452.692 807.308 452.729ZM755.406 447.073L755.316 445.523L755.301 445.545C753.664 447.993 751.439 449.966 749.445 450.888C748.797 451.188 748.173 451.377 747.584 451.45V454.426H746.111V451.372C745.49 451.213 744.931 450.885 744.45 450.379C743.211 449.075 742.498 446.594 742.435 442.874C742.372 439.151 742.96 434.189 743.674 430.245C744.387 426.302 745.226 423.376 746.486 421.913C747.746 420.449 749.425 420.449 751.04 421.276C752.532 422.04 753.97 423.508 755.222 425.93C755.53 423.812 755.981 422.286 756.455 420.943C757.232 418.745 758.071 417.041 758.974 415.673C759.876 414.305 760.842 413.273 761.786 413.632C762.731 413.991 763.654 415.74 764.116 418.633C764.578 421.527 764.578 425.563 763.948 430.834C763.914 431.113 763.879 431.396 763.843 431.682C764.648 430.527 765.653 429.769 766.739 429.467C768.188 429.062 769.783 429.466 771.336 431.35C772.889 433.234 774.4 436.598 774.946 439.873C775.491 443.147 775.072 446.332 774.274 448.574C773.476 450.817 772.301 452.119 770.223 452.253C769.961 452.27 769.683 452.268 769.396 452.249V454.426H767.924V452.03C766.287 451.664 764.55 450.901 763.318 449.987C762.187 449.149 761.481 448.186 761.07 447.168C760.327 450.519 759.908 451.66 759.099 452.208C758.951 452.308 758.789 452.389 758.619 452.452V454.426H757.147V452.582C756.814 452.529 756.511 452.422 756.287 452.276C755.637 451.849 755.637 451.087 755.406 447.073" fill="#66C993"/>
<path d="M698.307 435.928H731.934" stroke="#67C98E" stroke-width="0.976267" stroke-miterlimit="22.9256"/>
<path d="M698.307 442.161H731.934" stroke="#67C98E" stroke-width="0.976267" stroke-miterlimit="22.9256"/>
<path fill-rule="evenodd" clip-rule="evenodd" d="M686.102 427.878H691.815V449.691H686.102V427.878Z" fill="#66C993"/>
<path d="M651.695 339.071V440.602" stroke="#67C98E" stroke-width="0.976267" stroke-miterlimit="22.9256"/>
<path d="M673.767 367.375V446.705" stroke="#67C98E" stroke-width="0.976267" stroke-miterlimit="22.9256"/>
<path fill-rule="evenodd" clip-rule="evenodd" d="M684.998 376.464H688.374V379.84H684.998V376.464Z" fill="#66C993"/>
<path fill-rule="evenodd" clip-rule="evenodd" d="M676.624 389.374H680V392.75H676.624V389.374Z" fill="#66C993"/>
<path fill-rule="evenodd" clip-rule="evenodd" d="M693.372 376.464H696.748V379.84H693.372V376.464Z" fill="#66C993"/>
<path fill-rule="evenodd" clip-rule="evenodd" d="M693.372 382.919H696.748V386.295H693.372V382.919Z" fill="#66C993"/>
<path fill-rule="evenodd" clip-rule="evenodd" d="M684.998 408.738H688.374V412.113H684.998V408.738Z" fill="#66C993"/>
<path fill-rule="evenodd" clip-rule="evenodd" d="M676.624 415.192H680V418.568H676.624V415.192Z" fill="#66C993"/>
<path fill-rule="evenodd" clip-rule="evenodd" d="M693.372 402.283H696.748V405.659H693.372V402.283Z" fill="#66C993"/>
<path fill-rule="evenodd" clip-rule="evenodd" d="M693.372 408.738H696.748V412.113H693.372V408.738Z" fill="#66C993"/>
<path fill-rule="evenodd" clip-rule="evenodd" d="M693.372 421.646H696.748V425.023H693.372V421.646Z" fill="#66C993"/>
<path d="M657.917 353.872H668.43" stroke="#67C98E" stroke-width="0.976667" stroke-miterlimit="22.9256"/>
<path d="M657.917 360.234H668.43" stroke="#67C98E" stroke-width="0.976667" stroke-miterlimit="22.9256"/>
<path d="M657.917 366.727H668.43" stroke="#67C98E" stroke-width="0.976667" stroke-miterlimit="22.9256"/>
<path d="M657.917 373.088H668.43" stroke="#67C98E" stroke-width="0.976667" stroke-miterlimit="22.9256"/>
<path d="M657.917 379.709H668.43" stroke="#67C98E" stroke-width="0.976667" stroke-miterlimit="22.9256"/>
<path d="M657.917 386.072H668.43" stroke="#67C98E" stroke-width="0.976667" stroke-miterlimit="22.9256"/>
<path d="M657.917 392.693H668.43" stroke="#67C98E" stroke-width="0.976667" stroke-miterlimit="22.9256"/>
<path d="M657.917 399.055H668.43" stroke="#67C98E" stroke-width="0.976667" stroke-miterlimit="22.9256"/>
<path d="M657.917 405.287H668.43" stroke="#67C98E" stroke-width="0.976667" stroke-miterlimit="22.9256"/>
<path d="M657.917 411.649H668.43" stroke="#67C98E" stroke-width="0.976667" stroke-miterlimit="22.9256"/>
<path d="M590.662 383.604H613.121" stroke="#FFFAF3" stroke-width="0.988667" stroke-miterlimit="22.9256"/>
<path d="M590.662 389.577H613.121" stroke="#FFFAF3" stroke-width="0.988667" stroke-miterlimit="22.9256"/>
<path d="M590.662 395.549H613.121" stroke="#FFFAF3" stroke-width="0.988667" stroke-miterlimit="22.9256"/>
<path d="M590.662 402.041H613.121" stroke="#FFFAF3" stroke-width="0.988667" stroke-miterlimit="22.9256"/>
<path fill-rule="evenodd" clip-rule="evenodd" d="M606.548 453.063H874.106C872.919 453.757 871.676 454.45 870.377 455.139H609.433C608.458 454.46 607.496 453.767 606.548 453.063" fill="#66C993"/>
<path fill-rule="evenodd" clip-rule="evenodd" d="M797.601 453.063H800.165C799.839 453.2 799.434 453.258 798.914 453.24C798.527 453.225 798.076 453.17 797.601 453.063Z" fill="#66C993"/>
<path d="M750.89 409.502V442.74" stroke="#67C98E" stroke-width="2.1944" stroke-miterlimit="22.9256"/>
<path d="M744.397 378.861V412.099" stroke="#FFFAF3" stroke-width="2.1948" stroke-miterlimit="22.9256"/>
<path d="M657.917 353.872H668.43" stroke="#67C98E" stroke-width="0.976667" stroke-miterlimit="22.9256"/>
<path d="M618.299 416.512H636.217V421.575H618.299V416.512Z" stroke="#67C98E" stroke-width="0.976667" stroke-miterlimit="22.9256"/>
<path d="M618.299 425.796H636.217V430.859H618.299V425.796Z" stroke="#67C98E" stroke-width="0.976667" stroke-miterlimit="22.9256"/>
<path d="M618.299 435.078H636.217V440.143H618.299V435.078Z" stroke="#67C98E" stroke-width="0.976667" stroke-miterlimit="22.9256"/>
<path fill-rule="evenodd" clip-rule="evenodd" d="M764.067 462.643L762.363 461.813C760.148 460.89 760.054 460.431 760.363 459.295L762.17 459.617L763.376 458.982L764.102 458.991L764.54 457.567L765.463 459.295L765.789 457.894C766.065 457.809 766.638 459.829 766.888 459.829L767.044 462.571L767.041 462.578L771.983 463.813L772.176 463.749L772.693 462.458L771.466 460.972C774.991 459.832 776.5 462.483 773.983 465.041L774.112 465.298L775.597 468.849L777.018 469.237L777.792 472.528L776.953 472.98L776.889 472.787L776.05 470.786L773.597 470.14L772.498 468.526L770.82 469.881L771.401 470.914L770.24 472.528L769.484 472.503L769.271 472.141L769.788 470.914L768.464 469.268L769.078 467.88L767.463 468.59L768.755 472.206L767.772 472.459L767.165 472.322L767.37 471.504L765.14 468.009L763.526 467.623L761.747 468.362L761.395 469.688L760.301 469.859L759.975 468.849L760.814 467.558L761.008 467.429L762.816 465.621L762.751 464.007L762.88 463.749L764.067 462.643ZM791.413 469.753L787.798 460.198L788.056 447.804L785.475 445.48L787.023 441.606C784.781 438.352 780.332 438.387 781.581 441.309L780.54 444.98L783.409 445.997L781.085 449.354L780.678 456.708L778.446 458.023L777.114 459.71L777.717 460.776L779.035 460.113L780.551 459.754L780.136 472.187L777.87 473.64L783.667 473.367L784.7 464.072L788.471 470.543L786.98 473.386L788.725 473.32L791.413 469.753" fill="#66C993"/>
<path fill-rule="evenodd" clip-rule="evenodd" d="M708.533 467.061C704.998 464.167 700.876 458.403 702.401 453.21L704.592 445.744L710.329 439.855C708.935 434.169 709.498 432.241 712.745 430.529C714.582 429.562 717.429 428.823 719.31 430.254L718.759 431.585L719.37 433.489L719.21 434.883L718.431 440.107L716.229 440.163L720.391 444.372L720.447 461.739L722.707 474.31L721.415 490.996L725.285 491.607L726.301 493.401L716.365 493.371L716.737 479.327L715.237 473.807L711.364 491.276L714.437 492.495L714.892 493.533L705.364 493.476L708.533 467.061" fill="#66C993"/>
<path fill-rule="evenodd" clip-rule="evenodd" d="M725.615 444.796C725.3 440.425 724.524 438.296 729.635 436.908C732.421 436.151 736.032 436.17 734.965 439.53L736.488 443.89L734.649 444.607L735.026 446.54L737.013 448.161L737.174 448.744L741.843 464.9L740.81 466.378L741.38 473.681L739.67 474.559L739.953 490.246L744.662 492.885L737.233 492.919L734.315 474.913L733.068 481.631L731.48 488.391L732.059 491.097L734.105 493.074L730.285 493.084L726.948 490.144L729.858 480.254L729.38 474.177L724.784 470.591L727.838 451.8L725.448 449.955C726.112 447.557 725.792 447.252 725.615 444.796" fill="#66C993"/>
<path fill-rule="evenodd" clip-rule="evenodd" d="M621.703 450.676C622.056 450.755 622.358 450.969 622.552 451.26L625.613 451.272L623.359 441.817L622.274 442.119L621.599 442.621L621.703 450.676ZM622.885 437.415L623.202 435.782C622.577 435.864 622.183 436.125 621.996 435.579C621.62 434.479 621.709 432.9 622.426 432.083C624.053 430.231 625.618 433.343 626.009 434.618L624.781 435.275C627.802 436.456 628.04 440.653 628.825 443.623L627.263 444.971L630.164 447.705V449.489L629.16 448.374L626.594 447.254L627.09 451.277L632.082 451.296C632.326 450.905 632.76 450.644 633.255 450.644C634.018 450.644 634.635 451.262 634.635 452.025C634.635 452.786 634.018 453.404 633.255 453.404C632.614 453.404 632.075 452.967 631.92 452.375L622.74 452.369C622.587 452.965 622.046 453.404 621.403 453.404C620.641 453.404 620.023 452.786 620.023 452.025C620.023 451.387 620.455 450.851 621.04 450.692V442.609L620.706 442.599L620.483 442.672L619.926 442.548L620.204 441.635L621.019 441.23L621.017 441.218L622.913 440.178L622.885 437.415" fill="#66C993"/>
<path fill-rule="evenodd" clip-rule="evenodd" d="M818.413 442.993L818.104 442.51V442.704L818.189 443.022L818.413 442.993ZM813.608 448.19C813.906 444.767 813.305 441.481 815.508 438.727L814.241 438.614C815.134 437.313 813.944 435.863 815.663 434.708C816.863 433.903 819.535 435.479 818.356 435.933L818.38 436.521L817.979 438.209L817.679 438.222L817.471 438.727L818.445 439.247L819.338 442.168L820.18 442.34L820.669 442.558L820.747 442.793C821.176 442.847 821.595 443.076 822.238 443.939L823.605 445.771C823.856 444.159 825.215 444.188 825.715 445.82L825.46 446.591L825.942 446.648L827.111 448.466L828.214 448.595L828.896 452.036L828.876 452.058L828.877 452.079C828.877 452.659 828.406 453.129 827.826 453.129C827.275 453.129 826.823 452.705 826.779 452.165H824.994C824.949 452.705 824.498 453.129 823.947 453.129C823.366 453.129 822.895 452.659 822.895 452.079C822.895 452.044 822.898 452.01 822.901 451.976L822.859 451.971L821.674 451.983C821.677 452.014 821.678 452.047 821.678 452.079C821.678 452.659 821.208 453.129 820.628 453.129C820.047 453.129 819.576 452.659 819.576 452.079C819.576 451.761 819.718 451.476 819.94 451.283L819.808 451.126L818.54 448.353L818.185 448.53L817.283 452.535L818.737 453.172H816.432L816.173 449.05L813.906 450.777L813.965 452.296L813.573 452.317L812.797 450.575L814.484 448.401L813.608 448.19Z" fill="#66C993"/>
<path fill-rule="evenodd" clip-rule="evenodd" d="M681.048 439.218L678.829 440.737V441.088L678.478 445.293L679.499 448.168L679.479 450.199L679.83 452.419L680.18 453.547L682.09 453.714L682.01 450.76L683.508 453.544L684.976 453.912L685.06 445.293L684.413 440.654L683.103 439.225C683.67 439.072 683.568 438.173 683.572 437.426C683.579 436.204 682.77 435 681.139 435.725C680.099 436.188 679.749 437.919 681.048 439.218" fill="#66C993"/>
<path fill-rule="evenodd" clip-rule="evenodd" d="M686.134 464.019L686.548 456.609L688.304 454.657C686.62 448.296 694.265 450.087 690.658 454.312L691.942 455.692L691.804 458.217L693.423 458.686L692.767 460.222L691.368 460.608L691.401 461.444L692.743 464.654L693.755 464.297L694.053 465.036L691.658 466.504L688.996 462.989L688.466 464.824L686.228 466.027L685.537 467.408L684.472 464.364L686.134 464.019" fill="#66C993"/>
<path fill-rule="evenodd" clip-rule="evenodd" d="M945.249 478.755C932.274 485.658 913.897 490.131 899.029 495.256C901.25 495.7 903.563 496.062 905.986 496.335C935.519 499.675 980.875 490.17 1011.77 475.708C1014.08 474.628 1016.3 473.52 1018.45 472.387C1018.81 463.006 1017.68 454.614 1015.82 448.523H976.089V448.253C969.473 457.317 961.711 469.994 945.249 478.755" fill="#FADA8F"/>
<path d="M994.745 307.112C997.909 291.827 1004.93 287.23 1014.05 282.977C1036.19 272.661 1070.82 278.907 1077.54 307.095C1080.7 320.364 1077.15 335.435 1068.44 345.675C1069.14 345.246 1071.82 342.779 1075.95 340.955C1080.08 339.131 1085.65 337.952 1090 338.649C1094.34 339.347 1097.45 341.92 1099.33 344.549C1101.21 347.177 1101.85 349.858 1101.74 352.057C1101.64 354.257 1100.78 355.973 1100.46 356.723C1100.32 357.053 1100.28 357.198 1100.58 357.186C1169.81 342.376 1182.69 414.824 1142.98 438.045C1136.24 441.99 1125.94 442.437 1111.88 442.699C1091.77 443.074 1062.7 440.929 1040.66 435.673C1018.61 430.417 1003.59 422.05 997.051 410.84C990.508 399.631 992.439 385.578 992.707 366.271C992.975 346.962 991.581 322.398 994.745 307.112V307.112Z" stroke="#FFFAF3" stroke-width="0.976667" stroke-miterlimit="22.9256"/>
<path fill-rule="evenodd" clip-rule="evenodd" d="M1029.35 448.179V344.151H1080.78V448.471L1029.35 448.179" fill="#FFFAF3"/>
<path fill-rule="evenodd" clip-rule="evenodd" d="M1010.95 386.815H1102.7V448.179H1010.95V386.815" fill="#FFFAF3"/>
<path fill-rule="evenodd" clip-rule="evenodd" d="M1098.61 374.25H1116.73V448.471H1098.61V374.25" fill="#FFFAF3"/>
<path fill-rule="evenodd" clip-rule="evenodd" d="M1036.22 323.697H1073.92V355.841H1036.22V323.697" fill="#FFFAF3"/>
<path fill-rule="evenodd" clip-rule="evenodd" d="M1044.85 308.463C1044.85 296.466 1065.29 296.794 1065.29 308.463V330.418H1044.85V308.463Z" fill="#FFFAF3"/>
<path fill-rule="evenodd" clip-rule="evenodd" d="M1054.63 260.288H1055.51V305.872H1054.63V260.288Z" fill="#FFFAF3"/>
<path fill-rule="evenodd" clip-rule="evenodd" d="M1025.18 379.433H1029.27V448.687H1025.18V379.433Z" fill="#F59444"/>
<path fill-rule="evenodd" clip-rule="evenodd" d="M1027.23 413.711H1076.91V433.216H1027.23V413.711Z" fill="#F59444"/>
<path fill-rule="evenodd" clip-rule="evenodd" d="M1094.51 379.433H1098.6V448.687H1094.51V379.433Z" fill="#F59444"/>
<path fill-rule="evenodd" clip-rule="evenodd" d="M1107.66 381.188C1110.89 381.188 1113.51 383.804 1113.51 387.032C1113.51 390.259 1110.89 392.875 1107.66 392.875C1104.44 392.875 1101.82 390.259 1101.82 387.032C1101.82 383.804 1104.44 381.188 1107.66 381.188Z" fill="#FFFAF3"/>
<path d="M1107.66 381.188C1110.89 381.188 1113.51 383.804 1113.51 387.032C1113.51 390.259 1110.89 392.875 1107.66 392.875C1104.44 392.875 1101.82 390.259 1101.82 387.032C1101.82 383.804 1104.44 381.188 1107.66 381.188Z" stroke="#F59444" stroke-width="0.976667" stroke-miterlimit="22.9256"/>
<path fill-rule="evenodd" clip-rule="evenodd" d="M1085.89 444.558C1085.16 443.898 1084.68 442.602 1084.43 441.034C1084.19 439.469 1084.17 437.631 1084.38 435.731C1084.58 433.83 1085 431.865 1085.55 430.415C1086.09 428.965 1086.78 428.03 1087.4 427.81C1088.02 427.592 1088.58 428.088 1088.92 429.517C1089.25 430.946 1089.36 433.306 1089.58 435.408C1089.81 437.512 1090.17 439.358 1090.25 440.689C1090.34 442.019 1090.16 442.833 1089.84 443.51C1089.51 444.188 1089.04 444.728 1088.32 444.985C1087.6 445.244 1086.62 445.219 1085.89 444.558" fill="#F59444"/>
<path fill-rule="evenodd" clip-rule="evenodd" d="M1083.95 445.512C1084.5 444.904 1084.96 444.465 1085.63 444.197C1086.3 443.929 1087.18 443.832 1088.02 443.966C1088.86 444.099 1089.66 444.465 1090.49 444.49C1091.32 444.514 1092.17 444.197 1092.9 443.917C1093.63 443.638 1094.24 443.394 1094.97 443.381C1095.7 443.369 1096.56 443.588 1097.31 443.905C1098.07 444.221 1098.72 444.636 1099.32 444.928C1099.92 445.22 1100.45 445.391 1101.08 445.293C1101.72 445.195 1102.45 444.83 1103.17 444.599C1103.89 444.368 1104.59 444.27 1105.19 444.307C1105.79 444.343 1106.27 444.514 1106.7 444.818C1107.12 445.122 1107.49 445.561 1107.67 445.804C1107.86 446.048 1107.86 446.097 1108 445.975C1108.15 445.853 1108.44 445.561 1108.84 445.232C1109.24 444.903 1109.75 444.538 1110.45 444.429C1111.14 444.319 1112.02 444.465 1112.72 444.818C1113.43 445.171 1113.97 445.732 1114.32 446.389C1114.67 447.046 1114.84 447.802 1114.34 448.239C1113.84 448.678 1112.68 448.8 1107.28 448.811C1101.89 448.824 1092.27 448.727 1087.3 448.629C1082.33 448.532 1082.02 448.435 1081.93 448.276C1081.85 448.118 1081.99 447.899 1082.38 447.4C1082.77 446.9 1083.41 446.121 1083.95 445.512" fill="#F59444"/>
<path fill-rule="evenodd" clip-rule="evenodd" d="M1103.57 432.01C1103.35 433.823 1103.3 436.112 1103.41 437.842C1103.52 439.57 1103.79 440.74 1104.18 441.604C1104.57 442.468 1105.08 443.029 1105.69 442.724C1106.3 442.42 1107 441.251 1107.48 439.911C1107.95 438.572 1108.2 437.062 1108.23 435.297C1108.27 433.532 1108.1 431.511 1107.73 429.989C1107.37 428.466 1106.81 427.444 1106.25 427.115C1105.69 426.786 1105.13 427.152 1104.65 428.004C1104.18 428.856 1103.79 430.196 1103.57 432.01" fill="#F3615E"/>
<path fill-rule="evenodd" clip-rule="evenodd" d="M1109.3 433.531C1108.71 434.189 1108.02 435.31 1107.56 436.246C1107.1 437.184 1106.86 437.939 1106.9 438.755C1106.95 439.57 1107.29 440.448 1107.81 441.129C1108.32 441.811 1109 442.298 1109.75 442.407C1110.51 442.518 1111.34 442.249 1112.03 441.787C1112.72 441.324 1113.28 440.666 1113.59 440.057C1113.89 439.449 1113.94 438.888 1113.75 438.365C1113.55 437.841 1113.11 437.355 1112.72 437.172C1112.33 436.989 1111.99 437.11 1111.81 436.965C1111.63 436.819 1111.6 436.405 1111.48 435.614C1111.36 434.822 1111.14 433.653 1110.78 433.166C1110.41 432.679 1109.9 432.875 1109.3 433.531Z" fill="#F3615E"/>
<path fill-rule="evenodd" clip-rule="evenodd" d="M1023.53 424.229C1022.43 422.939 1021.38 422.598 1020.61 423.791C1019.84 424.984 1019.34 427.712 1018.82 430.269C1018.29 432.825 1017.74 435.212 1017.74 437.16C1017.74 439.108 1018.29 440.618 1019.04 441.518C1019.78 442.42 1020.72 442.712 1021.74 442.249C1022.76 441.787 1023.86 440.57 1024.68 439.278C1025.51 437.988 1026.06 436.624 1026.39 435.066C1026.72 433.507 1026.83 431.754 1026.31 429.757C1025.79 427.76 1024.63 425.52 1023.53 424.229" fill="#F59444"/>
<path fill-rule="evenodd" clip-rule="evenodd" d="M1015.91 431.316C1015.22 433.069 1014.64 435.407 1014.49 437.428C1014.35 439.449 1014.64 441.153 1015.03 442.298C1015.42 443.442 1015.91 444.027 1016.44 444.343C1016.98 444.66 1017.56 444.708 1018.44 443.588C1019.31 442.468 1020.48 440.179 1021.04 438.378C1021.6 436.576 1021.55 435.26 1020.97 433.483C1020.39 431.705 1019.27 429.465 1018.32 428.928C1017.37 428.393 1016.59 429.562 1015.91 431.316" fill="#F59444"/>
<path fill-rule="evenodd" clip-rule="evenodd" d="M1038.24 423.995V442.988H1035.32V423.995H1032.98V414.06H1084.7V423.995H1082.36V442.988H1079.44V423.995H1073.54V442.988H1070.61V423.995H1064.71V442.988H1061.79V423.995H1055.89V442.988H1052.97V423.995H1047.06V442.988H1044.14V423.995H1038.24" fill="#FFFAF3"/>
<path d="M1038.24 423.995V442.988H1035.32V423.995H1032.98V414.06H1084.7V423.995H1082.36V442.988H1079.44V423.995H1073.54V442.988H1070.61V423.995H1064.71V442.988H1061.79V423.995H1055.89V442.988H1052.97V423.995H1047.06V442.988H1044.14V423.995H1038.24Z" stroke="#F59444" stroke-width="0.976267" stroke-miterlimit="22.9256"/>
<path fill-rule="evenodd" clip-rule="evenodd" d="M1032.69 442.403H1084.12V448.248H1032.69V442.403Z" fill="#FFFAF3"/>
<path d="M1032.69 442.403H1084.12V448.248H1032.69V442.403Z" stroke="#F59444" stroke-width="0.976667" stroke-miterlimit="22.9256"/>
<path fill-rule="evenodd" clip-rule="evenodd" d="M1038.75 442.054H1027.94V448.598H1038.75V442.054Z" fill="#F59444"/>
<path d="M1034.1 343.746H1075.88" stroke="#F59444" stroke-width="0.976667" stroke-miterlimit="22.9256"/>
<path d="M1036.37 349.773V408.215" stroke="#F59444" stroke-width="0.976667" stroke-miterlimit="22.9256"/>
<path d="M1073.77 349.773V408.215" stroke="#F59444" stroke-width="0.976667" stroke-miterlimit="22.9256"/>
<path d="M1060.47 324.935V343.637" stroke="#F3615E" stroke-width="3.63293" stroke-miterlimit="22.9256"/>
<path d="M1062.37 348.897V408.8" stroke="#F59444" stroke-width="1.1448" stroke-miterlimit="22.9256"/>
<path d="M1057.5 348.897V408.8" stroke="#F59444" stroke-width="1.1448" stroke-miterlimit="22.9256"/>
<path d="M1052.63 348.897V408.8" stroke="#F59444" stroke-width="1.1448" stroke-miterlimit="22.9256"/>
<path d="M1047.76 348.897V408.8" stroke="#F59444" stroke-width="1.1448" stroke-miterlimit="22.9256"/>
<path fill-rule="evenodd" clip-rule="evenodd" d="M1065 344.076H1069.09V414.077H1065V344.076Z" fill="#F59444"/>
<path fill-rule="evenodd" clip-rule="evenodd" d="M1058.86 323.768H1062.95V343.947H1058.86V323.768Z" fill="#F59444"/>
<path fill-rule="evenodd" clip-rule="evenodd" d="M1105.4 407.031H1148.75V448.581H1105.4V407.031Z" fill="#FFFAF3"/>
<path d="M1105.4 407.031H1148.75V448.581H1105.4V407.031Z" stroke="#F59444" stroke-width="0.976667" stroke-miterlimit="22.9256"/>
<path fill-rule="evenodd" clip-rule="evenodd" d="M1127.46 395.324L1149.47 407.186H1104.61L1127.46 395.324Z" fill="#FFFAF3"/>
<path d="M1127.46 395.324L1149.47 407.186H1104.61L1127.46 395.324Z" stroke="#F59444" stroke-width="1.18493" stroke-miterlimit="22.9256"/>
<path fill-rule="evenodd" clip-rule="evenodd" d="M1092.07 420H1162.08V448.581H1092.07V420Z" fill="#FFFAF3"/>
<path d="M1092.07 420H1162.08V448.581H1092.07V420Z" stroke="#F59444" stroke-width="0.976667" stroke-miterlimit="22.9256"/>
<path fill-rule="evenodd" clip-rule="evenodd" d="M1106.9 419.917L1097.91 424.885V448.408H1106.24L1106.1 447.092V435.55H1149.27H1150.84V427.222L1122.46 414.366L1111.5 419.917H1106.9Z" fill="#F59444"/>
<path fill-rule="evenodd" clip-rule="evenodd" d="M1100.96 424.923H1153.2V428.887H1100.96V424.923Z" fill="#FFFAF3"/>
<path d="M1100.96 424.923H1153.2V428.887H1100.96V424.923Z" stroke="#F59444" stroke-width="0.976267" stroke-miterlimit="22.9256"/>
<path fill-rule="evenodd" clip-rule="evenodd" d="M1100.96 444.737H1153.2V448.701H1100.96V444.737Z" fill="#FFFAF3"/>
<path d="M1100.96 444.737H1153.2V448.701H1100.96V444.737Z" stroke="#F59444" stroke-width="0.976267" stroke-miterlimit="22.9256"/>
<path fill-rule="evenodd" clip-rule="evenodd" d="M1104.08 430.327H1106.84V444.497H1104.08V430.327Z" fill="#FFFAF3"/>
<path d="M1104.08 430.327H1106.84V444.497H1104.08V430.327Z" stroke="#F59444" stroke-width="0.976267" stroke-miterlimit="22.9256"/>
<path fill-rule="evenodd" clip-rule="evenodd" d="M1111.35 430.327H1114.11V444.497H1111.35V430.327Z" fill="#FFFAF3"/>
<path d="M1111.35 430.327H1114.11V444.497H1111.35V430.327Z" stroke="#F59444" stroke-width="0.976667" stroke-miterlimit="22.9256"/>
<path fill-rule="evenodd" clip-rule="evenodd" d="M1118.61 430.327H1121.37V444.497H1118.61V430.327Z" fill="#FFFAF3"/>
<path d="M1118.61 430.327H1121.37V444.497H1118.61V430.327Z" stroke="#F59444" stroke-width="0.976667" stroke-miterlimit="22.9256"/>
<path fill-rule="evenodd" clip-rule="evenodd" d="M1125.88 430.327H1128.64V444.497H1125.88V430.327Z" fill="#FFFAF3"/>
<path d="M1125.88 430.327H1128.64V444.497H1125.88V430.327Z" stroke="#F59444" stroke-width="0.976667" stroke-miterlimit="22.9256"/>
<path fill-rule="evenodd" clip-rule="evenodd" d="M1133.14 430.327H1135.9V444.497H1133.14V430.327Z" fill="#FFFAF3"/>
<path d="M1133.14 430.327H1135.9V444.497H1133.14V430.327Z" stroke="#F59444" stroke-width="0.976667" stroke-miterlimit="22.9256"/>
<path fill-rule="evenodd" clip-rule="evenodd" d="M1140.41 430.327H1143.17V444.497H1140.41V430.327Z" fill="#FFFAF3"/>
<path d="M1140.41 430.327H1143.17V444.497H1140.41V430.327Z" stroke="#F59444" stroke-width="0.976667" stroke-miterlimit="22.9256"/>
<path fill-rule="evenodd" clip-rule="evenodd" d="M1147.67 430.327H1150.43V444.497H1147.67V430.327Z" fill="#FFFAF3"/>
<path d="M1147.67 430.327H1150.43V444.497H1147.67V430.327Z" stroke="#F59444" stroke-width="0.976667" stroke-miterlimit="22.9256"/>
<path d="M1092.31 424.923H1162.2" stroke="#F59444" stroke-width="0.976667" stroke-miterlimit="22.9256"/>
<path fill-rule="evenodd" clip-rule="evenodd" d="M1127.52 411.943L1152.98 424.923H1101.1L1127.52 411.943Z" fill="#FFFAF3"/>
<path d="M1127.52 411.943L1152.98 424.923H1101.1L1127.52 411.943Z" stroke="#F59444" stroke-width="1.26507" stroke-miterlimit="22.9256"/>
<path fill-rule="evenodd" clip-rule="evenodd" d="M1178.74 442.432C1178.63 442.431 1178.52 442.423 1178.42 442.407C1177.67 442.298 1176.99 441.811 1176.47 441.129C1176.29 440.881 1176.12 440.608 1175.99 440.322C1175.53 441.466 1174.92 442.421 1174.38 442.711V444.672C1174.75 444.754 1175.07 444.901 1175.37 445.11C1175.8 445.415 1176.16 445.854 1176.34 446.097C1176.53 446.34 1176.53 446.389 1176.67 446.267C1176.82 446.145 1177.11 445.854 1177.51 445.524C1177.84 445.258 1178.23 444.968 1178.74 444.809V442.432ZM1154.44 444.439C1153.78 443.749 1153.33 442.513 1153.1 441.034C1152.85 439.469 1152.84 437.631 1153.05 435.731C1153.25 433.83 1153.67 431.865 1154.22 430.415C1154.76 428.965 1155.45 428.03 1156.07 427.811C1156.69 427.592 1157.25 428.089 1157.59 429.517C1157.92 430.946 1158.02 433.306 1158.25 435.408C1158.48 437.512 1158.84 439.358 1158.92 440.689C1159.01 442.019 1158.83 442.833 1158.51 443.51C1158.32 443.902 1158.08 444.248 1157.78 444.519C1158.24 444.646 1158.7 444.768 1159.16 444.782C1159.99 444.806 1160.84 444.49 1161.57 444.21C1162.3 443.929 1162.91 443.686 1163.64 443.673C1164.37 443.662 1165.23 443.881 1165.98 444.197C1166.73 444.514 1167.39 444.928 1167.99 445.22C1168.59 445.512 1169.12 445.683 1169.75 445.586C1170.39 445.488 1171.12 445.122 1171.83 444.891C1172.44 444.699 1173.03 444.599 1173.56 444.592V442.63C1173.29 442.424 1173.05 442.056 1172.85 441.604C1172.45 440.74 1172.19 439.57 1172.08 437.841C1171.97 436.112 1172.02 433.823 1172.24 432.01C1172.45 430.196 1172.85 428.856 1173.32 428.004C1173.8 427.152 1174.36 426.786 1174.91 427.115C1175.48 427.444 1176.04 428.466 1176.4 429.989C1176.75 431.432 1176.92 433.324 1176.91 435.021C1177.25 434.453 1177.63 433.914 1177.97 433.532C1178.57 432.875 1179.08 432.679 1179.44 433.166C1179.81 433.653 1180.03 434.822 1180.15 435.614C1180.28 436.406 1180.3 436.819 1180.48 436.965C1180.66 437.11 1181.01 436.989 1181.39 437.172C1181.79 437.355 1182.22 437.841 1182.41 438.365C1182.61 438.889 1182.56 439.449 1182.26 440.057C1181.95 440.666 1181.39 441.324 1180.7 441.787C1180.35 442.022 1179.96 442.205 1179.57 442.316V444.685C1180.17 444.68 1180.83 444.831 1181.39 445.11C1182.1 445.464 1182.63 446.024 1182.99 446.682C1183.34 447.338 1183.52 448.093 1183.01 448.532C1182.52 448.97 1181.35 449.092 1176.43 449.105C1171.51 449.116 1162.85 449.019 1158.36 448.922C1153.87 448.824 1153.55 448.727 1153.47 448.568C1153.38 448.41 1153.53 448.191 1153.44 447.691C1153.35 447.192 1153.03 446.413 1153.1 445.804C1153.17 445.195 1153.63 444.758 1154.3 444.49C1154.35 444.472 1154.39 444.456 1154.44 444.439" fill="#F59444"/>
<path fill-rule="evenodd" clip-rule="evenodd" d="M1062.95 457.224L1059.98 449.364L1060.19 439.169L1058.07 437.257L1059.34 434.07C1057.5 431.392 1053.84 431.422 1054.87 433.826L1054.01 436.845L1056.37 437.682L1054.46 440.443L1054.07 447.452L1053.68 459.226L1051.81 460.423L1056.58 460.198L1057.43 452.55L1060.53 457.874L1059.31 460.213L1060.74 460.159L1062.95 457.224" fill="#F59444"/>
<path fill-rule="evenodd" clip-rule="evenodd" d="M1036.99 439.981L1035.04 441.312V441.619L1034.74 445.303L1035.35 448.067L1034.63 449.602L1034.94 451.547L1035.25 452.57L1039.24 452.365L1039.43 451.246L1039.61 453.061L1038.38 453.323L1038.91 455.158L1041.44 453.673L1041.62 450.962L1044.59 454.022L1045.55 453.235L1043.8 450.176L1043.68 449.541L1044.7 449.248L1045.02 448.08L1043.73 447.723L1043.54 445.803L1042.4 444.754L1043.02 443.88L1043.19 442.218L1041.62 441.956L1040.57 442.917L1040.66 445.016L1040.45 445.214L1039.14 439.776L1038.73 437.32L1037.19 436.501L1036.27 437.32L1035.86 438.856L1036.99 439.981" fill="#F59444"/>
<path fill-rule="evenodd" clip-rule="evenodd" d="M1027.1 454.182L1026.61 450.099L1027.17 450.385L1027.1 454.182ZM1027.96 441.131L1027.71 440.277L1025.7 438.211C1026.19 436.217 1025.99 435.54 1024.85 434.94C1024.21 434.6 1023.21 434.341 1022.55 434.843L1022.74 435.31L1022.53 435.979L1022.58 436.468L1022.86 438.3L1023.63 438.319L1022.17 439.796L1022.15 445.889L1021.36 450.298L1021.81 456.152L1020.45 456.366L1020.1 456.995L1023.58 456.985L1023.45 452.058L1023.98 450.121L1025.34 456.25L1024.26 456.678L1024.1 457.042L1027.44 457.021L1027.42 456.823L1028.02 456.826L1029.05 450.51L1030.04 455.237L1029.84 456.187L1029.12 456.88L1030.46 456.884L1031.63 455.853L1030.71 453.147L1030.78 450.252L1032.39 448.993L1031.61 442.927L1032.44 442.279C1032.21 441.438 1032.32 441.141 1032.39 440.278C1032.5 438.746 1032.43 437.283 1030.64 436.796C1029.66 436.53 1028.4 436.537 1028.77 437.715L1028.14 439.531L1028.93 439.879L1028.8 440.556L1027.96 441.131V441.131ZM1026.33 447.755C1026.45 447.655 1026.58 447.543 1026.7 447.423L1026.77 447.516L1026.58 449.88L1026.33 447.755" fill="#F59444"/>
<path fill-rule="evenodd" clip-rule="evenodd" d="M1078 438.921L1079.22 441.369L1076.86 443.63L1075.33 451.777L1077.11 451.65L1076.6 455.596L1078 456.233L1079.27 452.414L1079.4 455.469H1081.18L1082.96 441.466L1082.2 440.958L1082.84 438.412L1081.95 436.502C1081.46 436.502 1081.57 436.592 1081.57 436.248L1079.66 436.502L1078 438.921ZM1070.97 440.321L1071.28 440.753L1069.82 441.849L1068.04 446.813L1068.93 450.25L1070.33 450.632L1070.97 456.106L1073.77 456.233L1073.64 451.395L1075.3 443.886L1073.99 441.166L1074.28 441.085L1074.54 440.702V438.284L1073.01 437.393H1071.61L1070.97 440.321" fill="#F59444"/>
<path fill-rule="evenodd" clip-rule="evenodd" d="M1096.09 442.639L1095.24 443.342L1096.09 447.895L1096 450.455L1096.85 450.644L1096.66 453.205L1097.99 453.489L1098.65 451.498L1099.13 453.205L1100.36 453.299L1100.26 446.566V446.283L1098.46 441.825L1098.24 441.859L1098.46 441.447L1097.42 439.171L1095.81 439.265L1095.52 441.066L1096.09 442.639" fill="#F59444"/>
<path fill-rule="evenodd" clip-rule="evenodd" d="M1113.45 477.483L1112.34 469.988L1108.87 468.543L1110.82 461.238L1109.55 447.816L1112.09 444.759C1111.32 443.179 1111.02 441.384 1111.27 439.995C1111.64 437.933 1113.25 436.767 1116.41 438.543L1117.91 445.374L1117.17 445.682L1119.4 447.816L1119.4 448.246L1122.11 457.592L1124.2 446.418L1127.71 445.211L1125.79 444.543L1127.29 439.126C1125.43 437.736 1132.7 437.188 1132.23 441.138L1131.38 445.117L1135.89 447.738L1137.58 455.952L1133.92 461.085L1134.2 464.604L1134.76 472.524L1135.33 473.754L1134.22 477.209L1132.91 477.262L1132.68 472.772L1129.92 465.068L1129.83 478.685L1125.47 478.936L1127.03 477.113L1125.61 463.431L1125.14 458.294L1123.38 463.037L1121.1 462.991L1121.16 462.665L1119.05 458.579L1118.33 466.336L1118.35 471.432L1119.65 475.99L1118.63 478.876L1117.25 479.036L1117.34 476.492L1115.83 472.466L1115.76 479.077L1110.28 479.417L1113.45 477.483" fill="#F59444"/>
<path fill-rule="evenodd" clip-rule="evenodd" d="M1146 443.241L1146.21 443.538L1145.5 444.074L1145.5 444.04L1144.65 443.338L1145.22 441.765L1144.94 439.963L1143.32 439.869L1142.28 442.145L1142.5 442.557L1142.28 442.524L1140.48 446.981V447.265L1140.38 453.998L1141.62 453.903L1142.09 452.195L1142.75 454.187L1144.08 453.903L1143.89 451.342L1144.75 451.152L1144.71 450.102L1145.56 450.333L1146 454.1L1147.92 454.187L1147.83 450.859L1148.97 445.693L1148.07 443.823L1148.27 443.767L1148.45 443.504V441.841L1147.4 441.227H1146.43L1146 443.241" fill="#F59444"/>
</g>
<defs>
<clipPath id="clip0">
<rect width="1920" height="598" fill="white"/>
</clipPath>
</defs>
</svg>
