<svg width="1199" height="818" viewBox="0 0 1199 818" fill="none" xmlns="http://www.w3.org/2000/svg">
<g clip-path="url(#clip0)">
<rect width="1199" height="818" fill="#FFFAF3"/>
<path fill-rule="evenodd" clip-rule="evenodd" d="M989 1069.94H159.064V240H989V1069.94Z" fill="#FFFAF3"/>
<path d="M445.163 426.706C463.704 430.875 478.077 440.074 486.989 450.567C495.901 461.059 499.35 472.846 512.287 482.764C525.223 492.681 547.645 500.731 577.15 498.057C606.653 495.383 643.24 481.986 686.357 490.927C729.475 499.868 779.125 531.148 802.212 572.854C825.3 614.561 821.824 666.694 798.488 714.11C775.152 761.525 731.957 804.225 662.405 816.074C592.853 827.925 496.944 808.926 439.647 788.215C382.349 767.503 363.664 745.081 344.32 720.33C324.975 695.578 304.971 668.498 298.569 643.787C292.167 619.076 299.367 596.732 308.179 581.217C316.992 565.701 327.419 557.013 332.815 547.659C338.211 538.305 338.577 528.285 337.178 516.089C335.779 503.893 332.617 489.519 339.66 473.852C346.704 458.185 363.952 441.224 383.931 432.312C403.91 423.401 426.62 422.539 445.163 426.706V426.706Z" stroke="#FABD34" stroke-width="1.26507" stroke-miterlimit="22.9256"/>
<path fill-rule="evenodd" clip-rule="evenodd" d="M939.25 825.271C952.298 821.772 956.471 816.637 957.892 810.897C959.714 803.513 956.978 795.126 949.777 790.75C942.577 786.374 930.904 786.009 927.623 775.708C924.342 765.407 929.444 745.169 925.982 727.756C922.518 710.344 910.485 695.758 894.531 687.371C878.578 678.984 858.704 676.795 839.559 680.259C820.415 683.724 802 692.84 787.87 705.238C773.739 717.636 763.893 733.317 762.8 752.826C761.707 772.335 769.363 795.673 780.121 809.347C786.645 817.641 794.31 822.379 805.514 825.271H939.25" fill="#5784CC"/>
<path fill-rule="evenodd" clip-rule="evenodd" d="M93.9698 711.822C55.4307 699.999 40.0155 697.634 26.6757 699.407C13.3353 701.181 2.07068 707.093 -14.8273 713.793C-31.7247 720.494 -73.8205 732.12 -73.8205 732.12C-73.8205 732.12 -80.0055 733.359 -83 733.846V493.376C74.6869 435.597 205.057 522.793 259.385 543.644C296.981 558.074 334.09 557.716 366.106 549.832C398.122 541.95 428.361 530.52 457.411 524.608C486.465 518.696 514.33 518.303 539.529 521.653C564.728 525.002 587.258 532.097 605.638 543.134C624.018 554.169 638.248 569.146 641.509 585.897C644.77 602.648 637.062 621.172 624.908 642.061C612.753 662.95 596.153 686.204 569.769 705.91C543.385 725.617 507.218 741.777 453.265 751.236C399.312 760.695 327.57 763.454 260.87 754.192C194.168 744.93 132.507 723.646 93.9698 711.822Z" fill="#5784CC"/>
<path fill-rule="evenodd" clip-rule="evenodd" d="M788.182 640.827C769.947 638.395 750.353 638.824 727.969 645.618C705.586 652.412 680.414 665.57 646.95 673.565C613.485 681.561 571.73 684.395 547.919 694.822C524.109 705.25 518.245 723.272 528.256 748.372C538.268 773.473 564.156 805.653 584.319 830.266C604.481 854.879 618.92 871.926 650.025 875.443C681.129 878.961 728.899 868.95 761.437 853.718C793.975 838.486 811.281 818.032 818.576 797.939C825.87 777.843 823.152 758.106 828.354 743.017C833.555 727.928 846.675 717.487 849.965 703.399C853.255 689.311 846.713 671.576 835.004 660.063C823.295 648.55 806.418 643.258 788.182 640.827" fill="#F59444"/>
<path fill-rule="evenodd" clip-rule="evenodd" d="M761.768 678.099C775.898 691.317 796.866 709.003 808.991 722.039C821.116 735.076 824.398 743.463 826.859 750.665C829.32 757.867 830.961 763.883 832.261 764.749C833.561 765.616 834.52 761.332 835.865 751.167C837.211 741.002 838.942 724.957 837.894 706.999C836.846 689.039 833.017 669.166 847.99 654.899C862.962 640.631 896.737 631.97 907.789 624.54C918.842 617.11 907.174 610.911 893.316 608.176C879.459 605.441 863.415 606.171 851.654 605.441C839.895 604.712 832.42 602.524 823.485 595.96C814.551 589.396 804.159 578.457 790.94 573.533C777.721 568.612 761.676 569.705 750.006 577.089C738.338 584.474 731.045 598.149 728.948 610.911C726.851 623.675 729.951 635.526 735.147 645.827C740.344 656.129 747.637 664.879 761.768 678.099" fill="#F59444"/>
<path fill-rule="evenodd" clip-rule="evenodd" d="M838.7 668.493C821.561 670.133 806.247 660.653 790.035 656.57C775.256 652.848 759.735 653.614 744.77 660.458C740.702 655.486 737.676 650.84 735.147 645.827C729.951 635.526 726.851 623.675 728.948 610.911C731.045 598.149 738.338 584.474 750.006 577.089C761.676 569.705 777.721 568.611 790.94 573.533C804.159 578.457 814.551 589.396 823.485 595.96C832.42 602.523 839.895 604.712 851.654 605.441C861.733 606.066 874.959 605.62 887.257 607.201C890.766 615.001 891.691 624.246 887.802 633.712C878.487 654.305 860.637 666.763 839.219 668.438C839.046 668.457 838.873 668.476 838.7 668.493" fill="#FABD34"/>
<path fill-rule="evenodd" clip-rule="evenodd" d="M620.866 507.733C607.248 510.795 596.691 517.551 590.147 525.257C583.601 532.963 581.068 541.62 571.567 548.904C562.066 556.188 545.598 562.1 523.928 560.135C502.26 558.173 475.389 548.333 443.721 554.9C412.053 561.466 375.589 584.44 358.632 615.071C341.675 645.702 344.228 683.992 361.367 718.815C378.506 753.64 410.231 785 461.312 793.703C512.396 802.407 582.835 788.452 624.917 773.241C666.999 758.031 680.722 741.562 694.929 723.383C709.137 705.205 723.829 685.316 728.532 667.167C733.233 649.018 727.945 632.608 721.473 621.213C715 609.818 707.342 603.436 703.379 596.566C699.416 589.696 699.147 582.337 700.174 573.38C701.201 564.423 703.525 553.866 698.351 542.359C693.179 530.852 680.512 518.396 665.837 511.85C651.163 505.305 634.484 504.672 620.866 507.733" fill="#FABD34"/>
<path fill-rule="evenodd" clip-rule="evenodd" d="M483.619 685.806V691.414H487.067V695.619H483.619V748.615C483.619 771.161 497.249 805.165 504.765 826.117H446.117C453.867 804.699 467.263 771.164 467.263 748.615V695.619H463.817V691.414H467.263V685.806H463.817V681.6H469.483V603.443H466.212V593.629H469.6V543.627H466.563V535.449H464.576V518.626H470.535V501.802H473.339V463.015H474.271L475.438 420.256L476.611 463.015H477.545V501.802H480.349V518.626H486.307V535.449H484.32V543.627H481.282V593.629H484.671V603.443H481.4V681.6H487.067V685.806H483.619" fill="#FABD34"/>
<path d="M483.619 685.806V691.414H487.067V695.619H483.619V748.615C483.619 771.161 497.249 805.165 504.765 826.117H446.117C453.867 804.699 467.263 771.164 467.263 748.615V695.619H463.817V691.414H467.263V685.806H463.817V681.6H469.483V603.443H466.212V593.629H469.6V543.627H466.563V535.449H464.576V518.626H470.535V501.802H473.339V463.015H474.271L475.438 420.256L476.611 463.015H477.545V501.802H480.349V518.626H486.307V535.449H484.32V543.627H481.282V593.629H484.671V603.443H481.4V681.6H487.067V685.806H483.619Z" stroke="#FFFAF3" stroke-width="0.976667" stroke-miterlimit="22.9256"/>
<path fill-rule="evenodd" clip-rule="evenodd" d="M683.563 713.366V608.531C682.643 600.105 668.974 592.881 654.118 600.849L633.795 611.751C636.035 620.947 636.507 629.549 637.687 637.528C639.078 646.93 641.083 662.015 642.387 679.446L659.008 674.131L674.439 679.597L674.74 721.915L683.563 713.366" fill="#FABD34"/>
<path d="M683.563 713.366V608.531C682.643 600.105 668.974 592.881 654.118 600.849L633.795 611.751C636.035 620.947 636.507 629.549 637.687 637.528C639.078 646.93 641.083 662.015 642.387 679.446L659.008 674.131L674.439 679.597L674.74 721.915L683.563 713.366Z" stroke="#FFFAF3" stroke-width="0.981867" stroke-miterlimit="22.9256"/>
<path fill-rule="evenodd" clip-rule="evenodd" d="M592.899 646.385L574.505 654.481V605.199L555.094 598.024L531.772 613.015V756.51L597.021 753.291L592.899 646.385Z" fill="#FABD34"/>
<path d="M592.899 646.385L574.505 654.481V605.199L555.094 598.024L531.772 613.015V756.51L597.021 753.291L592.899 646.385Z" stroke="#FFFAF3" stroke-width="1.03213" stroke-miterlimit="22.9256"/>
<path fill-rule="evenodd" clip-rule="evenodd" d="M649.542 743.102C647.906 671.21 643.96 610.557 630.423 558.57C619.111 542.356 604.601 540.799 587.525 541.369V759.029L625.968 758.876L634.501 751.343L649.542 743.102Z" fill="#FABD34"/>
<path d="M649.542 743.102C647.906 671.21 643.96 610.557 630.423 558.57C619.111 542.356 604.601 540.799 587.525 541.369V759.029L625.968 758.876L634.501 751.343L649.542 743.102Z" stroke="#FFFAF3" stroke-width="0.981867" stroke-miterlimit="22.9256"/>
<path fill-rule="evenodd" clip-rule="evenodd" d="M639.552 604.275C637.126 588.205 634.937 576.229 631.21 561.917C623.694 551.144 614.264 545.025 603.802 544.068L609.483 657.494C626.325 641.726 635.233 631.371 639.552 604.275" fill="#FFFAF3"/>
<path fill-rule="evenodd" clip-rule="evenodd" d="M533.908 740.645V568.998L521.629 563.493L511.982 570.825L500.143 596.15V627.494L481.401 656.552V770.201L533.292 770.391L533.908 740.645" fill="#FABD34"/>
<path d="M533.908 740.645V568.998L521.629 563.493L511.982 570.825L500.143 596.15V627.494L481.401 656.552V770.201L533.292 770.391L533.908 740.645Z" stroke="#FFFAF3" stroke-width="0.991733" stroke-miterlimit="22.9256"/>
<path fill-rule="evenodd" clip-rule="evenodd" d="M533.951 630.522L533.853 568.997L521.328 563.484L509.699 588.298V622.891L518.308 615.478L515.403 622.361L497.81 650.668V742.567L508.879 742.177V648.449L533.951 630.522Z" fill="#FFFAF3"/>
<path fill-rule="evenodd" clip-rule="evenodd" d="M571.672 611.605L571.569 691.218L569.007 690.536V610.778L571.672 611.605Z" fill="#FFFAF3"/>
<path fill-rule="evenodd" clip-rule="evenodd" d="M566.136 609.97L566.035 689.745L563.471 689.063V609.144L566.136 609.97" fill="#FFFAF3"/>
<path fill-rule="evenodd" clip-rule="evenodd" d="M560.601 608.336L560.499 688.273L557.937 687.591V607.509L560.601 608.336" fill="#FFFAF3"/>
<path fill-rule="evenodd" clip-rule="evenodd" d="M393.198 605.181L500.143 606.884V604.783C496.883 603.839 493.993 602.672 491.942 600.819C488.77 597.954 485.931 594.455 481.443 593.57C477.319 592.756 470.147 595.842 467.719 599.47C464.899 596.897 461.015 597.085 459.049 601.774C455.471 603.193 454.601 603.794 447.999 603.569C446.869 601.239 444.854 600.019 440.728 601.807C438.579 589.731 423.862 592.717 416.368 594.599C415.492 590.92 407.04 589.119 404.765 595.421L401.476 598.18C394.39 594.055 383.577 604.221 372.013 604.267C372.113 599.012 363.861 596.661 359.116 602.48C355.096 601.905 348.218 594.806 340.941 601.306C340.737 601.117 340.534 600.927 340.33 600.737C340.053 594.697 335.146 592.51 328.786 594.983C323.868 593.528 320.528 594.84 318.492 598.171C316.55 596.673 314.084 597.078 312.778 598.504C310.193 597.608 303.798 599.387 303.35 602.112C301.817 602.243 301.041 602.942 299.509 603.073C298.721 598.11 290.502 600.074 287.635 601.432C284.687 602.83 277.007 602.705 274.518 602.828L274.101 602.846L273.964 602.812C273.839 602.782 273.687 602.745 273.473 602.702L275.959 598.47L273.092 598.448L269.177 602.194L268.913 602.173C267.3 602.044 265.156 601.904 262.973 601.778L268.598 592.843L266.575 592.702L258.183 601.528C257.257 601.486 256.406 601.451 255.68 601.428C252.251 601.313 251.611 601.428 251.195 601.57C250.779 601.711 250.588 601.88 250.496 601.972C250.403 602.064 250.41 602.08 250.136 602.168C249.862 602.257 249.308 602.417 249.011 602.611C248.714 602.805 248.674 603.033 248.82 603.29C248.967 603.549 249.3 603.835 250.752 604.121C252.091 604.383 254.383 604.645 256.832 604.809L260.97 612.347L263.006 612.456L261.715 604.978C263.045 604.977 264.39 604.935 265.744 604.838C268.566 604.637 271.422 604.202 272.892 603.974C273.786 603.836 274.168 603.775 274.341 603.741L373.829 605.401L393.198 605.181" fill="#FFFAF3"/>
<path d="M347.456 664.005H355.236V638.843L370.705 636.403V653.064L382.279 655.849V648.963L396.152 652.523V675.354L402.104 675.304V661.543L415.567 658.304L420.519 660.872L441.584 655.253" stroke="#FFFAF3" stroke-width="1.0976" stroke-miterlimit="22.9256"/>
<path fill-rule="evenodd" clip-rule="evenodd" d="M463.725 748.725V615.473L440.227 612.148L435.517 619.907V748.623L463.725 748.725Z" fill="#FFFAF3"/>
<path fill-rule="evenodd" clip-rule="evenodd" d="M440.892 613.921L444.661 607.493L459.735 609.931L459.956 618.798L440.892 613.921Z" fill="#FFFAF3"/>
<path fill-rule="evenodd" clip-rule="evenodd" d="M452.076 748.8V694.699C461.066 693.721 476.253 693.377 486.879 699.798V748.943L452.076 748.8Z" fill="#FFFAF3"/>
<path fill-rule="evenodd" clip-rule="evenodd" d="M413.188 471.806C428.595 471.806 441.086 484.296 441.086 499.703C441.086 515.11 428.595 527.6 413.188 527.6C397.782 527.6 385.292 515.11 385.292 499.703C385.292 484.296 397.782 471.806 413.188 471.806" fill="#FABD34"/>
<path fill-rule="evenodd" clip-rule="evenodd" d="M727.291 671.33C715.785 680.234 704.739 691.813 694.217 702.639C679.748 717.526 666.273 730.984 653.219 740.43C640.164 749.876 627.528 755.31 610.884 755.836C594.24 756.361 573.586 751.979 556.067 742.468C538.549 732.959 524.165 718.32 516.608 696.598C509.052 674.875 508.323 646.067 519.08 619.994C529.837 593.921 552.081 570.583 581.253 554.356C610.426 538.129 646.527 529.013 681.534 530.836C684.902 531.012 688.259 531.289 691.598 531.656C694.453 535.18 696.758 538.814 698.351 542.359C703.524 553.866 701.201 564.423 700.174 573.38C699.147 582.337 699.416 589.696 703.378 596.566C707.342 603.436 715 609.818 721.472 621.213C727.945 632.608 733.233 649.018 728.531 667.167C728.174 668.545 727.758 669.934 727.291 671.33" fill="#F3615E"/>
<path fill-rule="evenodd" clip-rule="evenodd" d="M683.563 713.298V608.531C682.643 600.105 668.974 592.881 654.117 600.849L633.795 611.75C636.035 620.947 636.507 629.549 637.688 637.529C639.078 646.93 641.083 662.015 642.386 679.446L659.008 674.132L674.439 679.528L674.74 722.106C676.982 719.972 679.243 717.768 681.527 715.505L683.563 713.298" fill="#F3615E"/>
<path d="M683.563 713.298V608.531C682.643 600.105 668.974 592.881 654.117 600.849L633.795 611.75C636.035 620.947 636.507 629.549 637.688 637.529C639.078 646.93 641.083 662.015 642.386 679.446L659.008 674.132L674.439 679.528L674.74 722.106C676.982 719.972 679.243 717.768 681.527 715.505L683.563 713.298Z" stroke="#FFFAF3" stroke-width="0.976667" stroke-miterlimit="22.9256"/>
<path fill-rule="evenodd" clip-rule="evenodd" d="M592.899 646.385L574.505 654.481V605.199L555.094 598.023L531.772 613.015V723.163C538.673 731.173 546.945 737.516 556.067 742.468C566.022 747.872 576.988 751.619 587.655 753.753L597.021 753.291L592.899 646.385Z" fill="#F3615E"/>
<path d="M592.899 646.385L574.505 654.481V605.199L555.094 598.023L531.772 613.015V723.163C538.673 731.173 546.945 737.516 556.067 742.468C566.022 747.872 576.988 751.619 587.655 753.753L597.021 753.291L592.899 646.385Z" stroke="#FFFAF3" stroke-width="0.976667" stroke-miterlimit="22.9256"/>
<path fill-rule="evenodd" clip-rule="evenodd" d="M649.457 743.044C647.771 672.612 643.732 609.684 630.424 558.57C623.701 548.934 615.847 544.474 606.996 542.562C600.28 545.045 593.766 547.881 587.526 551.033L586.021 753.317C594.173 754.957 599.75 756.188 610.884 755.836C622.018 755.485 637.694 750.876 649.457 743.044" fill="#F3615E"/>
<path d="M649.457 743.044C647.771 672.612 643.732 609.684 630.424 558.57C623.701 548.934 615.847 544.474 606.996 542.562C600.28 545.045 593.766 547.881 587.526 551.033L586.021 753.317C594.173 754.957 599.75 756.188 610.884 755.836C622.018 755.485 637.694 750.876 649.457 743.044V743.044Z" stroke="#FFFAF3" stroke-width="0.976667" stroke-miterlimit="22.9256"/>
<path fill-rule="evenodd" clip-rule="evenodd" d="M639.552 604.275C637.126 588.205 634.938 576.229 631.211 561.917C623.694 551.144 614.265 545.025 603.802 544.068L609.483 657.494C626.325 641.726 635.233 631.371 639.552 604.275Z" fill="#FFFAF3"/>
<path fill-rule="evenodd" clip-rule="evenodd" d="M533.908 725.544V594.455C527.751 602.535 522.747 611.106 519.08 619.995C508.323 646.067 509.052 674.875 516.608 696.598C520.628 708.153 526.58 717.703 533.908 725.544" fill="#F3615E"/>
<path d="M533.908 725.544V594.455C527.751 602.535 522.747 611.106 519.08 619.995C508.323 646.067 509.052 674.875 516.608 696.598C520.628 708.153 526.58 717.703 533.908 725.544V725.544Z" stroke="#FFFAF3" stroke-width="0.976267" stroke-miterlimit="22.9256"/>
<path fill-rule="evenodd" clip-rule="evenodd" d="M533.951 630.522L533.894 594.474C527.743 602.548 522.744 611.113 519.08 619.995C515.551 628.547 513.259 637.395 512.037 646.19L533.951 630.522" fill="#FFFAF3"/>
<path fill-rule="evenodd" clip-rule="evenodd" d="M571.672 611.605L571.569 691.218L569.007 690.536V610.778L571.672 611.605Z" fill="#FFFAF3"/>
<path fill-rule="evenodd" clip-rule="evenodd" d="M566.136 609.97L566.035 689.745L563.471 689.063V609.144L566.136 609.97" fill="#FFFAF3"/>
<path fill-rule="evenodd" clip-rule="evenodd" d="M560.601 608.336L560.499 688.273L557.937 687.591V607.509L560.601 608.336" fill="#FFFAF3"/>
<path fill-rule="evenodd" clip-rule="evenodd" d="M562.261 750.571H593.837V682.297L619.134 683.344L630.204 692.589V718.582H637.525L637.867 776.535L609.841 787.741L561.699 786.735L562.261 750.571Z" fill="#FFFAF3"/>
<path d="M838.7 668.493C821.561 670.133 806.247 660.653 790.035 656.57C773.824 652.488 756.717 653.803 740.434 662.619C724.149 671.435 708.686 687.752 694.217 702.639C679.748 717.526 666.273 730.984 653.219 740.43C640.164 749.876 627.528 755.31 610.884 755.836C594.24 756.361 573.586 751.979 556.067 742.468C538.549 732.959 524.165 718.32 516.608 696.598C509.052 674.875 508.323 646.067 519.08 619.994C529.837 593.921 552.081 570.583 581.253 554.356C610.426 538.129 646.527 529.013 681.534 530.836C716.54 532.659 750.453 545.422 774.338 557.638C798.223 569.854 812.08 581.523 824.843 585.169C837.606 588.816 849.275 584.44 860.032 585.899C870.79 587.358 880.636 594.651 886.106 604.86C897.607 626.332 883.856 648.752 864.738 660.504C856.576 665.521 846.986 667.7 838.7 668.493V668.493Z" stroke="#F3615E" stroke-width="1.5624" stroke-miterlimit="22.9256"/>
<path fill-rule="evenodd" clip-rule="evenodd" d="M329.111 825.502C321.224 818.895 314.378 811.388 308.91 802.983C293.969 780.013 289.318 750.34 295.378 727.294C301.44 704.248 318.214 687.83 339.145 678.19C360.078 668.55 385.168 665.687 407.369 673.52C429.57 681.353 448.881 699.88 464.738 717.805C480.596 735.729 493 753.051 508.717 762.766C524.434 772.481 543.463 774.591 561.293 772.934C579.125 771.277 595.757 765.854 609.008 765.929C622.258 766.005 632.125 771.578 637.199 778.883C642.274 786.189 642.556 795.227 639.807 803.887C637.447 811.322 632.855 818.479 623.176 825.502H329.111Z" fill="#66C993"/>
<path fill-rule="evenodd" clip-rule="evenodd" d="M347.939 674.629C366.88 667.968 388.2 666.758 407.369 673.521C429.57 681.353 448.881 699.88 464.738 717.805C480.597 735.729 493.001 753.051 508.716 762.766C524.434 772.481 543.463 774.59 561.294 772.934C579.125 771.277 595.757 765.854 609.008 765.929C617.251 765.976 624.184 768.151 629.47 771.547C627.988 772.113 626.473 772.679 624.917 773.241C582.835 788.452 512.396 802.407 461.312 793.703C410.231 785 378.506 753.64 361.367 718.815C354.28 704.417 349.691 689.426 347.939 674.629Z" fill="#A6C85C"/>
<path d="M313.441 809.5L314.536 747.144H356.106V798.013V775.587H405.335L430.496 751.52V770.117H460.033L479.724 751.109H515.826V820.439" stroke="#FFFAF3" stroke-width="0.976667" stroke-miterlimit="22.9256"/>
<path fill-rule="evenodd" clip-rule="evenodd" d="M461.003 818.648V782.986H494.203L494.267 727.055C507.069 694.542 533.117 682.942 582.439 683.159L587.101 683.179L585.661 793.031H599.97V807.598H633.645V824.676H461.478L461.003 818.648Z" fill="#FFFAF3"/>
<path d="M495.678 793.771H557.759" stroke="#67C98E" stroke-width="1.71173" stroke-miterlimit="22.9256"/>
<path d="M495.721 787.979C515.218 786.56 536.429 784.991 557.759 784.97" stroke="#67C98E" stroke-width="0.976667" stroke-miterlimit="22.9256"/>
<path d="M495.765 782.185C514.066 779.348 535.793 776.21 557.759 776.168" stroke="#67C98E" stroke-width="0.976667" stroke-miterlimit="22.9256"/>
<path d="M495.809 776.393C512.914 772.139 535.157 767.431 557.759 767.367" stroke="#67C98E" stroke-width="0.976667" stroke-miterlimit="22.9256"/>
<path d="M495.853 770.599C511.762 764.927 534.52 758.651 557.759 758.566" stroke="#67C98E" stroke-width="0.976667" stroke-miterlimit="22.9256"/>
<path d="M495.896 764.807C510.609 757.715 533.885 749.87 557.759 749.764" stroke="#67C98E" stroke-width="0.976667" stroke-miterlimit="22.9256"/>
<path d="M495.94 759.013C509.456 750.503 533.249 741.089 557.759 740.962" stroke="#67C98E" stroke-width="0.976667" stroke-miterlimit="22.9256"/>
<path d="M495.983 753.22C508.304 743.293 532.614 732.309 557.758 732.161" stroke="#67C98E" stroke-width="0.976667" stroke-miterlimit="22.9256"/>
<path d="M496.027 747.426C507.152 736.081 531.978 723.529 557.759 723.359" stroke="#67C98E" stroke-width="0.976667" stroke-miterlimit="22.9256"/>
<path d="M496.071 741.634C506 728.87 531.341 714.749 557.759 714.558" stroke="#67C98E" stroke-width="0.976667" stroke-miterlimit="22.9256"/>
<path d="M496.115 735.84C504.847 721.658 530.706 705.968 557.759 705.757" stroke="#67C98E" stroke-width="0.976667" stroke-miterlimit="22.9256"/>
<path d="M496.159 730.048C503.694 714.447 530.069 697.188 557.759 696.956" stroke="#67C98E" stroke-width="1.71173" stroke-miterlimit="22.9256"/>
<path fill-rule="evenodd" clip-rule="evenodd" d="M491.848 783.031H546.136V816.943H491.848V783.031" fill="#FFFAF3"/>
<path fill-rule="evenodd" clip-rule="evenodd" d="M405.183 710.725L405.607 739.644H438.168V803.36H471.152V818.272H499.484V826.406L344.291 825.502V783.929H365.434V716.147L381.503 710.273L405.183 710.725" fill="#FFFAF3"/>
<path d="M405.183 710.725L405.607 739.644H438.168V803.36H471.152V818.272H499.484V826.406L344.291 825.502V783.929H365.434V716.147L381.503 710.273L405.183 710.725Z" stroke="#67C98E" stroke-width="0.985733" stroke-miterlimit="22.9256"/>
<path fill-rule="evenodd" clip-rule="evenodd" d="M296.506 786.189H334.564V824.598H303.695L296.506 786.189Z" fill="#FFFAF3"/>
<path fill-rule="evenodd" clip-rule="evenodd" d="M402.565 823.037C401.88 822.02 401.659 820.857 401.858 819.549C402.057 818.241 402.676 816.788 403.649 815.989C404.621 815.19 405.948 815.045 406.898 815.481C407.849 815.917 408.423 816.933 408.931 818.29C409.44 819.646 409.882 821.341 409.794 822.722C409.705 824.102 409.086 825.168 408.291 825.629C407.794 825.916 407.228 825.967 406.615 825.841V831.304H405.064V825.23C404.123 824.708 403.166 823.929 402.565 823.037V823.037ZM422.923 825.426C420.403 824.765 419.607 823.347 419.298 821.882C418.988 820.418 419.165 818.906 419.673 817.465C420.182 816.024 421.023 814.654 421.995 813.709C422.968 812.765 424.073 812.245 425.333 812.174C426.592 812.103 428.007 812.481 428.98 813.308C429.952 814.135 430.483 815.41 430.793 816.78C431.102 818.151 431.191 819.615 431.212 820.465C431.235 821.316 431.191 821.551 431.345 821.481C431.5 821.41 431.853 821.032 432.561 820.654C433.269 820.276 434.329 819.898 435.302 819.874C436.275 819.85 437.159 820.182 437.756 820.962C438.353 821.741 438.662 822.969 438.639 823.937C438.618 824.906 438.265 825.615 437.424 825.898C436.584 826.182 435.258 826.04 432.473 826.017C429.688 825.993 425.443 826.087 422.923 825.426V825.426ZM367.485 817.53C365.893 813.234 364.302 806.13 364.302 800.265C364.302 794.4 365.893 789.775 368.015 786.718C370.138 783.661 372.79 782.175 375.089 782.671C377.388 783.166 379.333 785.645 380.128 789.444C380.924 793.243 380.571 798.365 380.394 800.926C380.217 803.488 380.217 803.488 380.394 803.074C380.571 802.66 380.924 801.835 381.986 800.927C383.047 800.017 384.815 799.027 386.318 799.192C387.821 799.357 389.059 800.678 389.943 802.66C390.386 803.653 390.74 804.811 390.917 806.124C391.903 804.982 392.97 804.036 393.922 803.426C396.133 802.009 397.724 802.387 398.786 803.9C399.847 805.41 400.376 808.057 400.289 811.174C400.2 814.292 399.493 817.883 398.388 820.15C397.283 822.418 395.779 823.363 394.475 823.812C394.156 823.921 393.85 824.002 393.556 824.053V831.304H392.005V824.056C391.694 823.996 391.398 823.898 391.114 823.764C390.164 823.315 389.368 822.466 388.551 820.316C388.348 819.784 388.145 819.174 387.968 818.506C387.688 819.017 387.401 819.494 387.114 819.925C385.956 821.668 384.798 822.668 383.3 823.306V831.304H381.749V823.819C381.652 823.843 381.555 823.867 381.455 823.89C379.36 824.38 376.633 824.573 374.343 824.221V831.304H372.793V823.872C370.515 823.163 368.999 821.619 367.485 817.53" fill="#66C993"/>
<path fill-rule="evenodd" clip-rule="evenodd" d="M579.1 826.605C576.823 825.755 574.304 824.102 572.424 822.046C570.545 819.991 569.307 817.534 568.733 814.818C568.157 812.101 568.247 809.124 568.976 806.432C569.705 803.74 571.076 801.33 572.889 798.874C574.702 796.416 576.956 793.914 579.475 792.448C581.996 790.983 584.781 790.558 587.014 792.212C589.246 793.865 590.926 797.597 592.01 800.432C593.093 803.266 593.579 805.204 593.867 806.313C594.154 807.425 594.242 807.708 594.662 807.614C595.083 807.519 595.834 807.046 596.85 807.046C597.868 807.046 599.15 807.519 600.188 808.346C601.228 809.173 602.023 810.353 602.244 811.912C602.322 812.466 602.329 813.068 602.275 813.694C602.453 813.629 602.635 813.568 602.819 813.509C604.499 812.975 606.444 812.716 608.08 813.319C609.717 813.921 611.041 815.385 611.595 816.712C612.148 818.038 611.927 819.227 611.749 820.06C611.573 820.893 611.44 821.371 611.484 821.464C611.529 821.556 611.749 821.264 612.457 820.862C613.165 820.458 614.358 819.943 615.507 819.853C616.656 819.764 617.762 820.103 618.691 820.637C619.619 821.169 620.37 821.898 620.989 822.584C621.608 823.271 622.095 823.915 622.206 824.431C622.315 824.946 622.05 825.333 616.038 825.504C611.052 825.645 602.116 825.635 596.096 825.418C595.435 825.983 594.918 826.21 594.065 826.558C593.136 826.936 591.811 827.455 590.308 827.644C588.804 827.833 587.125 827.692 585.268 827.597C584.461 827.557 583.622 827.524 582.744 827.431V831.304H581.193V827.198C580.518 827.063 579.821 826.874 579.1 826.605V826.605ZM546.096 829.516V831.304H544.545V828.977C544.482 828.93 544.417 828.88 544.351 828.825C543.356 828.022 541.985 826.511 541.3 825.731C540.615 824.952 540.615 824.905 540.482 825.614C540.349 826.321 540.084 827.786 539.642 828.731C539.2 829.676 538.581 830.101 537.255 830.054C535.928 830.006 533.895 829.488 532.503 828.188C531.11 826.889 530.359 824.81 530.004 822.447C529.651 820.086 529.695 817.44 530.004 815.243C530.314 813.047 530.888 811.299 531.706 810.023C532.524 808.747 533.585 807.944 534.669 807.968C535.752 807.992 536.857 808.842 537.431 809.267C538.006 809.692 538.051 809.692 538.117 808.723C538.183 807.755 538.271 805.818 538.758 803.291C539.244 800.764 540.129 797.645 541.3 795.259C542.472 792.873 543.931 791.22 545.544 790.795C547.158 790.369 548.927 791.172 549.943 793.512C550.96 795.85 551.225 799.724 551.225 804.117C551.225 808.511 550.96 813.424 550.407 817.322C549.855 821.22 549.015 824.102 548.329 826.014C547.644 827.928 547.114 828.873 546.539 829.298C546.395 829.404 546.249 829.478 546.096 829.516ZM491.431 823.559L491.336 821.927L491.321 821.95C489.596 824.529 487.253 826.606 485.153 827.577C484.471 827.893 483.814 828.092 483.193 828.17V831.304H481.642V828.088C480.987 827.92 480.399 827.574 479.892 827.041C478.587 825.668 477.837 823.055 477.77 819.137C477.704 815.216 478.323 809.99 479.075 805.836C479.826 801.683 480.71 798.601 482.036 797.06C483.363 795.519 485.132 795.519 486.833 796.389C488.404 797.194 489.919 798.74 491.238 801.291C491.562 799.061 492.037 797.453 492.537 796.039C493.354 793.724 494.239 791.929 495.189 790.488C496.14 789.048 497.156 787.96 498.151 788.339C499.146 788.717 500.118 790.559 500.605 793.606C501.091 796.654 501.091 800.905 500.428 806.456C500.392 806.751 500.356 807.048 500.317 807.349C501.166 806.133 502.224 805.335 503.367 805.016C504.893 804.59 506.573 805.015 508.209 807C509.845 808.984 511.436 812.527 512.011 815.976C512.586 819.425 512.144 822.779 511.304 825.141C510.463 827.503 509.226 828.874 507.037 829.015C506.761 829.034 506.469 829.031 506.166 829.011V831.304H504.615V828.781C502.891 828.395 501.062 827.591 499.765 826.629C498.574 825.746 497.83 824.732 497.397 823.66C496.614 827.189 496.173 828.391 495.321 828.968C495.165 829.074 494.995 829.159 494.816 829.225V831.304H493.265V829.362C492.914 829.306 492.596 829.193 492.36 829.039C491.674 828.59 491.674 827.787 491.431 823.559" fill="#66C993"/>
<path d="M431.293 811.822H466.71" stroke="#67C98E" stroke-width="0.976267" stroke-miterlimit="22.9256"/>
<path d="M431.293 818.386H466.71" stroke="#67C98E" stroke-width="0.976267" stroke-miterlimit="22.9256"/>
<path fill-rule="evenodd" clip-rule="evenodd" d="M418.438 803.343H424.456V826.317H418.438V803.343Z" fill="#66C993"/>
<path d="M382.201 709.809V816.744" stroke="#67C98E" stroke-width="0.976267" stroke-miterlimit="22.9256"/>
<path d="M405.448 739.621V823.172" stroke="#67C98E" stroke-width="0.976267" stroke-miterlimit="22.9256"/>
<path fill-rule="evenodd" clip-rule="evenodd" d="M417.276 749.192H420.831V752.748H417.276V749.192Z" fill="#66C993"/>
<path fill-rule="evenodd" clip-rule="evenodd" d="M408.456 762.79H412.012V766.345H408.456V762.79Z" fill="#66C993"/>
<path fill-rule="evenodd" clip-rule="evenodd" d="M426.096 749.192H429.652V752.748H426.096V749.192Z" fill="#66C993"/>
<path fill-rule="evenodd" clip-rule="evenodd" d="M426.096 755.992H429.652V759.547H426.096V755.992Z" fill="#66C993"/>
<path fill-rule="evenodd" clip-rule="evenodd" d="M417.276 783.184H420.831V786.739H417.276V783.184Z" fill="#66C993"/>
<path fill-rule="evenodd" clip-rule="evenodd" d="M408.456 789.982H412.012V793.537H408.456V789.982Z" fill="#66C993"/>
<path fill-rule="evenodd" clip-rule="evenodd" d="M426.096 776.386H429.652V779.942H426.096V776.386Z" fill="#66C993"/>
<path fill-rule="evenodd" clip-rule="evenodd" d="M426.096 783.184H429.652V786.739H426.096V783.184Z" fill="#66C993"/>
<path fill-rule="evenodd" clip-rule="evenodd" d="M426.096 796.78H429.652V800.336H426.096V796.78Z" fill="#66C993"/>
<path d="M388.754 725.399H399.826" stroke="#67C98E" stroke-width="0.976667" stroke-miterlimit="22.9256"/>
<path d="M388.754 732.099H399.826" stroke="#67C98E" stroke-width="0.976667" stroke-miterlimit="22.9256"/>
<path d="M388.754 738.938H399.826" stroke="#67C98E" stroke-width="0.976667" stroke-miterlimit="22.9256"/>
<path d="M388.754 745.637H399.826" stroke="#67C98E" stroke-width="0.976667" stroke-miterlimit="22.9256"/>
<path d="M388.754 752.61H399.826" stroke="#67C98E" stroke-width="0.976667" stroke-miterlimit="22.9256"/>
<path d="M388.754 759.312H399.826" stroke="#67C98E" stroke-width="0.976667" stroke-miterlimit="22.9256"/>
<path d="M388.754 766.285H399.826" stroke="#67C98E" stroke-width="0.976667" stroke-miterlimit="22.9256"/>
<path d="M388.754 772.986H399.826" stroke="#67C98E" stroke-width="0.976667" stroke-miterlimit="22.9256"/>
<path d="M388.754 779.55H399.826" stroke="#67C98E" stroke-width="0.976667" stroke-miterlimit="22.9256"/>
<path d="M388.754 786.25H399.826" stroke="#67C98E" stroke-width="0.976667" stroke-miterlimit="22.9256"/>
<path d="M317.919 756.713H341.574" stroke="#FFFAF3" stroke-width="0.988667" stroke-miterlimit="22.9256"/>
<path d="M317.919 763.004H341.574" stroke="#FFFAF3" stroke-width="0.988667" stroke-miterlimit="22.9256"/>
<path d="M317.919 769.294H341.574" stroke="#FFFAF3" stroke-width="0.988667" stroke-miterlimit="22.9256"/>
<path d="M317.919 776.131H341.574" stroke="#FFFAF3" stroke-width="0.988667" stroke-miterlimit="22.9256"/>
<path d="M486.674 783.989V818.996" stroke="#67C98E" stroke-width="2.1944" stroke-miterlimit="22.9256"/>
<path d="M479.837 751.718V786.725" stroke="#FFFAF3" stroke-width="2.1948" stroke-miterlimit="22.9256"/>
<path d="M388.754 725.399H399.826" stroke="#67C98E" stroke-width="0.976667" stroke-miterlimit="22.9256"/>
<path d="M347.028 791.372H365.899V796.705H347.028V791.372Z" stroke="#67C98E" stroke-width="0.976667" stroke-miterlimit="22.9256"/>
<path d="M347.028 801.15H365.899V806.483H347.028V801.15Z" stroke="#67C98E" stroke-width="0.976667" stroke-miterlimit="22.9256"/>
<path d="M347.028 810.927H365.899V816.261H347.028V810.927Z" stroke="#67C98E" stroke-width="0.976667" stroke-miterlimit="22.9256"/>
<path fill-rule="evenodd" clip-rule="evenodd" d="M500.553 839.958L498.759 839.084C496.425 838.112 496.326 837.628 496.652 836.432L498.555 836.771L499.825 836.103L500.59 836.112L501.051 834.612L502.023 836.432L502.366 834.956C502.657 834.866 503.261 836.994 503.524 836.994L503.688 839.882L503.685 839.89L508.89 841.191L509.094 841.123L509.638 839.764L508.346 838.198C512.058 836.997 513.648 839.79 510.997 842.483L511.133 842.755L512.697 846.494L514.193 846.903L515.008 850.369L514.125 850.845L514.057 850.642L513.173 848.534L510.59 847.854L509.433 846.154L507.666 847.581L508.277 848.669L507.054 850.369L506.258 850.343L506.034 849.962L506.578 848.669L505.184 846.936L505.831 845.474L504.13 846.222L505.49 850.03L504.455 850.296L503.816 850.152L504.032 849.291L501.683 845.61L499.983 845.203L498.11 845.981L497.739 847.378L496.586 847.558L496.243 846.494L497.127 845.134L497.331 844.998L499.236 843.095L499.167 841.395L499.303 841.123L500.553 839.958ZM529.355 847.446L525.547 837.383L525.819 824.329L523.1 821.882L524.731 817.802C522.369 814.375 517.683 814.411 518.999 817.489L517.902 821.355L520.924 822.426L518.476 825.961L518.048 833.707L515.697 835.092L514.294 836.869L514.929 837.992L516.318 837.294L517.915 836.916L517.477 850.01L515.091 851.54L521.196 851.253L522.284 841.464L526.255 848.279L524.686 851.273L526.524 851.203L529.355 847.446" fill="#66C993"/>
<path fill-rule="evenodd" clip-rule="evenodd" d="M442.064 844.611C438.341 841.563 434 835.493 435.606 830.023L437.913 822.16L443.956 815.957C442.487 809.969 443.08 807.938 446.5 806.135C448.434 805.116 451.434 804.339 453.415 805.846L452.834 807.247L453.477 809.252L453.309 810.721L452.488 816.223L450.169 816.281L454.553 820.715L454.612 839.006L456.992 852.246L455.631 869.82L459.708 870.464L460.777 872.353L450.312 872.321L450.704 857.53L449.124 851.716L445.045 870.115L448.281 871.399L448.761 872.492L438.726 872.432L442.064 844.611" fill="#66C993"/>
<path fill-rule="evenodd" clip-rule="evenodd" d="M460.054 821.161C459.723 816.558 458.906 814.316 464.289 812.853C467.223 812.056 471.027 812.076 469.902 815.615L471.507 820.207L469.57 820.962L469.967 822.998L472.059 824.706L472.229 825.32L477.147 842.335L476.058 843.892L476.659 851.583L474.857 852.508L475.156 869.03L480.115 871.809L472.291 871.845L469.218 852.881L467.904 859.957L466.232 867.076L466.842 869.927L468.996 872.008L464.973 872.019L461.458 868.923L464.524 858.507L464.02 852.106L459.179 848.329L462.396 828.538L459.879 826.595C460.579 824.069 460.241 823.748 460.054 821.161" fill="#66C993"/>
<path fill-rule="evenodd" clip-rule="evenodd" d="M350.613 827.355C350.985 827.438 351.303 827.663 351.507 827.969L354.731 827.982L352.357 818.024L351.214 818.341L350.503 818.87L350.613 827.355ZM351.858 813.388L352.192 811.667C351.533 811.754 351.118 812.029 350.922 811.454C350.525 810.296 350.619 808.633 351.374 807.772C353.088 805.821 354.736 809.099 355.147 810.442L353.855 811.133C357.036 812.377 357.287 816.798 358.114 819.926L356.469 821.346L359.524 824.226V826.104L358.466 824.93L355.764 823.751L356.286 827.987L361.544 828.007C361.801 827.595 362.258 827.32 362.78 827.32C363.583 827.32 364.233 827.971 364.233 828.775C364.233 829.577 363.583 830.228 362.78 830.228C362.104 830.228 361.536 829.768 361.373 829.144L351.705 829.138C351.543 829.765 350.974 830.228 350.297 830.228C349.494 830.228 348.843 829.577 348.843 828.775C348.843 828.103 349.298 827.538 349.915 827.372V818.858L349.563 818.848L349.328 818.924L348.741 818.794L349.034 817.832L349.892 817.405L349.89 817.393L351.888 816.297L351.858 813.388" fill="#66C993"/>
<path fill-rule="evenodd" clip-rule="evenodd" d="M557.792 819.263L557.466 818.753V818.958L557.556 819.293L557.792 819.263ZM552.731 824.736C553.045 821.131 552.412 817.67 554.732 814.769L553.398 814.65C554.337 813.28 553.085 811.752 554.895 810.537C556.159 809.688 558.973 811.348 557.732 811.827L557.756 812.446L557.334 814.224L557.018 814.238L556.8 814.769L557.825 815.317L558.765 818.394L559.653 818.574L560.167 818.804L560.25 819.051C560.702 819.109 561.143 819.35 561.82 820.259L563.259 822.188C563.524 820.491 564.955 820.521 565.482 822.24L565.213 823.052L565.721 823.112L566.952 825.026L568.114 825.163L568.832 828.786L568.811 828.81L568.812 828.832C568.812 829.442 568.316 829.938 567.705 829.938C567.125 829.938 566.649 829.491 566.602 828.923H564.722C564.676 829.491 564.2 829.938 563.62 829.938C563.008 829.938 562.512 829.442 562.512 828.832C562.512 828.795 562.515 828.759 562.518 828.723L562.474 828.719L561.226 828.731C561.229 828.764 561.231 828.798 561.231 828.832C561.231 829.442 560.735 829.938 560.124 829.938C559.512 829.938 559.017 829.442 559.017 828.832C559.017 828.496 559.166 828.197 559.4 827.993L559.26 827.829L557.925 824.908L557.551 825.095L556.601 829.312L558.133 829.983H555.705L555.432 825.642L553.044 827.461L553.107 829.061L552.694 829.083L551.876 827.248L553.654 824.958L552.731 824.736Z" fill="#66C993"/>
<path fill-rule="evenodd" clip-rule="evenodd" d="M413.116 815.287L410.779 816.887V817.256L410.41 821.684L411.485 824.713L411.464 826.852L411.833 829.19L412.202 830.378L414.213 830.554L414.129 827.442L415.707 830.375L417.253 830.762L417.342 821.684L416.66 816.799L415.28 815.294C415.877 815.133 415.77 814.186 415.774 813.4C415.782 812.112 414.93 810.844 413.211 811.608C412.116 812.095 411.747 813.918 413.116 815.287" fill="#66C993"/>
<path d="M743.507 676.15C746.84 660.051 754.23 655.21 763.843 650.731C787.156 639.865 823.635 646.444 830.704 676.132C834.032 690.107 830.295 705.98 821.121 716.765C821.856 716.313 824.681 713.715 829.03 711.795C833.38 709.873 839.255 708.631 843.83 709.366C848.406 710.1 851.682 712.811 853.66 715.579C855.636 718.347 856.314 721.171 856.201 723.487C856.088 725.804 855.184 727.611 854.845 728.402C854.696 728.749 854.658 728.901 854.975 728.889C927.892 713.291 941.455 789.594 899.633 814.051C892.527 818.206 881.688 818.676 866.877 818.953C845.695 819.347 815.078 817.088 791.861 811.553C768.645 806.017 752.828 797.205 745.936 785.398C739.045 773.593 741.078 758.792 741.361 738.458C741.643 718.121 740.174 692.25 743.507 676.15V676.15Z" stroke="#FFFAF3" stroke-width="0.976667" stroke-miterlimit="22.9256"/>
<path fill-rule="evenodd" clip-rule="evenodd" d="M779.959 824.724V715.16H834.125V825.032L779.959 824.724" fill="#FFFAF3"/>
<path fill-rule="evenodd" clip-rule="evenodd" d="M760.57 760.094H857.207V824.724H760.57V760.094" fill="#FFFAF3"/>
<path fill-rule="evenodd" clip-rule="evenodd" d="M852.898 746.861H871.98V825.032H852.898V746.861" fill="#FFFAF3"/>
<path fill-rule="evenodd" clip-rule="evenodd" d="M787.191 693.618H826.893V727.472H787.191V693.618" fill="#FFFAF3"/>
<path fill-rule="evenodd" clip-rule="evenodd" d="M796.274 677.573C796.274 664.938 817.809 665.283 817.809 677.573V700.697H796.274V677.573Z" fill="#FFFAF3"/>
<path fill-rule="evenodd" clip-rule="evenodd" d="M806.58 626.834H807.503V674.844H806.58V626.834Z" fill="#FFFAF3"/>
<path fill-rule="evenodd" clip-rule="evenodd" d="M775.566 752.32H779.874V825.26H775.566V752.32Z" fill="#F59444"/>
<path fill-rule="evenodd" clip-rule="evenodd" d="M777.72 788.422H830.04V808.965H777.72V788.422Z" fill="#F59444"/>
<path fill-rule="evenodd" clip-rule="evenodd" d="M848.582 752.32H852.891V825.26H848.582V752.32Z" fill="#F59444"/>
<path fill-rule="evenodd" clip-rule="evenodd" d="M862.436 754.168C865.835 754.168 868.591 756.924 868.591 760.324C868.591 763.722 865.835 766.477 862.436 766.477C859.036 766.477 856.281 763.722 856.281 760.324C856.281 756.924 859.036 754.168 862.436 754.168Z" fill="#FFFAF3"/>
<path d="M862.436 754.168C865.835 754.168 868.591 756.924 868.591 760.324C868.591 763.722 865.835 766.477 862.436 766.477C859.036 766.477 856.281 763.722 856.281 760.324C856.281 756.924 859.036 754.168 862.436 754.168Z" stroke="#F59444" stroke-width="0.976667" stroke-miterlimit="22.9256"/>
<path fill-rule="evenodd" clip-rule="evenodd" d="M839.503 820.91C838.734 820.216 838.228 818.85 837.967 817.2C837.707 815.55 837.694 813.615 837.909 811.614C838.122 809.612 838.562 807.542 839.14 806.015C839.718 804.488 840.436 803.503 841.09 803.272C841.746 803.041 842.337 803.565 842.689 805.069C843.041 806.574 843.153 809.06 843.394 811.274C843.636 813.489 844.008 815.434 844.099 816.836C844.192 818.237 844.002 819.094 843.659 819.807C843.318 820.521 842.822 821.09 842.06 821.361C841.299 821.633 840.27 821.607 839.503 820.91" fill="#F59444"/>
<path fill-rule="evenodd" clip-rule="evenodd" d="M858.122 807.694C857.892 809.605 857.84 812.015 857.956 813.837C858.071 815.657 858.354 816.889 858.763 817.8C859.174 818.71 859.713 819.3 860.354 818.979C860.996 818.659 861.739 817.428 862.239 816.017C862.738 814.606 862.995 813.016 863.034 811.156C863.073 809.297 862.893 807.17 862.509 805.566C862.124 803.963 861.533 802.885 860.943 802.54C860.354 802.193 859.764 802.578 859.264 803.476C858.763 804.373 858.354 805.784 858.122 807.694" fill="#F3615E"/>
<path fill-rule="evenodd" clip-rule="evenodd" d="M864.162 809.297C863.534 809.99 862.816 811.17 862.328 812.157C861.841 813.144 861.585 813.94 861.636 814.799C861.687 815.657 862.047 816.582 862.585 817.299C863.123 818.018 863.842 818.53 864.636 818.646C865.432 818.762 866.304 818.479 867.034 817.992C867.766 817.505 868.356 816.811 868.676 816.17C868.997 815.53 869.047 814.939 868.843 814.388C868.637 813.837 868.176 813.324 867.766 813.132C867.355 812.939 866.996 813.067 866.803 812.914C866.611 812.76 866.586 812.324 866.458 811.491C866.329 810.657 866.098 809.426 865.714 808.912C865.329 808.4 864.791 808.606 864.162 809.297Z" fill="#F3615E"/>
<path fill-rule="evenodd" clip-rule="evenodd" d="M773.822 799.499C772.661 798.142 771.559 797.782 770.746 799.038C769.934 800.295 769.412 803.168 768.86 805.861C768.309 808.553 767.729 811.067 767.729 813.119C767.729 815.171 768.309 816.761 769.093 817.709C769.877 818.659 770.862 818.966 771.936 818.479C773.009 817.992 774.169 816.71 775.04 815.35C775.91 813.991 776.491 812.554 776.839 810.913C777.188 809.272 777.304 807.425 776.753 805.322C776.201 803.219 774.982 800.86 773.822 799.499" fill="#F59444"/>
<path fill-rule="evenodd" clip-rule="evenodd" d="M765.794 806.964C765.076 808.81 764.46 811.272 764.306 813.401C764.152 815.53 764.46 817.325 764.871 818.53C765.281 819.735 765.794 820.352 766.357 820.684C766.922 821.018 767.538 821.069 768.461 819.889C769.384 818.71 770.615 816.299 771.205 814.402C771.795 812.503 771.743 811.118 771.128 809.246C770.513 807.374 769.333 805.014 768.333 804.449C767.333 803.886 766.513 805.117 765.794 806.964" fill="#F59444"/>
<path fill-rule="evenodd" clip-rule="evenodd" d="M789.315 799.254V819.257H786.239V799.254H783.775V788.79H838.25V799.254H835.788V819.257H832.71V799.254H826.492V819.257H823.415V799.254H817.199V819.257H814.121V799.254H807.904V819.257H804.826V799.254H798.61V819.257H795.532V799.254H789.315" fill="#FFFAF3"/>
<path d="M789.315 799.254V819.257H786.239V799.254H783.775V788.79H838.25V799.254H835.788V819.257H832.71V799.254H826.492V819.257H823.415V799.254H817.199V819.257H814.121V799.254H807.904V819.257H804.826V799.254H798.61V819.257H795.532V799.254H789.315Z" stroke="#F59444" stroke-width="0.976267" stroke-miterlimit="22.9256"/>
<path d="M784.954 714.734H828.964" stroke="#F59444" stroke-width="0.976667" stroke-miterlimit="22.9256"/>
<path d="M787.345 721.081V782.633" stroke="#F59444" stroke-width="0.976667" stroke-miterlimit="22.9256"/>
<path d="M826.739 721.081V782.633" stroke="#F59444" stroke-width="0.976667" stroke-miterlimit="22.9256"/>
<path d="M812.735 694.921V714.619" stroke="#F3615E" stroke-width="3.63293" stroke-miterlimit="22.9256"/>
<path d="M814.736 720.159V783.25" stroke="#F59444" stroke-width="1.1448" stroke-miterlimit="22.9256"/>
<path d="M809.607 720.159V783.25" stroke="#F59444" stroke-width="1.1448" stroke-miterlimit="22.9256"/>
<path d="M804.477 720.159V783.25" stroke="#F59444" stroke-width="1.1448" stroke-miterlimit="22.9256"/>
<path d="M799.347 720.159V783.25" stroke="#F59444" stroke-width="1.1448" stroke-miterlimit="22.9256"/>
<path fill-rule="evenodd" clip-rule="evenodd" d="M817.498 715.081H821.806V788.808H817.498V715.081Z" fill="#F59444"/>
<path fill-rule="evenodd" clip-rule="evenodd" d="M811.035 693.692H815.344V714.945H811.035V693.692Z" fill="#F59444"/>
<path fill-rule="evenodd" clip-rule="evenodd" d="M860.052 781.386H905.711V825.147H860.052V781.386Z" fill="#FFFAF3"/>
<path d="M860.052 781.386H905.711V825.147H860.052V781.386Z" stroke="#F59444" stroke-width="0.976667" stroke-miterlimit="22.9256"/>
<path fill-rule="evenodd" clip-rule="evenodd" d="M883.281 769.057L906.47 781.55H859.218L883.281 769.057Z" fill="#FFFAF3"/>
<path d="M883.281 769.057L906.47 781.55H859.218L883.281 769.057Z" stroke="#F59444" stroke-width="1.18493" stroke-miterlimit="22.9256"/>
<path fill-rule="evenodd" clip-rule="evenodd" d="M846.014 795.045H919.75V825.147H846.014V795.045Z" fill="#FFFAF3"/>
<path d="M846.014 795.045H919.75V825.147H846.014V795.045Z" stroke="#F59444" stroke-width="0.976667" stroke-miterlimit="22.9256"/>
<path fill-rule="evenodd" clip-rule="evenodd" d="M861.631 794.959L852.167 800.19V824.965H860.939L860.785 823.58V811.424H906.257H907.912V802.652L878.019 789.111L866.478 794.959H861.631Z" fill="#F59444"/>
<path fill-rule="evenodd" clip-rule="evenodd" d="M855.373 800.231H910.39V804.406H855.373V800.231Z" fill="#FFFAF3"/>
<path d="M855.373 800.231H910.39V804.406H855.373V800.231Z" stroke="#F59444" stroke-width="0.976267" stroke-miterlimit="22.9256"/>
<path fill-rule="evenodd" clip-rule="evenodd" d="M858.661 805.922H861.57V820.847H858.661V805.922Z" fill="#FFFAF3"/>
<path d="M858.661 805.922H861.57V820.847H858.661V805.922Z" stroke="#F59444" stroke-width="0.976267" stroke-miterlimit="22.9256"/>
<path fill-rule="evenodd" clip-rule="evenodd" d="M866.313 805.922H869.223V820.847H866.313V805.922Z" fill="#FFFAF3"/>
<path d="M866.313 805.922H869.223V820.847H866.313V805.922Z" stroke="#F59444" stroke-width="0.976667" stroke-miterlimit="22.9256"/>
<path fill-rule="evenodd" clip-rule="evenodd" d="M873.966 805.922H876.874V820.847H873.966V805.922Z" fill="#FFFAF3"/>
<path d="M873.966 805.922H876.874V820.847H873.966V805.922Z" stroke="#F59444" stroke-width="0.976667" stroke-miterlimit="22.9256"/>
<path fill-rule="evenodd" clip-rule="evenodd" d="M881.618 805.922H884.526V820.847H881.618V805.922Z" fill="#FFFAF3"/>
<path d="M881.618 805.922H884.526V820.847H881.618V805.922Z" stroke="#F59444" stroke-width="0.976667" stroke-miterlimit="22.9256"/>
<path fill-rule="evenodd" clip-rule="evenodd" d="M889.27 805.922H892.178V820.847H889.27V805.922Z" fill="#FFFAF3"/>
<path d="M889.27 805.922H892.178V820.847H889.27V805.922Z" stroke="#F59444" stroke-width="0.976667" stroke-miterlimit="22.9256"/>
<path fill-rule="evenodd" clip-rule="evenodd" d="M896.922 805.922H899.83V820.847H896.922V805.922Z" fill="#FFFAF3"/>
<path d="M896.922 805.922H899.83V820.847H896.922V805.922Z" stroke="#F59444" stroke-width="0.976667" stroke-miterlimit="22.9256"/>
<path fill-rule="evenodd" clip-rule="evenodd" d="M904.573 805.922H907.482V820.847H904.573V805.922Z" fill="#FFFAF3"/>
<path d="M904.573 805.922H907.482V820.847H904.573V805.922Z" stroke="#F59444" stroke-width="0.976667" stroke-miterlimit="22.9256"/>
<path d="M846.267 800.231H919.876" stroke="#F59444" stroke-width="0.976667" stroke-miterlimit="22.9256"/>
<path fill-rule="evenodd" clip-rule="evenodd" d="M883.351 786.56L910.163 800.231H855.526L883.351 786.56Z" fill="#FFFAF3"/>
<path d="M883.351 786.56L910.163 800.231H855.526L883.351 786.56Z" stroke="#F59444" stroke-width="1.26507" stroke-miterlimit="22.9256"/>
<path fill-rule="evenodd" clip-rule="evenodd" d="M937.298 818.671C937.183 818.67 937.068 818.662 936.96 818.646C936.168 818.53 935.446 818.018 934.908 817.299C934.716 817.038 934.539 816.751 934.401 816.449C933.917 817.654 933.271 818.66 932.703 818.965V821.031C933.095 821.117 933.433 821.272 933.74 821.492C934.194 821.813 934.578 822.275 934.77 822.532C934.962 822.788 934.962 822.839 935.116 822.71C935.269 822.583 935.577 822.275 935.999 821.929C936.345 821.648 936.76 821.342 937.298 821.175V818.671ZM911.698 820.785C911.001 820.059 910.536 818.756 910.291 817.199C910.031 815.55 910.019 813.615 910.232 811.614C910.446 809.612 910.886 807.542 911.465 806.015C912.042 804.488 912.76 803.503 913.414 803.272C914.069 803.041 914.662 803.565 915.014 805.069C915.365 806.574 915.476 809.06 915.718 811.274C915.96 813.489 916.332 815.434 916.423 816.836C916.515 818.237 916.326 819.094 915.983 819.807C915.786 820.22 915.536 820.584 915.215 820.87C915.701 821.003 916.183 821.132 916.674 821.146C917.546 821.172 918.444 820.839 919.213 820.544C919.982 820.249 920.623 819.992 921.393 819.979C922.162 819.967 923.06 820.198 923.855 820.531C924.65 820.864 925.342 821.3 925.97 821.608C926.6 821.915 927.164 822.095 927.831 821.993C928.499 821.89 929.268 821.505 930.021 821.262C930.659 821.059 931.281 820.953 931.834 820.946V818.88C931.55 818.663 931.304 818.275 931.089 817.8C930.674 816.889 930.397 815.657 930.282 813.837C930.167 812.015 930.213 809.605 930.443 807.694C930.674 805.784 931.089 804.373 931.588 803.476C932.088 802.578 932.68 802.193 933.264 802.54C933.855 802.885 934.447 803.963 934.831 805.566C935.2 807.086 935.377 809.079 935.362 810.867C935.723 810.268 936.122 809.7 936.484 809.297C937.114 808.606 937.652 808.4 938.036 808.912C938.42 809.426 938.651 810.657 938.781 811.491C938.912 812.324 938.935 812.76 939.127 812.914C939.319 813.067 939.68 812.939 940.088 813.132C940.503 813.324 940.964 813.837 941.163 814.388C941.371 814.939 941.317 815.53 941.002 816.171C940.679 816.811 940.088 817.505 939.358 817.993C938.989 818.239 938.581 818.433 938.166 818.549V821.045C938.797 821.039 939.496 821.198 940.088 821.492C940.833 821.865 941.394 822.454 941.771 823.147C942.139 823.839 942.324 824.634 941.794 825.096C941.271 825.557 940.042 825.686 934.862 825.699C929.683 825.712 920.556 825.609 915.827 825.506C911.097 825.404 910.763 825.301 910.674 825.134C910.584 824.968 910.738 824.737 910.646 824.211C910.554 823.685 910.216 822.865 910.29 822.223C910.365 821.582 910.852 821.121 911.558 820.839C911.603 820.82 911.651 820.803 911.698 820.785" fill="#F59444"/>
<path fill-rule="evenodd" clip-rule="evenodd" d="M815.347 834.251L812.215 825.972L812.438 815.234L810.202 813.221L811.544 809.864C809.601 807.044 805.746 807.076 806.828 809.608L805.927 812.788L808.412 813.669L806.399 816.577L805.991 823.959L805.577 836.359L803.614 837.62L808.636 837.383L809.53 829.328L812.798 834.935L811.506 837.398L813.018 837.341L815.347 834.251" fill="#F59444"/>
<path fill-rule="evenodd" clip-rule="evenodd" d="M787.999 816.091L785.951 817.491V817.815L785.628 821.696L786.274 824.607L785.52 826.223L785.843 828.271L786.167 829.349L790.37 829.134L790.575 827.955L790.755 829.866L789.467 830.142L790.019 832.075L792.69 830.511L792.874 827.656L796.005 830.879L797.019 830.05L795.176 826.827L795.047 826.159L796.12 825.85L796.456 824.62L795.103 824.244L794.901 822.222L793.703 821.117L794.347 820.196L794.532 818.446L792.874 818.17L791.769 819.183L791.861 821.393L791.641 821.602L790.263 815.875L789.832 813.287L788.214 812.425L787.244 813.287L786.813 814.905L787.999 816.091" fill="#F59444"/>
<path fill-rule="evenodd" clip-rule="evenodd" d="M777.585 831.046L777.069 826.746L777.657 827.048L777.585 831.046ZM778.492 817.301L778.229 816.402L776.109 814.226C776.624 812.126 776.416 811.413 775.216 810.781C774.538 810.423 773.486 810.15 772.791 810.679L772.995 811.171L772.769 811.875L772.827 812.39L773.115 814.319L773.929 814.34L772.392 815.895L772.371 822.312L771.536 826.957L772.013 833.121L770.583 833.347L770.208 834.01L773.879 833.999L773.742 828.81L774.296 826.77L775.727 833.225L774.592 833.675L774.423 834.059L777.944 834.037L777.918 833.828L778.556 833.831L779.635 827.179L780.682 832.158L780.469 833.158L779.712 833.889L781.124 833.893L782.357 832.807L781.382 829.957L781.459 826.907L783.156 825.582L782.329 819.193L783.213 818.51C782.967 817.624 783.085 817.312 783.151 816.403C783.268 814.79 783.201 813.249 781.313 812.735C780.284 812.456 778.95 812.463 779.345 813.704L778.681 815.616L779.512 815.982L779.372 816.696L778.492 817.301V817.301ZM776.773 824.278C776.902 824.172 777.035 824.054 777.168 823.928L777.235 824.026L777.041 826.516L776.773 824.278" fill="#F59444"/>
<path fill-rule="evenodd" clip-rule="evenodd" d="M831.194 814.974L832.483 817.551L829.987 819.934L828.378 828.514L830.256 828.38L829.719 832.536L831.194 833.207L832.535 829.184L832.668 832.402H834.546L836.422 817.654L835.617 817.119L836.288 814.438L835.35 812.426C834.836 812.426 834.948 812.52 834.948 812.158L832.937 812.426L831.194 814.974ZM823.789 816.448L824.12 816.904L822.583 818.057L820.706 823.286L821.645 826.905L823.12 827.308L823.789 833.073L826.739 833.207L826.605 828.112L828.348 820.203L826.968 817.338L827.275 817.253L827.544 816.85V814.303L825.935 813.365H824.46L823.789 816.448" fill="#F59444"/>
<path fill-rule="evenodd" clip-rule="evenodd" d="M850.249 818.89L849.347 819.63L850.245 824.425L850.146 827.121L851.045 827.321L850.846 830.017L852.244 830.317L852.942 828.22L853.442 830.017L854.74 830.117L854.64 823.026V822.727L852.743 818.032L852.511 818.068L852.743 817.634L851.644 815.237L849.947 815.336L849.647 817.233L850.249 818.89" fill="#F59444"/>
<path fill-rule="evenodd" clip-rule="evenodd" d="M868.532 855.588L867.363 847.694L863.702 846.172L865.759 838.479L864.421 824.342L867.099 821.122C866.29 819.459 865.967 817.568 866.231 816.105C866.625 813.933 868.318 812.705 871.65 814.575L873.231 821.77L872.449 822.094L874.799 824.342L874.792 824.795L877.65 834.639L879.85 822.87L883.554 821.598L881.523 820.895L883.11 815.19C881.145 813.726 888.802 813.149 888.306 817.308L887.419 821.499L892.162 824.26L893.943 832.91L890.086 838.317L890.383 842.024L890.977 850.365L891.57 851.661L890.408 855.299L889.029 855.355L888.78 850.627L885.881 842.512L885.784 856.853L881.191 857.118L882.837 855.198L881.334 840.788L880.846 835.378L878.983 840.373L876.586 840.325L876.65 839.981L874.432 835.678L873.674 843.847L873.687 849.215L875.06 854.015L873.988 857.055L872.529 857.224L872.625 854.544L871.034 850.304L870.967 857.267L865.196 857.625L868.532 855.588" fill="#F59444"/>
<path fill-rule="evenodd" clip-rule="evenodd" d="M902.807 819.524L903.035 819.837L902.282 820.401L902.289 820.366L901.386 819.625L901.989 817.969L901.69 816.071L899.992 815.972L898.893 818.369L899.126 818.803L898.893 818.768L896.995 823.462V823.761L896.896 830.853L898.194 830.753L898.694 828.955L899.393 831.052L900.791 830.753L900.592 828.055L901.49 827.856L901.449 826.75L902.345 826.993L902.807 830.96L904.836 831.052L904.744 827.548L905.943 822.106L904.994 820.137L905.205 820.077L905.389 819.801V818.049L904.282 817.402H903.268L902.807 819.524" fill="#F59444"/>
</g>
<defs>
<clipPath id="clip0">
<rect width="1199" height="818" fill="white"/>
</clipPath>
</defs>
</svg>
