<svg width="334" height="105" viewBox="0 0 334 105" fill="none" xmlns="http://www.w3.org/2000/svg">
<path fill-rule="evenodd" clip-rule="evenodd" d="M78.879 46.9916C78.0838 45.8108 77.8267 44.4604 78.0579 42.9413C78.2891 41.4223 79.0075 39.7345 80.1375 38.8063C81.2665 37.878 82.8079 37.7102 83.9111 38.2163C85.0161 38.7224 85.6828 39.9032 86.2727 41.4785C86.8636 43.0538 87.3777 45.0227 87.275 46.6266C87.1724 48.2296 86.453 49.4675 85.5292 50.0021C84.9518 50.3359 84.2949 50.3949 83.5826 50.2485V56.5934H81.7815V49.5389C80.6882 48.9329 79.577 48.0279 78.879 46.9916ZM102.524 49.7665C99.5973 48.9989 98.6726 47.3522 98.3138 45.6511C97.9541 43.9508 98.1594 42.1943 98.7494 40.5208C99.3402 38.8473 100.317 37.2559 101.446 36.1581C102.576 35.0612 103.859 34.4579 105.323 34.3749C106.786 34.2927 108.429 34.7319 109.559 35.6922C110.688 36.6526 111.305 38.1342 111.664 39.7247C112.023 41.3178 112.127 43.0181 112.152 44.0052C112.177 44.9933 112.127 45.2664 112.306 45.1852C112.485 45.1031 112.896 44.6639 113.718 44.2248C114.54 43.7857 115.772 43.3465 116.902 43.3189C118.032 43.2912 119.058 43.6759 119.751 44.5818C120.445 45.4868 120.804 46.9131 120.778 48.0377C120.753 49.1632 120.342 49.9861 119.366 50.3154C118.39 50.6448 116.851 50.4796 113.615 50.4529C110.381 50.4252 105.45 50.535 102.524 49.7665ZM38.1351 40.5958C36.2858 35.6065 34.4382 27.356 34.4382 20.5434C34.4382 13.7316 36.2858 8.35946 38.751 4.80898C41.2161 1.2594 44.2971 -0.46674 46.9667 0.10894C49.6371 0.683727 51.8961 3.56301 52.8199 7.97567C53.7445 12.3883 53.334 18.337 53.1287 21.3118C52.9234 24.2866 52.9234 24.2866 53.1287 23.8056C53.334 23.3254 53.7445 22.3668 54.9771 21.3127C56.2097 20.256 58.2634 19.1055 60.0092 19.2974C61.755 19.4893 63.1928 21.0235 64.2192 23.3254C64.7342 24.4785 65.1448 25.8236 65.3501 27.3489C66.4961 26.0217 67.7349 24.9239 68.8408 24.2152C71.4086 22.5694 73.257 23.0085 74.4896 24.765C75.7221 26.5197 76.3371 29.5936 76.2354 33.2137C76.1327 36.8356 75.3116 41.0063 74.0272 43.6393C72.7438 46.2732 70.9971 47.371 69.4825 47.8922C69.113 48.0189 68.7569 48.1127 68.415 48.1725V56.5934H66.6139V48.176C66.2524 48.1064 65.9088 47.9922 65.5795 47.8369C64.4763 47.3156 63.5516 46.3294 62.602 43.8321C62.3673 43.2145 62.1307 42.5058 61.9254 41.7293C61.5997 42.3228 61.2667 42.8771 60.9338 43.3778C59.5879 45.4021 58.2438 46.5632 56.5033 47.3049V56.5934H54.7022V47.9002C54.5898 47.9288 54.4764 47.9565 54.3604 47.9832C51.9273 48.5518 48.7598 48.7758 46.1 48.367V56.5934H44.2998V47.9618C41.6543 47.138 39.8943 45.3449 38.1351 40.5958Z" fill="#66C993"/>
<path fill-rule="evenodd" clip-rule="evenodd" d="M283.916 51.1365C281.272 50.1485 278.345 48.2287 276.162 45.8412C273.98 43.4546 272.542 40.6011 271.875 37.4461C271.206 34.291 271.31 30.8333 272.157 27.7068C273.004 24.5794 274.596 21.7804 276.702 18.9279C278.807 16.0736 281.426 13.1666 284.352 11.4646C287.279 9.76344 290.514 9.26986 293.107 11.1906C295.7 13.1104 297.651 17.4454 298.91 20.7379C300.168 24.0296 300.732 26.2796 301.067 27.5685C301.401 28.8591 301.502 29.1884 301.991 29.0786C302.479 28.9688 303.351 28.4199 304.532 28.4199C305.713 28.4199 307.203 28.9688 308.409 29.9292C309.616 30.8895 310.54 32.2605 310.796 34.0714C310.887 34.7149 310.895 35.4138 310.832 36.1412C311.039 36.0653 311.251 35.9939 311.464 35.9261C313.415 35.3058 315.675 35.005 317.575 35.7047C319.475 36.4045 321.014 38.1047 321.657 39.6461C322.299 41.1858 322.042 42.5674 321.836 43.534C321.632 44.5024 321.477 45.0567 321.528 45.1646C321.58 45.2726 321.836 44.9335 322.658 44.4658C323.48 43.9972 324.866 43.3983 326.201 43.2939C327.536 43.1913 328.819 43.5849 329.898 44.2043C330.976 44.8228 331.849 45.6698 332.568 46.4659C333.287 47.2639 333.852 48.0118 333.981 48.6107C334.108 49.2096 333.8 49.6594 326.817 49.8575C321.027 50.0209 310.648 50.0102 303.655 49.7576C302.889 50.4136 302.288 50.6778 301.297 51.0812C300.218 51.5203 298.678 52.1237 296.934 52.3432C295.187 52.5628 293.236 52.3986 291.079 52.2888C290.142 52.2415 289.168 52.204 288.148 52.096V56.5934H286.346V51.8256C285.563 51.6685 284.753 51.4489 283.916 51.1365ZM245.583 54.5174V56.5934H243.782V53.8909C243.709 53.8364 243.633 53.7784 243.556 53.715C242.401 52.7824 240.809 51.0267 240.013 50.1208C239.217 49.2158 239.217 49.1614 239.063 49.9852C238.909 50.8063 238.601 52.5083 238.087 53.6053C237.573 54.7031 236.855 55.1966 235.314 55.1422C233.774 55.0869 231.412 54.4844 229.795 52.9743C228.178 51.4659 227.305 49.0516 226.893 46.3071C226.483 43.5643 226.534 40.4914 226.893 37.9396C227.253 35.3888 227.92 33.3592 228.869 31.8767C229.82 30.3951 231.052 29.4624 232.311 29.4901C233.568 29.5177 234.853 30.5049 235.52 30.9993C236.187 31.4929 236.239 31.4929 236.316 30.3674C236.392 29.2428 236.495 26.9937 237.06 24.0581C237.625 21.1226 238.652 17.5008 240.013 14.7295C241.374 11.9582 243.069 10.0383 244.942 9.54477C246.816 9.0503 248.871 9.98298 250.052 12.6998C251.233 15.4158 251.54 19.915 251.54 25.0176C251.54 30.1211 251.233 35.827 250.59 40.3539C249.949 44.8817 248.974 48.2287 248.177 50.4502C247.381 52.6726 246.765 53.7704 246.098 54.264C245.931 54.3871 245.761 54.4728 245.583 54.5174ZM182.093 47.5986L181.982 45.7028L181.964 45.7296C179.961 48.7249 177.24 51.1374 174.801 52.2656C174.008 52.6324 173.245 52.8636 172.524 52.9537V56.5934H170.723V52.8582C169.962 52.6637 169.279 52.262 168.691 51.6426C167.175 50.0485 166.303 47.0131 166.225 42.4621C166.149 37.9084 166.868 31.8383 167.741 27.0142C168.614 22.1901 169.64 18.6111 171.181 16.8215C172.722 15.0311 174.776 15.0311 176.752 16.0424C178.577 16.9768 180.336 18.7726 181.868 21.7358C182.245 19.1448 182.796 17.2776 183.376 15.6354C184.326 12.9462 185.353 10.8621 186.457 9.18865C187.561 7.51516 188.742 6.25224 189.897 6.69225C191.053 7.13137 192.182 9.27077 192.748 12.8096C193.312 16.3494 193.312 21.2869 192.542 27.7345C192.501 28.0763 192.458 28.4217 192.413 28.7716C193.398 27.3587 194.627 26.4323 195.956 26.0619C197.728 25.5674 199.679 26.061 201.579 28.3655C203.479 30.67 205.327 34.7854 205.995 38.7911C206.662 42.7968 206.149 46.6926 205.174 49.4354C204.197 52.179 202.76 53.7713 200.218 53.9355C199.897 53.9569 199.558 53.9543 199.206 53.9311V56.5934H197.405V53.6633C195.403 53.2152 193.278 52.2817 191.771 51.1642C190.388 50.1387 189.524 48.9606 189.022 47.7155C188.112 51.8149 187.6 53.2108 186.611 53.8811C186.429 54.0033 186.231 54.1024 186.023 54.1792V56.5934H184.222V54.338C183.815 54.2729 183.445 54.1426 183.171 53.9632C182.375 53.4419 182.375 52.5092 182.093 47.5986Z" fill="#66C993"/>
<path fill-rule="evenodd" clip-rule="evenodd" d="M0 54.9262H327.294C325.842 55.775 324.322 56.6229 322.733 57.4664H3.52906C2.33664 56.6354 1.16029 55.7875 0 54.9262Z" fill="#66C993"/>
<path fill-rule="evenodd" clip-rule="evenodd" d="M192.687 66.6451L190.603 65.6294C187.893 64.5004 187.778 63.939 188.157 62.5493L190.367 62.9438L191.842 62.1673L192.73 62.178L193.266 60.4358L194.395 62.5493L194.794 60.8356C195.131 60.7312 195.832 63.2026 196.138 63.2026L196.329 66.5568L196.325 66.5657L202.37 68.0767L202.607 67.9982L203.239 66.4193L201.738 64.6012C206.05 63.2062 207.897 66.4496 204.818 69.578L204.976 69.893L206.792 74.2361L208.53 74.7109L209.477 78.7371L208.45 79.2896L208.372 79.0539L207.345 76.6057L204.345 75.8158L203.001 73.8416L200.948 75.499L201.659 76.7628L200.238 78.7371L199.313 78.7067L199.054 78.264L199.686 76.7628L198.066 74.7493L198.817 73.0517L196.842 73.9201L198.422 78.3426L197.219 78.6523L196.477 78.4845L196.728 77.4849L194 73.2097L192.026 72.7366L189.85 73.6407L189.419 75.2625L188.08 75.4722L187.682 74.2361L188.708 72.6572L188.946 72.4992L191.157 70.2884L191.078 68.3141L191.235 67.9982L192.687 66.6451ZM226.139 75.3419L221.717 63.6542L222.033 48.4929L218.875 45.6502L220.769 40.9117C218.026 36.931 212.583 36.9739 214.111 40.5485L212.838 45.0388L216.347 46.2821L213.505 50.3886L213.007 59.3853L210.276 60.9936L208.647 63.0572L209.385 64.3611L210.997 63.5507L212.852 63.1116L212.344 78.3194L209.572 80.0973L216.663 79.7635L217.927 68.3936L222.54 76.3094L220.716 79.7867L222.851 79.7055L226.139 75.3419Z" fill="#66C993"/>
<path fill-rule="evenodd" clip-rule="evenodd" d="M124.755 72.0495C120.431 68.5088 115.389 61.4588 117.254 55.1058L119.934 45.9734L126.952 38.769C125.247 31.8144 125.935 29.4554 129.908 27.3616C132.154 26.1781 135.638 25.2748 137.938 27.0251L137.264 28.6531L138.011 30.9817L137.815 32.6873L136.862 39.0778L134.169 39.1456L139.26 44.2955L139.329 65.5394L142.093 80.9167L140.513 101.329L145.247 102.076L146.49 104.271L134.335 104.233L134.791 87.0546L132.955 80.3018L128.218 101.671L131.976 103.162L132.533 104.432L120.879 104.362L124.755 72.0495Z" fill="#66C993"/>
<path fill-rule="evenodd" clip-rule="evenodd" d="M145.65 44.813C145.265 39.4668 144.315 36.8624 150.568 35.1639C153.976 34.2383 158.393 34.2615 157.088 38.3716L158.951 43.7054L156.701 44.5819L157.163 46.9471L159.593 48.9303L159.79 49.6434L165.502 69.4058L164.238 71.214L164.935 80.1474L162.843 81.2211L163.189 100.41L168.949 103.639L159.862 103.681L156.293 81.6548L154.767 89.8723L152.825 98.1416L153.533 101.452L156.035 103.87L151.363 103.882L147.281 100.286L150.841 88.1881L150.255 80.7543L144.633 76.3675L148.369 53.3813L145.445 51.1241C146.259 48.1903 145.867 47.8182 145.65 44.813Z" fill="#66C993"/>
<path fill-rule="evenodd" clip-rule="evenodd" d="M18.5387 52.0069C18.9707 52.1033 19.3402 52.3648 19.5777 52.7209L23.3218 52.7352L20.5648 41.1698L19.2367 41.5384L18.4111 42.1524L18.5387 52.0069ZM19.9847 35.7851L20.3729 33.7867C19.608 33.8876 19.126 34.2062 18.8975 33.5386C18.437 32.1936 18.5459 30.2621 19.4232 29.2625C21.4136 26.9964 23.3281 30.8039 23.8056 32.3631L22.3043 33.1664C25.9994 34.6114 26.2904 39.7453 27.2507 43.3788L25.3407 45.0282L28.8885 48.3725V50.5547L27.6604 49.1909L24.5223 47.8209L25.1283 52.7414L31.235 52.7646C31.5331 52.2862 32.0641 51.9667 32.6702 51.9667C33.6029 51.9667 34.358 52.7227 34.358 53.6563C34.358 54.5881 33.6029 55.344 32.6702 55.344C31.8856 55.344 31.226 54.8094 31.0368 54.0847L19.807 54.0775C19.6196 54.8067 18.9582 55.344 18.1719 55.344C17.2392 55.344 16.4833 54.5881 16.4833 53.6563C16.4833 52.8762 17.0116 52.2202 17.7283 52.0265V42.1382L17.3195 42.1266L17.0464 42.2149L16.3645 42.0641L16.7055 40.9466L17.7016 40.4513L17.6998 40.437L20.0195 39.1642L19.9847 35.7851Z" fill="#66C993"/>
<path fill-rule="evenodd" clip-rule="evenodd" d="M259.167 42.6085L258.789 42.0167V42.2541L258.893 42.6442L259.167 42.6085ZM253.289 48.9651C253.654 44.7782 252.918 40.7583 255.613 37.3899L254.064 37.2515C255.155 35.6601 253.7 33.8858 255.802 32.4738C257.27 31.4884 260.539 33.4163 259.097 33.9724L259.126 34.6909L258.636 36.7562L258.268 36.7722L258.015 37.3899L259.205 38.0253L260.298 41.599L261.329 41.8088L261.926 42.0756L262.022 42.363C262.547 42.43 263.059 42.7102 263.846 43.7652L265.517 46.0063C265.824 44.0347 267.487 44.0704 268.1 46.0661L267.787 47.0095L268.377 47.0792L269.807 49.3024L271.156 49.4613L271.99 53.6696L271.966 53.6973L271.967 53.7223C271.967 54.4318 271.391 55.0075 270.681 55.0075C270.007 55.0075 269.454 54.488 269.4 53.8285H267.217C267.162 54.488 266.61 55.0075 265.936 55.0075C265.226 55.0075 264.65 54.4318 264.65 53.7223C264.65 53.6803 264.653 53.6384 264.656 53.5964L264.605 53.5911L263.156 53.6053C263.159 53.6437 263.161 53.683 263.161 53.7223C263.161 54.4318 262.585 55.0075 261.876 55.0075C261.165 55.0075 260.59 54.4318 260.59 53.7223C260.59 53.3331 260.763 52.985 261.035 52.7485L260.873 52.5575L259.322 49.165L258.888 49.3819L257.785 54.2801L259.563 55.0593H256.744L256.426 50.0174L253.653 52.13L253.726 53.9882L253.246 54.0141L252.296 51.8827L254.361 49.223L253.289 48.9651Z" fill="#66C993"/>
<path fill-rule="evenodd" clip-rule="evenodd" d="M91.1334 37.9906L88.4192 39.8488V40.2772L87.9899 45.4209L89.2386 48.9383L89.2145 51.4231L89.6429 54.1381L90.0713 55.518L92.4079 55.7224L92.3097 52.1085L94.143 55.5144L95.9379 55.9642L96.0414 45.4209L95.2498 39.7471L93.6468 37.9986C94.3402 37.8121 94.2153 36.7116 94.2207 35.7985C94.2296 34.3036 93.2398 32.8309 91.2441 33.7172C89.9722 34.2831 89.5438 36.401 91.1334 37.9906Z" fill="#66C993"/>
<path fill-rule="evenodd" clip-rule="evenodd" d="M97.3552 68.3285L97.8613 59.264L100.01 56.8755C97.9497 49.0945 107.302 51.2856 102.889 56.4543L104.459 58.142L104.291 61.2311L106.272 61.805L105.469 63.6838L103.757 64.1559L103.797 65.1779L105.439 69.105L106.678 68.6685L107.042 69.5718L104.113 71.3675L100.856 67.0682L100.207 69.3129L97.4695 70.7847L96.6243 72.4743L95.3221 68.7506L97.3552 68.3285Z" fill="#66C993"/>
</svg>
