<svg width="96" height="82" viewBox="0 0 96 82" fill="none" xmlns="http://www.w3.org/2000/svg">
<path d="M12 14.1992C13.3807 14.1992 14.5 13.0799 14.5 11.6992C14.5 10.3185 13.3807 9.19922 12 9.19922C10.6193 9.19922 9.5 10.3185 9.5 11.6992C9.5 13.0799 10.6193 14.1992 12 14.1992Z" fill="black"/>
<path d="M19.3008 14.1992C20.6815 14.1992 21.8008 13.0799 21.8008 11.6992C21.8008 10.3185 20.6815 9.19922 19.3008 9.19922C17.9201 9.19922 16.8008 10.3185 16.8008 11.6992C16.8008 13.0799 17.9201 14.1992 19.3008 14.1992Z" fill="black"/>
<path d="M26.5 14.1992C27.8807 14.1992 29 13.0799 29 11.6992C29 10.3185 27.8807 9.19922 26.5 9.19922C25.1193 9.19922 24 10.3185 24 11.6992C24 13.0799 25.1193 14.1992 26.5 14.1992Z" fill="black"/>
<path d="M88.4 0H6.6C3 0 0 2.9 0 6.6V74.5C0 78.1 2.9 81.1 6.6 81.1H88.5C92.1 81.1 95.1 78.2 95.1 74.5V6.6C95 3 92.1 0 88.4 0ZM6.6 5.1H88.5C89.3 5.1 90 5.8 90 6.6V18.3H5.1V6.6C5.1 5.8 5.8 5.1 6.6 5.1ZM88.4 75.9H6.6C5.8 75.9 5.1 75.2 5.1 74.4V23.3H89.9V74.4C89.9 75.2 89.2 75.9 88.4 75.9Z" fill="black"/>
<path d="M33.9008 46.8996L36.7008 44.0996L39.5008 46.8996C40.0008 47.3996 40.6008 47.5996 41.3008 47.5996C42.0008 47.5996 42.6008 47.3996 43.1008 46.8996C44.1008 45.8996 44.1008 44.2996 43.1008 43.2996L40.3008 40.4996L43.1008 37.6996C44.1008 36.6996 44.1008 35.0996 43.1008 34.0996C42.1008 33.0996 40.5008 33.0996 39.5008 34.0996L36.7008 36.8996L33.9008 34.0996C32.9008 33.0996 31.3008 33.0996 30.3008 34.0996C29.3008 35.0996 29.3008 36.6996 30.3008 37.6996L33.1008 40.4996L30.3008 43.2996C29.3008 44.2996 29.3008 45.8996 30.3008 46.8996C30.8008 47.3996 31.4008 47.5996 32.1008 47.5996C32.8008 47.5996 33.4008 47.3996 33.9008 46.8996Z" fill="black"/>
<path d="M64.7004 34.1992C63.7004 33.1992 62.1004 33.1992 61.1004 34.1992L58.3004 36.9992L55.5004 34.1992C54.5004 33.1992 52.9004 33.1992 51.9004 34.1992C50.9004 35.1992 50.9004 36.7992 51.9004 37.7992L54.7004 40.5992L51.9004 43.3992C50.9004 44.3992 50.9004 45.9992 51.9004 46.9992C52.4004 47.4992 53.0004 47.6992 53.7004 47.6992C54.4004 47.6992 55.0004 47.4992 55.5004 46.9992L58.3004 44.1992L61.1004 46.9992C61.6004 47.4992 62.2004 47.6992 62.9004 47.6992C63.6004 47.6992 64.2004 47.4992 64.7004 46.9992C65.7004 45.9992 65.7004 44.3992 64.7004 43.3992L61.9004 40.4992L64.7004 37.6992C65.7004 36.7992 65.7004 35.1992 64.7004 34.1992Z" fill="black"/>
<path d="M47.5007 51.9004C40.6007 51.9004 34.4007 56.0004 31.6007 62.3004C31.0007 63.6004 31.6007 65.1004 32.9007 65.6004C34.2007 66.2004 35.7007 65.6004 36.2007 64.3004C38.1007 59.8004 42.5007 56.9004 47.4007 56.9004C52.2007 56.9004 56.6007 59.8004 58.5007 64.3004C58.9007 65.3004 59.9007 65.8004 60.8007 65.8004C61.1007 65.8004 61.5007 65.7004 61.8007 65.6004C63.1007 65.0004 63.7007 63.6004 63.1007 62.3004C60.6007 56.0004 54.4007 51.9004 47.5007 51.9004Z" fill="black"/>
</svg>
