<svg width="9" height="9" viewBox="0 0 9 9" fill="none" xmlns="http://www.w3.org/2000/svg">
<g clip-path="url(#clip0)">
<path fill-rule="evenodd" clip-rule="evenodd" d="M5.63542 4.42928L8.66007 1.40466C8.88351 1.18123 8.88351 0.820082 8.66007 0.596651C8.43664 0.373219 8.07549 0.373219 7.85205 0.596651L4.8274 3.62127L1.80275 0.596651C1.57931 0.373219 1.21816 0.373219 0.994724 0.596651C0.77129 0.820082 0.77129 1.18123 0.994724 1.40466L4.01938 4.42928L0.994724 7.45389C0.77129 7.67732 0.77129 8.03847 0.994724 8.2619C1.10616 8.37333 1.25245 8.42933 1.39874 8.42933C1.54502 8.42933 1.69131 8.37333 1.80275 8.2619L4.8274 5.23729L7.85205 8.2619C7.96348 8.37333 8.10977 8.42933 8.25606 8.42933C8.40235 8.42933 8.54864 8.37333 8.66007 8.2619C8.88351 8.03847 8.88351 7.67732 8.66007 7.45389L5.63542 4.42928Z" fill="white"/>
</g>
<defs>
<clipPath id="clip0">
<rect width="8" height="8" fill="white" transform="translate(0.827148 0.429077)"/>
</clipPath>
</defs>
</svg>
