<svg version="1.1" xmlns="http://www.w3.org/2000/svg" xmlns:xlink="http://www.w3.org/1999/xlink">
    <symbol viewBox="0 0 100 52" id="logo">
        <path d="M74.2489 18.1565H82.103V41.5565H92.0172V18.1565H99.9142V10.6549H74.2489V18.1565ZM57.1674 31.668H47.8112C48.0258 38.6156 52.7468 42.1533 61.5451 42.1533C69.9142 42.1533 74.4206 37.3795 74.4206 31.6254C74.4206 24.7631 70.0429 22.7598 62.2318 21.95C58.7983 21.5238 57.8541 20.8418 57.8541 19.35C57.8541 18.0287 58.8841 17.091 60.9442 17.091C63.0472 17.091 64.1202 18.1565 64.3348 20.0746H73.4764C73.0043 13.3401 68.6695 10.2287 60.9442 10.2287C53.176 10.2287 48.4979 14.3631 48.4979 20.0746C48.4979 26.4254 51.5451 29.0254 60.515 30.0057C63.8627 30.4746 64.9785 30.986 64.9785 32.6483C64.9785 34.1828 63.8627 35.2057 61.5451 35.2057C58.2833 35.2057 57.3391 33.6287 57.1674 31.668ZM33.9914 34.0549V29.409H43.7768V22.5467H33.9914V18.1565H46.2661V10.6549H24.1631V41.5992H46.9957V34.0549H33.9914ZM25.8369 43.4746L23.9056 44.7959V47.0123L25.4506 46.0746V51.8713H28.1545V43.4746H25.8369ZM19.0987 48.4615L16.2232 51.4877V51.8713H23.2189V49.868H20.6009L21.588 48.9303C22.5322 48.0352 23.176 47.1828 23.176 46.032C23.176 44.4549 22.0601 43.3041 19.9142 43.3041C17.8112 43.3041 16.4807 44.3697 16.3948 46.5861H18.7983C18.8841 45.6483 19.2275 45.3074 19.7854 45.3074C20.3004 45.3074 20.5579 45.6483 20.5579 46.1598C20.515 46.8418 19.9142 47.5664 19.0987 48.4615ZM10.5579 41.5565V31.1992H19.9571V23.9533H10.5579V18.1992H22.2318V10.6549H0.686695V41.5992L10.5579 41.5565ZM10.3433 47.4811C10.3433 46.032 10.7296 45.35 11.6738 45.35C12.618 45.35 13.0043 46.032 13.0043 47.4811V47.7795C13.0043 49.2287 12.618 49.9106 11.6738 49.9106C10.6867 49.9106 10.3004 49.2287 10.3004 47.7795V47.4811H10.3433ZM7.6824 47.4811V47.8221C7.6824 50.5074 9.18455 51.9992 11.6309 51.9992C14.1202 51.9992 15.7082 50.4647 15.7082 47.7369V47.4385C15.7082 44.668 13.9485 43.3467 11.7167 43.3467C9.44206 43.3041 7.6824 44.7959 7.6824 47.4811ZM4.29185 46.1598C4.29185 46.8418 3.73391 47.5664 2.87554 48.4615L0 51.4877V51.8713H6.99571V49.868H4.37768L5.36481 48.9303C6.30901 48.0352 6.95279 47.1828 6.95279 46.032C6.95279 44.4549 5.83691 43.3041 3.69099 43.3041C1.58798 43.3041 0.257511 44.3697 0.171674 46.5861H2.57511C2.66094 45.6483 3.00429 45.3074 3.56223 45.3074C4.07725 45.3074 4.29185 45.691 4.29185 46.1598ZM7.72532 8.43851H10.3863V0.127035H6.99571L5.53648 4.17622L4.12017 0.127035H0.686695V8.43851H3.04721V3.53687L4.93562 8.43851H5.83691L7.72532 3.53687V8.43851ZM17.2532 4.34671C17.2532 5.75326 16.5665 6.5631 15.5365 6.5631C14.4635 6.5631 13.8197 5.79589 13.8197 4.34671V4.21884C13.8197 2.81228 14.5064 2.04507 15.5365 2.04507C16.6094 2.04507 17.2532 2.81228 17.2532 4.21884V4.34671ZM20 4.26146V4.17622C20 1.53359 18.0687 -0.000834081 15.4936 -0.000834081C13.0043 -0.000834081 11.03 1.66146 11.03 4.26146V4.34671C11.03 6.86146 12.7039 8.609 15.4506 8.609C18.2403 8.609 20 6.86146 20 4.26146ZM22.8755 2.4713C22.8755 2.13031 23.176 1.87458 23.691 1.87458C24.2489 1.87458 24.5494 2.17294 24.5923 2.68441H27.0386C26.9099 0.851625 25.7511 -0.000834081 23.691 -0.000834081C21.588 -0.000834081 20.3433 1.10736 20.3433 2.64179C20.3433 4.34671 21.1588 5.0713 23.5622 5.32703C24.4635 5.4549 24.7639 5.58277 24.7639 6.05162C24.7639 6.47785 24.4635 6.73359 23.8197 6.73359C22.9614 6.73359 22.7039 6.30736 22.6609 5.79589H20.1717C20.2146 7.6713 21.5021 8.609 23.8627 8.609C26.0944 8.609 27.3391 7.33031 27.3391 5.79589C27.3391 3.9631 26.1803 3.409 24.0343 3.19589C23.0901 3.06802 22.8755 2.8549 22.8755 2.4713ZM30.2575 4.34671V4.21884C30.2575 2.81228 30.8584 2.04507 31.8026 2.04507C32.5322 2.04507 32.9614 2.4713 33.0472 3.23851H35.794C35.5794 0.979494 34.0773 -0.043457 31.8026 -0.043457C29.3562 -0.000834081 27.4678 1.66146 27.4678 4.26146V4.34671C27.4678 6.90408 28.8841 8.609 31.9313 8.609C34.1631 8.609 35.7511 7.45818 35.9227 5.28441H33.2618C33.176 6.13687 32.618 6.52048 31.8884 6.52048C30.8584 6.47785 30.2575 5.71064 30.2575 4.34671ZM42.2318 4.34671C42.2318 5.75326 41.5451 6.5631 40.515 6.5631C39.4421 6.5631 38.7983 5.79589 38.7983 4.34671V4.21884C38.7983 2.81228 39.485 2.04507 40.515 2.04507C41.588 2.04507 42.2318 2.81228 42.2318 4.21884V4.34671ZM44.9785 4.17622C44.9785 1.53359 43.0472 -0.000834081 40.4721 -0.000834081C37.9828 -0.000834081 36.0086 1.66146 36.0086 4.26146V4.34671C36.0086 6.86146 37.6824 8.609 40.4292 8.609C43.176 8.609 44.9785 6.86146 44.9785 4.26146V4.17622ZM54.3777 8.43851L56.309 0.127035H53.8627L52.8326 5.15654L51.6738 0.127035H49.3562L48.412 5.11392L47.4678 0.127035H44.764L46.6953 8.43851H49.3562L50.5579 3.45163L51.7167 8.43851H54.3777ZM67.6395 4.85818V-0.000834081H64.9785V4.77294C64.9785 5.88113 64.7639 6.39261 63.8197 6.39261C62.8755 6.39261 62.618 5.83851 62.618 4.77294V-0.000834081H59.9571V4.90081C59.9571 7.28769 61.3305 8.48113 63.7768 8.48113C66.1373 8.48113 67.6395 7.37294 67.6395 4.85818ZM73.0043 2.8549C73.0043 3.45162 72.6609 3.74999 71.9313 3.74999H71.3305V1.95982H71.9743C72.7039 1.95982 73.0472 2.17294 73.0472 2.81228L73.0043 2.8549ZM76.0944 8.31064L74.1631 4.90081C74.9785 4.5172 75.5794 3.87785 75.5794 2.72703V2.68441C75.5794 0.894248 74.3777 -0.000834081 72.0601 -0.000834081H68.6266V8.31064H71.2876V5.4549H71.7167L73.2618 8.31064H76.0944ZM80.9013 5.71064C80.9013 6.26474 80.6009 6.5631 79.9142 6.5631H79.0558V4.77294H79.8283C80.5579 4.77294 80.9013 5.0713 80.9013 5.6254V5.71064ZM80.7725 2.51392C80.7725 3.0254 80.515 3.23851 79.8712 3.23851H79.0558V1.70408H79.8712C80.515 1.70408 80.8155 1.95982 80.8155 2.4713L80.7725 2.51392ZM83.5193 6.009V5.96638C83.5193 4.81556 82.8326 4.17622 81.8455 4.00572C82.7897 3.79261 83.3047 3.19589 83.3047 2.21556V2.17294C83.3047 0.936871 82.4893 -0.000834081 80.4292 -0.000834081H76.4807V8.31064H80.4292C82.5751 8.31064 83.5193 7.50081 83.5193 6.009ZM88.3262 5.15654H86.6524L87.4678 2.13031L88.3262 5.15654ZM89.1846 8.31064H92.0172L89.3562 -0.000834081H85.9227L83.3047 8.31064H85.794L86.1803 6.90408H88.8412L89.1846 8.31064ZM100 8.31064V-0.000834081H97.6824V4.38933L95.279 -0.000834081H92.2747V8.31064H94.6352V3.32376L97.4249 8.31064H100Z" />
    </symbol>

    <symbol viewBox="0 0 40 40" id="icon-fb">
        <path d="M40 20C40 8.95313 31.0469 0 20 0C8.95312 0 0 8.95313 0 20C0 29.9844 7.3125 38.2578 16.875 39.7578V25.7813H11.7969V20H16.875V15.5938C16.875 10.582 19.8594 7.8125 24.4297 7.8125C26.6172 7.8125 28.9062 8.20313 28.9062 8.20313V13.125H26.3828C23.8984 13.125 23.125 14.668 23.125 16.25V20H28.6719L27.7852 25.7813H23.125V39.7578C32.6875 38.2578 40 29.9844 40 20Z" />
    </symbol>

    <symbol viewBox="0 0 40 40" id="icon-instagram">
        <path fill-rule="evenodd" clip-rule="evenodd" d="M20 0C8.954 0 0 8.954 0 20s8.954 20 20 20 20-8.954 20-20S31.046 0 20 0zm-4.399 9.397c1.138-.051 1.502-.064 4.399-.064h-.004c2.898 0 3.26.013 4.398.064 1.136.052 1.911.232 2.591.496a5.212 5.212 0 011.89 1.23 5.235 5.235 0 011.23 1.89c.263.678.443 1.453.496 2.588.051 1.138.064 1.502.064 4.399 0 2.897-.013 3.26-.064 4.397-.053 1.135-.233 1.91-.496 2.59a5.237 5.237 0 01-1.23 1.888 5.219 5.219 0 01-1.889 1.232c-.679.263-1.455.443-2.59.495-1.138.052-1.5.065-4.398.065-2.896 0-3.26-.013-4.398-.065-1.135-.052-1.91-.232-2.589-.495a5.223 5.223 0 01-1.889-1.232 5.227 5.227 0 01-1.23-1.89c-.264-.677-.443-1.453-.496-2.588-.051-1.138-.064-1.5-.064-4.397 0-2.897.013-3.26.064-4.399.051-1.135.231-1.91.496-2.589a5.237 5.237 0 011.23-1.889 5.225 5.225 0 011.89-1.23c.679-.264 1.454-.444 2.59-.496z" />
        <path fill-rule="evenodd" clip-rule="evenodd" d="M19.041 11.256h.957c2.848 0 3.186.01 4.31.06 1.04.048 1.605.222 1.981.368a3.31 3.31 0 011.226.798c.373.373.604.729.798 1.227.146.375.32.94.367 1.98.052 1.124.063 1.462.063 4.309 0 2.846-.011 3.184-.063 4.309-.047 1.04-.22 1.604-.367 1.98a3.298 3.298 0 01-.798 1.225 3.3 3.3 0 01-1.226.798c-.375.146-.94.32-1.98.367-1.125.051-1.463.063-4.31.063-2.849 0-3.186-.012-4.31-.063-1.04-.048-1.605-.221-1.982-.367a3.303 3.303 0 01-1.226-.798 3.307 3.307 0 01-.798-1.226c-.146-.376-.32-.94-.368-1.98-.05-1.125-.061-1.463-.061-4.311 0-2.849.01-3.184.061-4.309.048-1.04.222-1.604.368-1.98.193-.498.425-.854.798-1.227a3.31 3.31 0 011.226-.798c.377-.147.941-.32 1.981-.368.984-.045 1.365-.058 3.353-.06v.003zm6.653 1.77a1.28 1.28 0 100 2.56 1.28 1.28 0 000-2.56zM14.52 20.001a5.478 5.478 0 1110.956 0 5.478 5.478 0 01-10.956 0z" />
        <path d="M20 16.445a3.556 3.556 0 110 7.11 3.556 3.556 0 010-7.11z" />
    </symbol>

    <symbol viewBox="0 0 40 40" id="icon-vk">
        <path fill-rule="evenodd" clip-rule="evenodd" d="M26.14 0H13.86C2.653 0 0 2.653 0 13.86v12.28C0 37.346 2.653 40 13.86 40h12.28C37.346 40 40 37.346 40 26.14V13.86C40 2.653 37.346 0 26.14 0zm5.73 12.703c.876 0 1.073.451.876 1.072-.309 1.424-2.87 5.199-3.663 6.368-.15.223-.237.35-.233.35-.31.509-.423.735 0 1.3.153.208.478.527.849.89.381.375.812.797 1.155 1.198 1.242 1.412 2.202 2.597 2.456 3.416.226.819-.17 1.242-1.016 1.242h-2.908c-.77 0-1.167-.443-2.014-1.386-.363-.404-.808-.9-1.401-1.493-1.722-1.666-2.484-1.892-2.908-1.892-.593 0-.762.141-.762.988v2.625c0 .706-.226 1.13-2.089 1.13-3.077 0-6.492-1.863-8.892-5.336-3.613-5.08-4.601-8.92-4.601-9.682 0-.423.14-.819.988-.819h2.936c.733 0 1.016.31 1.298 1.13 1.44 4.15 3.84 7.79 4.827 7.79.367 0 .537-.169.537-1.1v-4.291c-.07-1.22-.495-1.751-.81-2.145-.195-.244-.348-.436-.348-.706 0-.339.282-.678.734-.678h4.573c.621 0 .847.34.847 1.073v5.787c0 .621.254.847.452.847.367 0 .677-.226 1.355-.904 2.088-2.343 3.585-5.956 3.585-5.956.197-.423.536-.818 1.27-.818h2.907z" />
    </symbol>

    <symbol viewBox="0 0 40 40" id="icon-youtube">
        <path fill-rule="evenodd" clip-rule="evenodd" d="M20 0C8.954 0 0 8.954 0 20s8.954 20 20 20 20-8.954 20-20S31.046 0 20 0zm8.333 13.124a2.71 2.71 0 011.887 1.937c.445 1.708.445 5.272.445 5.272s0 3.564-.445 5.273a2.709 2.709 0 01-1.887 1.936C26.67 28 20 28 20 28s-6.671 0-8.335-.458a2.709 2.709 0 01-1.886-1.937c-.446-1.708-.446-5.272-.446-5.272s0-3.564.446-5.272a2.708 2.708 0 011.886-1.937c1.664-.458 8.335-.458 8.335-.458s6.67 0 8.334.458z" />
        <path d="M18 24v-6.667l5.333 3.334L18 24z" />
    </symbol>

    <symbol viewBox="0 0 30 30" id="icon-twitter">
        <path fill-rule="evenodd" clip-rule="evenodd" d="M15 0C6.71573 0 0 6.71573 0 15C0 23.2843 6.71573 30 15 30C23.2843 30 30 23.2843 30 15C30 6.71573 23.2843 0 15 0ZM14.5822 12.7112L14.5508 12.1922C14.4563 10.847 15.2852 9.61822 16.5967 9.14155C17.0794 8.97207 17.8978 8.95089 18.4329 9.09918C18.6427 9.16274 19.0414 9.37459 19.3247 9.56526L19.8388 9.91481L20.4054 9.73474C20.7202 9.6394 21.1398 9.48052 21.3287 9.37459C21.5071 9.27926 21.6645 9.2263 21.6645 9.25807C21.6645 9.43815 21.2762 10.0525 20.951 10.3915C20.5103 10.8681 20.6362 10.9105 21.5281 10.5927C22.0632 10.4127 22.0737 10.4127 21.9687 10.6139C21.9058 10.7198 21.5805 11.0906 21.2343 11.4295C20.6467 12.0121 20.6152 12.0757 20.6152 12.5629C20.6152 13.315 20.2585 14.8827 19.9018 15.7407C19.2408 17.3508 17.8243 19.0138 16.4079 19.8506C14.4144 21.0264 11.7598 21.323 9.52499 20.6344C8.78005 20.4014 7.5 19.8082 7.5 19.7023C7.5 19.6705 7.88821 19.6282 8.36036 19.6176C9.34663 19.5964 10.3329 19.321 11.1723 18.8337L11.7388 18.4948L11.0883 18.2723C10.165 17.9545 9.33613 17.2237 9.12629 16.5351C9.06334 16.3127 9.08432 16.3021 9.67188 16.3021L10.2804 16.2915L9.76631 16.0479C9.15777 15.7407 8.60168 15.2217 8.32888 14.692C8.12953 14.3107 7.87772 13.3468 7.95116 13.2726C7.97215 13.2409 8.19248 13.3044 8.4443 13.3892C9.16826 13.654 9.26269 13.5904 8.843 13.1455C8.05609 12.3405 7.81477 11.1435 8.19248 10.0101L8.37085 9.5017L9.06334 10.1902C10.4798 11.5778 12.148 12.4041 14.0576 12.6477L14.5822 12.7112Z" />
    </symbol>

    <symbol viewBox="0 0 32 32" id="icon-telegram">
        <path fill-rule="evenodd" clip-rule="evenodd" d="M32 16C32 24.8365 24.8365 32 16 32C7.16347 32 0 24.8365 0 16C0 7.16347 7.16347 0 16 0C24.8365 0 32 7.16347 32 16ZM10.7143 14.5343C9.11153 15.2341 7.46473 15.9532 5.95883 16.7827C5.17251 17.3584 6.21759 17.7657 7.19807 18.1477C7.35393 18.2084 7.50813 18.2685 7.65313 18.3285C7.7738 18.3656 7.89647 18.4047 8.0208 18.4443C9.11127 18.7917 10.3271 19.1791 11.3858 18.5963C13.1249 17.5973 14.766 16.4424 16.4059 15.2883C16.9432 14.9102 17.4803 14.5322 18.0207 14.1598C18.0461 14.1436 18.0746 14.1251 18.1059 14.1049C18.5662 13.8064 19.6016 13.1353 19.2186 14.0601C18.313 15.0505 17.3429 15.9271 16.3677 16.8087C15.7103 17.4027 15.0506 17.999 14.4066 18.6337C13.8457 19.0894 13.2633 20.0059 13.8913 20.6441C15.3379 21.6567 16.8071 22.6449 18.2755 23.6325C18.7533 23.9538 19.2311 24.2751 19.7079 24.5973C20.516 25.2425 21.779 24.7205 21.9567 23.7123C22.0357 23.2485 22.115 22.7848 22.1943 22.321C22.6327 19.7579 23.0713 17.1938 23.4587 14.6223C23.5113 14.2189 23.571 13.8156 23.6307 13.4121C23.7755 12.434 23.9204 11.4547 23.9657 10.4714C23.849 9.49007 22.6591 9.70587 21.997 9.92653C18.5935 11.2216 15.2241 12.6127 11.8679 14.0283C11.4877 14.1967 11.1023 14.3649 10.7143 14.5343Z" />
    </symbol>

    <symbol viewBox="0 0 23 16" id="mobile-menu-link">
        <path d="M1.92969 7.70654H21.5722" stroke-width="2" stroke-linecap="round" stroke-linejoin="round" />
        <path d="M1.92969 1H21.5722" stroke-width="2" stroke-linecap="round" stroke-linejoin="round" />
        <path d="M1.92969 14.4136H21.5722" stroke-width="2" stroke-linecap="round" stroke-linejoin="round" />
    </symbol>

    <symbol viewBox="0 0 24 23" id="mobile-menu-close">
        <path d="M2.98438 2.48438L21.0156 20.5156" stroke-width="3" stroke-linecap="round" stroke-linejoin="round" />
        <path d="M21.0156 2.48438L2.9844 20.5156" stroke-width="3" stroke-linecap="round" stroke-linejoin="round" />
    </symbol>

</svg>