<svg version="1.1" xmlns="http://www.w3.org/2000/svg" xmlns:xlink="http://www.w3.org/1999/xlink">
    <symbol viewBox="0 0 285 121" id="logo">
        <g stroke="none" stroke-width="1" fill="none" fill-rule="evenodd">
            <g fill="#000000">
                <path d="M115.04,19.2146 C112.036,19.2146 110.128,16.9776 110.128,12.9096 L110.128,12.6386 C110.128,8.5666 112.036,6.3976 114.978,6.3976 C117.981,6.3976 119.921,8.6026 119.921,12.6386 L119.921,12.9096 C119.921,16.8786 118.012,19.2146 115.04,19.2146 M114.978,0.4896 C107.833,0.4896 102.223,5.2926 102.223,12.6746 L102.223,12.9356 C102.223,20.1896 107.03,25.1646 114.842,25.1646 C122.689,25.1646 127.794,20.1896 127.794,12.7436 L127.794,12.4726 C127.794,4.9256 122.318,0.4896 114.978,0.4896"></path>
                <polygon points="160.0898 0.8586 153.0758 0.8586 150.1708 15.2826 146.9328 0.8586 140.3518 0.8586 137.4838 15.1106 134.7408 0.8586 127.0958 0.8586 132.6448 24.7266 140.1898 24.7266 143.5588 10.4646 146.9008 24.7266 154.5458 24.7266"></polygon>
                <path d="M192.2568,0.4895 L184.6498,0.4895 L184.6498,14.1775 C184.6498,17.3175 183.9778,18.8555 181.3058,18.8555 C178.6058,18.8555 177.9338,17.3175 177.9338,14.2135 L177.9338,0.4895 L170.3888,0.4895 L170.3888,14.5055 C170.3888,21.3265 174.3288,24.7895 181.3058,24.7895 C187.9858,24.7895 192.2568,21.6235 192.2568,14.4425 L192.2568,0.4895 Z"></path>
                <path d="M224.8076,19.3865 L224.8076,14.3125 L227.0486,14.3125 C229.1866,14.3125 230.0526,15.1785 230.0526,16.7425 L230.0526,16.8785 C230.0526,18.4895 229.1506,19.3865 227.2116,19.3865 L224.8076,19.3865 Z M224.8076,9.8025 L224.8076,5.4275 L227.0806,5.4275 C228.9496,5.4275 229.7146,6.1255 229.7146,7.5645 L229.7146,7.6965 C229.7146,9.1605 228.9826,9.8025 227.1116,9.8025 L224.8076,9.8025 Z M228.7176,0.4895 L217.4286,0.4895 L217.4286,24.3555 L228.6506,24.3555 C234.7926,24.3555 237.4986,21.9625 237.4986,17.7175 L237.4986,17.5825 C237.4986,14.2405 235.5286,12.5085 232.7216,12.0025 C235.3936,11.3715 236.8626,9.6355 236.8626,6.8665 L236.8626,6.7305 C236.8626,3.1905 234.5936,0.4895 228.7176,0.4895 L228.7176,0.4895 Z"></path>
                <path d="M246.4062,15.2458 L248.7732,6.5958 L251.1042,15.2458 L246.4062,15.2458 Z M254.1482,0.4898 L244.3672,0.4898 L236.8572,24.3558 L243.8972,24.3558 L244.9672,20.3818 L252.5112,20.3818 L253.6172,24.3558 L261.6262,24.3558 L254.1482,0.4898 Z"></path>
                <path d="M90.292,0.4895 C83.246,0.4895 77.938,5.2925 77.938,12.6755 L77.938,12.9405 C77.938,20.2515 82.011,25.1595 90.625,25.1595 C96.935,25.1595 101.544,21.8525 101.951,15.5795 L94.4,15.5795 C94.13,17.9845 92.597,19.0835 90.458,19.0835 C87.522,19.0835 85.916,16.8785 85.916,12.9095 L85.916,12.6385 C85.916,8.6025 87.591,6.4595 90.323,6.4595 C92.43,6.4595 93.598,7.6965 93.833,9.9015 L101.639,9.9015 C101.075,3.4245 96.736,0.4895 90.292,0.4895"></path>
                <path d="M202.7275,11.3034 L202.7275,6.1624 L204.5215,6.1624 C206.5615,6.1624 207.5995,6.8304 207.5995,8.5664 L207.5995,8.6964 C207.5995,10.4384 206.5975,11.3034 204.4925,11.3034 L202.7275,11.3034 Z M204.9285,0.4894 L195.1775,0.4894 L195.1775,24.3554 L202.7275,24.3554 L202.7275,16.1744 L203.9285,16.1744 L208.3655,24.3554 L216.3125,24.3554 L210.8635,14.6104 C213.2415,13.5414 214.9105,11.6694 214.9105,8.3634 L214.9105,8.2274 C214.9105,3.1224 211.5055,0.4894 204.9285,0.4894 L204.9285,0.4894 Z"></path>
                <polygon points="284.3311 0.4895 277.6871 0.4895 277.6871 13.1035 270.9051 0.4895 262.4261 0.4895 262.4261 24.3555 269.0991 24.3555 269.0991 10.0725 277.0881 24.3555 284.3311 24.3555"></polygon>
                <path d="M43.9648,19.2146 C40.9618,19.2146 39.0588,16.9776 39.0588,12.9096 L39.0588,12.6386 C39.0588,8.5666 40.9618,6.3976 43.8978,6.3976 C46.9058,6.3976 48.8408,8.6026 48.8408,12.6386 L48.8408,12.9096 C48.8408,16.8786 46.9388,19.2146 43.9648,19.2146 M43.8978,0.4896 C36.7538,0.4896 31.1478,5.2926 31.1478,12.6746 L31.1478,12.9356 C31.1478,20.1896 35.9558,25.1646 43.7678,25.1646 C51.6148,25.1646 56.7198,20.1896 56.7198,12.7436 L56.7198,12.4726 C56.7198,4.9256 51.2438,0.4896 43.8978,0.4896"></path>
                <path d="M67.1797,0.5202 C61.2367,0.5202 57.6327,3.7272 57.6327,8.1332 C57.6327,13.0402 59.9737,15.0422 66.8467,15.8092 C69.4227,16.1792 70.2567,16.5752 70.2567,17.8482 C70.2567,19.0122 69.3867,19.8182 67.6177,19.8182 C65.1467,19.8182 64.4167,18.5832 64.2817,17.0812 L57.1007,17.0812 C57.2677,22.4572 60.8707,25.1592 67.6177,25.1592 C74.0327,25.1592 77.5047,21.4932 77.5047,17.0452 C77.5047,11.7432 74.1617,10.2042 68.1507,9.5672 C65.5167,9.2342 64.8137,8.6962 64.8137,7.5642 C64.8137,6.5272 65.6167,5.8282 67.1797,5.8282 C68.7867,5.8282 69.6207,6.6632 69.7877,8.1332 L76.7957,8.1332 C76.3997,2.9242 73.0937,0.5202 67.1797,0.5202"></path>
                <polygon points="19.6279 0.8537 15.5249 12.4407 11.4829 0.8537 1.6639 0.8537 1.6639 24.7307 8.4119 24.7307 8.4119 10.6357 13.7519 24.7307 16.2919 24.7307 21.7309 10.6357 21.7309 24.7307 29.2499 24.7307 29.2499 0.8537"></polygon>
                <path d="M62.4297,30.0032 L0.8667,30.0032 L0.8667,118.9212 L29.1047,118.9212 L29.1047,89.0742 L55.9587,89.0742 L55.9587,68.3042 L29.1047,68.3042 L29.1047,51.7642 L62.4297,51.7642 L62.4297,30.0032 Z M131.0857,30.0032 L67.9097,30.0032 L67.9097,118.9212 L133.0727,118.9212 L133.0727,97.2822 L96.0167,97.2822 L96.0167,83.9792 L123.8727,83.9792 L123.8727,64.2062 L96.0167,64.2062 L96.0167,51.6442 L131.0857,51.6442 L131.0857,30.0032 Z M284.0957,30.0032 L210.8537,30.0032 L210.8537,51.6442 L233.2337,51.6442 L233.2337,118.9212 L261.5837,118.9212 L261.5837,51.6442 L284.0957,51.6442 L284.0957,30.0032 Z M172.9427,28.7672 C150.8067,28.7672 137.3797,40.6992 137.3797,57.1142 C137.3797,75.3972 146.0817,82.8532 171.6977,85.7212 C181.2817,87.0822 184.3947,88.5782 184.3947,93.3082 C184.3947,97.6582 181.1527,100.6392 174.5647,100.6392 C165.3557,100.6392 162.6177,96.0412 162.1267,90.4412 L135.3877,90.4412 C136.0017,110.4632 149.4467,120.5382 174.5647,120.5382 C198.4367,120.5382 211.3677,106.8612 211.3677,90.3202 C211.3677,70.5462 198.9327,64.8262 176.5457,62.4642 C166.7337,61.2182 164.1147,59.2312 164.1147,54.9962 C164.1147,51.1442 167.0967,48.5362 172.9427,48.5362 C178.9187,48.5362 182.0227,51.6442 182.6437,57.1142 L208.7557,57.1142 C207.2647,37.7152 194.9577,28.7672 172.9427,28.7672 L172.9427,28.7672 Z"></path>
            </g>
        </g>
    </symbol>

    <symbol viewBox="0 0 40 40" id="icon-fb">
        <path d="M40 20C40 8.95313 31.0469 0 20 0C8.95312 0 0 8.95313 0 20C0 29.9844 7.3125 38.2578 16.875 39.7578V25.7813H11.7969V20H16.875V15.5938C16.875 10.582 19.8594 7.8125 24.4297 7.8125C26.6172 7.8125 28.9062 8.20313 28.9062 8.20313V13.125H26.3828C23.8984 13.125 23.125 14.668 23.125 16.25V20H28.6719L27.7852 25.7813H23.125V39.7578C32.6875 38.2578 40 29.9844 40 20Z" />
    </symbol>

    <symbol viewBox="0 0 40 40" id="icon-instagram">
        <path fill-rule="evenodd" clip-rule="evenodd" d="M20 0C8.954 0 0 8.954 0 20s8.954 20 20 20 20-8.954 20-20S31.046 0 20 0zm-4.399 9.397c1.138-.051 1.502-.064 4.399-.064h-.004c2.898 0 3.26.013 4.398.064 1.136.052 1.911.232 2.591.496a5.212 5.212 0 011.89 1.23 5.235 5.235 0 011.23 1.89c.263.678.443 1.453.496 2.588.051 1.138.064 1.502.064 4.399 0 2.897-.013 3.26-.064 4.397-.053 1.135-.233 1.91-.496 2.59a5.237 5.237 0 01-1.23 1.888 5.219 5.219 0 01-1.889 1.232c-.679.263-1.455.443-2.59.495-1.138.052-1.5.065-4.398.065-2.896 0-3.26-.013-4.398-.065-1.135-.052-1.91-.232-2.589-.495a5.223 5.223 0 01-1.889-1.232 5.227 5.227 0 01-1.23-1.89c-.264-.677-.443-1.453-.496-2.588-.051-1.138-.064-1.5-.064-4.397 0-2.897.013-3.26.064-4.399.051-1.135.231-1.91.496-2.589a5.237 5.237 0 011.23-1.889 5.225 5.225 0 011.89-1.23c.679-.264 1.454-.444 2.59-.496z" />
        <path fill-rule="evenodd" clip-rule="evenodd" d="M19.041 11.256h.957c2.848 0 3.186.01 4.31.06 1.04.048 1.605.222 1.981.368a3.31 3.31 0 011.226.798c.373.373.604.729.798 1.227.146.375.32.94.367 1.98.052 1.124.063 1.462.063 4.309 0 2.846-.011 3.184-.063 4.309-.047 1.04-.22 1.604-.367 1.98a3.298 3.298 0 01-.798 1.225 3.3 3.3 0 01-1.226.798c-.375.146-.94.32-1.98.367-1.125.051-1.463.063-4.31.063-2.849 0-3.186-.012-4.31-.063-1.04-.048-1.605-.221-1.982-.367a3.303 3.303 0 01-1.226-.798 3.307 3.307 0 01-.798-1.226c-.146-.376-.32-.94-.368-1.98-.05-1.125-.061-1.463-.061-4.311 0-2.849.01-3.184.061-4.309.048-1.04.222-1.604.368-1.98.193-.498.425-.854.798-1.227a3.31 3.31 0 011.226-.798c.377-.147.941-.32 1.981-.368.984-.045 1.365-.058 3.353-.06v.003zm6.653 1.77a1.28 1.28 0 100 2.56 1.28 1.28 0 000-2.56zM14.52 20.001a5.478 5.478 0 1110.956 0 5.478 5.478 0 01-10.956 0z" />
        <path d="M20 16.445a3.556 3.556 0 110 7.11 3.556 3.556 0 010-7.11z" />
    </symbol>

    <symbol viewBox="0 0 40 40" id="icon-vk">
        <path fill-rule="evenodd" clip-rule="evenodd" d="M26.14 0H13.86C2.653 0 0 2.653 0 13.86v12.28C0 37.346 2.653 40 13.86 40h12.28C37.346 40 40 37.346 40 26.14V13.86C40 2.653 37.346 0 26.14 0zm5.73 12.703c.876 0 1.073.451.876 1.072-.309 1.424-2.87 5.199-3.663 6.368-.15.223-.237.35-.233.35-.31.509-.423.735 0 1.3.153.208.478.527.849.89.381.375.812.797 1.155 1.198 1.242 1.412 2.202 2.597 2.456 3.416.226.819-.17 1.242-1.016 1.242h-2.908c-.77 0-1.167-.443-2.014-1.386-.363-.404-.808-.9-1.401-1.493-1.722-1.666-2.484-1.892-2.908-1.892-.593 0-.762.141-.762.988v2.625c0 .706-.226 1.13-2.089 1.13-3.077 0-6.492-1.863-8.892-5.336-3.613-5.08-4.601-8.92-4.601-9.682 0-.423.14-.819.988-.819h2.936c.733 0 1.016.31 1.298 1.13 1.44 4.15 3.84 7.79 4.827 7.79.367 0 .537-.169.537-1.1v-4.291c-.07-1.22-.495-1.751-.81-2.145-.195-.244-.348-.436-.348-.706 0-.339.282-.678.734-.678h4.573c.621 0 .847.34.847 1.073v5.787c0 .621.254.847.452.847.367 0 .677-.226 1.355-.904 2.088-2.343 3.585-5.956 3.585-5.956.197-.423.536-.818 1.27-.818h2.907z" />
    </symbol>

    <symbol viewBox="0 0 40 40" id="icon-youtube">
        <path fill-rule="evenodd" clip-rule="evenodd" d="M20 0C8.954 0 0 8.954 0 20s8.954 20 20 20 20-8.954 20-20S31.046 0 20 0zm8.333 13.124a2.71 2.71 0 011.887 1.937c.445 1.708.445 5.272.445 5.272s0 3.564-.445 5.273a2.709 2.709 0 01-1.887 1.936C26.67 28 20 28 20 28s-6.671 0-8.335-.458a2.709 2.709 0 01-1.886-1.937c-.446-1.708-.446-5.272-.446-5.272s0-3.564.446-5.272a2.708 2.708 0 011.886-1.937c1.664-.458 8.335-.458 8.335-.458s6.67 0 8.334.458z" />
        <path d="M18 24v-6.667l5.333 3.334L18 24z" />
    </symbol>

    <symbol viewBox="0 0 30 30" id="icon-twitter">
        <path fill-rule="evenodd" clip-rule="evenodd" d="M15 0C6.71573 0 0 6.71573 0 15C0 23.2843 6.71573 30 15 30C23.2843 30 30 23.2843 30 15C30 6.71573 23.2843 0 15 0ZM14.5822 12.7112L14.5508 12.1922C14.4563 10.847 15.2852 9.61822 16.5967 9.14155C17.0794 8.97207 17.8978 8.95089 18.4329 9.09918C18.6427 9.16274 19.0414 9.37459 19.3247 9.56526L19.8388 9.91481L20.4054 9.73474C20.7202 9.6394 21.1398 9.48052 21.3287 9.37459C21.5071 9.27926 21.6645 9.2263 21.6645 9.25807C21.6645 9.43815 21.2762 10.0525 20.951 10.3915C20.5103 10.8681 20.6362 10.9105 21.5281 10.5927C22.0632 10.4127 22.0737 10.4127 21.9687 10.6139C21.9058 10.7198 21.5805 11.0906 21.2343 11.4295C20.6467 12.0121 20.6152 12.0757 20.6152 12.5629C20.6152 13.315 20.2585 14.8827 19.9018 15.7407C19.2408 17.3508 17.8243 19.0138 16.4079 19.8506C14.4144 21.0264 11.7598 21.323 9.52499 20.6344C8.78005 20.4014 7.5 19.8082 7.5 19.7023C7.5 19.6705 7.88821 19.6282 8.36036 19.6176C9.34663 19.5964 10.3329 19.321 11.1723 18.8337L11.7388 18.4948L11.0883 18.2723C10.165 17.9545 9.33613 17.2237 9.12629 16.5351C9.06334 16.3127 9.08432 16.3021 9.67188 16.3021L10.2804 16.2915L9.76631 16.0479C9.15777 15.7407 8.60168 15.2217 8.32888 14.692C8.12953 14.3107 7.87772 13.3468 7.95116 13.2726C7.97215 13.2409 8.19248 13.3044 8.4443 13.3892C9.16826 13.654 9.26269 13.5904 8.843 13.1455C8.05609 12.3405 7.81477 11.1435 8.19248 10.0101L8.37085 9.5017L9.06334 10.1902C10.4798 11.5778 12.148 12.4041 14.0576 12.6477L14.5822 12.7112Z" />
    </symbol>

    <symbol viewBox="0 0 32 32" id="icon-telegram">
        <path fill-rule="evenodd" clip-rule="evenodd" d="M32 16C32 24.8365 24.8365 32 16 32C7.16347 32 0 24.8365 0 16C0 7.16347 7.16347 0 16 0C24.8365 0 32 7.16347 32 16ZM10.7143 14.5343C9.11153 15.2341 7.46473 15.9532 5.95883 16.7827C5.17251 17.3584 6.21759 17.7657 7.19807 18.1477C7.35393 18.2084 7.50813 18.2685 7.65313 18.3285C7.7738 18.3656 7.89647 18.4047 8.0208 18.4443C9.11127 18.7917 10.3271 19.1791 11.3858 18.5963C13.1249 17.5973 14.766 16.4424 16.4059 15.2883C16.9432 14.9102 17.4803 14.5322 18.0207 14.1598C18.0461 14.1436 18.0746 14.1251 18.1059 14.1049C18.5662 13.8064 19.6016 13.1353 19.2186 14.0601C18.313 15.0505 17.3429 15.9271 16.3677 16.8087C15.7103 17.4027 15.0506 17.999 14.4066 18.6337C13.8457 19.0894 13.2633 20.0059 13.8913 20.6441C15.3379 21.6567 16.8071 22.6449 18.2755 23.6325C18.7533 23.9538 19.2311 24.2751 19.7079 24.5973C20.516 25.2425 21.779 24.7205 21.9567 23.7123C22.0357 23.2485 22.115 22.7848 22.1943 22.321C22.6327 19.7579 23.0713 17.1938 23.4587 14.6223C23.5113 14.2189 23.571 13.8156 23.6307 13.4121C23.7755 12.434 23.9204 11.4547 23.9657 10.4714C23.849 9.49007 22.6591 9.70587 21.997 9.92653C18.5935 11.2216 15.2241 12.6127 11.8679 14.0283C11.4877 14.1967 11.1023 14.3649 10.7143 14.5343Z" />
    </symbol>

</svg>