<svg version="1.1" xmlns="http://www.w3.org/2000/svg" xmlns:xlink="http://www.w3.org/1999/xlink">
    <symbol viewBox="0 0 92 40" id="logo">
        <path d="M92 7.90557V0H89.8374V4.17895L87.6314 0H84.8715V7.90557H87.0445V3.17316L89.6421 7.90557H92ZM82.0031 7.90557H84.6111L82.1765 0H78.9932L76.5482 7.90557H78.8405L79.188 6.59027H81.6445L82.0031 7.90557ZM81.1872 4.88697H79.6564L80.4274 2.02293L81.1872 4.88697ZM76.7574 5.70544V5.66135C76.7574 4.55562 76.1156 3.9803 75.2031 3.81401C76.0723 3.60403 76.5498 3.02953 76.5498 2.11193V2.06823C76.5498 0.894939 75.8123 0 73.8989 0H70.2254V7.90557H73.8771C75.8767 7.90557 76.7574 7.11057 76.7574 5.70544ZM74.2242 2.38786C74.2242 2.87457 73.9852 3.08455 73.3776 3.08455H72.627V1.63573H73.3661C73.9749 1.63573 74.2242 1.86797 74.2242 2.34376V2.38786ZM74.3331 5.42871C74.3331 5.95993 74.0405 6.25771 73.4102 6.25771H72.627V4.57747H73.3558C74.0508 4.57747 74.3331 4.86472 74.3331 5.38502V5.42871ZM69.8615 7.90557L68.0905 4.67699C68.8623 4.32298 69.4059 3.70356 69.4059 2.60876V2.56426C69.4059 0.873501 68.2973 0 66.1561 0H62.9828V7.90557H65.4388V5.19608H65.8297L67.2754 7.90557H69.8615ZM67.0261 2.71962C67.0261 3.29575 66.6993 3.58178 66.0154 3.58178H65.4388V1.8793H66.0257C66.6882 1.8793 67.0261 2.10101 67.0261 2.67552V2.71962ZM62.0337 4.62157V0H59.5561V4.53336C59.5561 5.57315 59.3394 6.08171 58.4694 6.08171C57.5891 6.08171 57.3712 5.57315 57.3712 4.54469V0H54.9159V4.64422C54.9159 6.89978 56.1979 8.04961 58.4694 8.04961C60.6432 8.04961 62.0337 6.99931 62.0337 4.62157ZM49.7585 8.02776L51.5621 0.120972H49.2805L48.3346 4.8983L47.2801 0.120972H45.1402L44.2054 4.84247L43.3139 0.120972H40.8256L42.6296 8.02776H45.0849L46.1831 3.30545L47.2698 8.02776H49.7585ZM41.0523 3.96978C41.0523 1.46945 39.2698 0 36.8787 0C34.5533 0 32.728 1.59204 32.728 4.03532V4.12312C32.728 6.52392 34.2928 8.17139 36.8349 8.17139C39.3894 8.17139 41.0523 6.52392 41.0523 4.05758V3.96978ZM38.487 4.11382C38.487 5.42871 37.8676 6.20309 36.9003 6.20309C35.9224 6.20309 35.3035 5.46189 35.3035 4.11382V4.0244C35.3035 2.67551 35.9224 1.95697 36.8787 1.95697C37.8569 1.95697 38.487 2.68765 38.487 4.0244V4.11382ZM27.4217 4.11382V4.0244C27.4217 2.68765 27.9647 1.97963 28.8562 1.97963C29.5405 1.97963 29.9208 2.38786 29.9969 3.11773H32.5396C32.3546 0.972618 30.9424 0 28.8449 0C26.5527 0 24.8241 1.59204 24.8241 4.03532V4.12312C24.8241 6.54577 26.1496 8.17139 28.9533 8.17139C31.0074 8.17139 32.5075 7.07658 32.6379 4.99823H30.1818C30.0941 5.79486 29.5941 6.15899 28.8995 6.15899C27.9429 6.15899 27.4217 5.42871 27.4217 4.11382ZM20.5527 2.34376C20.5527 2.00108 20.8137 1.76925 21.3239 1.76925C21.8461 1.76925 22.1179 2.04558 22.1716 2.53189H24.4542C24.3234 0.806339 23.2475 0.0101166 21.3239 0.0101166C19.3897 0.0101166 18.2159 1.07256 18.2159 2.53189C18.2159 4.15791 18.977 4.82062 21.2154 5.0747C22.0517 5.19688 22.324 5.32959 22.324 5.74955C22.324 6.13593 22.0413 6.40174 21.4654 6.40174C20.6614 6.40174 20.4224 5.9923 20.3787 5.49506H18.0421C18.097 7.27523 19.2701 8.17139 21.4654 8.17139C23.5521 8.17139 24.6822 6.95521 24.6822 5.48454C24.6822 3.72662 23.5953 3.21685 21.6392 3.00727C20.781 2.89723 20.5527 2.71962 20.5527 2.34376ZM17.9186 4.05758V3.96978C17.9186 1.46945 16.1365 0 13.7452 0C11.4203 0 9.59436 1.59204 9.59436 4.03532V4.12312C9.59436 6.52392 11.1595 8.17139 13.7019 8.17139C16.2565 8.17139 17.9186 6.52392 17.9186 4.05758ZM15.3536 4.11382C15.3536 5.42871 14.7343 6.20309 13.7678 6.20309C12.7891 6.20309 12.1697 5.46189 12.1697 4.11382V4.0244C12.1697 2.67551 12.7891 1.95697 13.7452 1.95697C14.7233 1.95697 15.3536 2.68765 15.3536 4.0244V4.11382ZM6.53084 8.02776H8.97666V0.120972H5.84666L4.50952 3.95805L3.19506 0.120972H0V8.02776H2.19496V3.36088L3.93421 8.02776H4.75942L6.53084 3.36088V8.02776ZM9.16286 39.4661V29.6091H17.8808V22.751H9.16286V17.2891H19.9797V10.1006H0V39.4661H9.16286ZM30.8806 32.32V27.926H39.9222V21.3962H30.8806V17.2472H42.2634V10.1006H21.7587V39.4661H42.9087V32.32H30.8806ZM52.3382 30.0616H43.6594C43.8602 36.674 48.2209 40 56.3736 40C64.1231 40 68.3204 35.4819 68.3204 30.02C68.3204 23.4911 64.2842 21.6009 57.0189 20.8216C53.8312 20.4101 52.9827 19.7534 52.9827 18.3558C52.9827 17.0833 53.9521 16.2202 55.8495 16.2202C57.7863 16.2202 58.7955 17.2472 58.9971 19.0556H67.473C66.9883 12.6472 62.9931 9.69174 55.8495 9.69174C48.6642 9.69174 44.3056 13.6328 44.3056 19.0556C44.3056 25.0915 47.1306 27.5559 55.4456 28.5009C58.5541 28.9529 59.5633 29.4452 59.5633 31.0067C59.5633 32.4428 58.512 33.429 56.3736 33.429C53.3863 33.429 52.4984 31.9091 52.3382 30.0616ZM68.1514 17.2472H75.4166V39.4661H84.6187V17.2472H91.924V10.1006H68.1514V17.2472Z" />
    </symbol>

    <symbol viewBox="0 0 40 40" id="icon-fb">
        <path d="M40 20C40 8.95313 31.0469 0 20 0C8.95312 0 0 8.95313 0 20C0 29.9844 7.3125 38.2578 16.875 39.7578V25.7813H11.7969V20H16.875V15.5938C16.875 10.582 19.8594 7.8125 24.4297 7.8125C26.6172 7.8125 28.9062 8.20313 28.9062 8.20313V13.125H26.3828C23.8984 13.125 23.125 14.668 23.125 16.25V20H28.6719L27.7852 25.7813H23.125V39.7578C32.6875 38.2578 40 29.9844 40 20Z" />
    </symbol>

    <symbol viewBox="0 0 40 40" id="icon-instagram">
        <path fill-rule="evenodd" clip-rule="evenodd" d="M20 0C8.954 0 0 8.954 0 20s8.954 20 20 20 20-8.954 20-20S31.046 0 20 0zm-4.399 9.397c1.138-.051 1.502-.064 4.399-.064h-.004c2.898 0 3.26.013 4.398.064 1.136.052 1.911.232 2.591.496a5.212 5.212 0 011.89 1.23 5.235 5.235 0 011.23 1.89c.263.678.443 1.453.496 2.588.051 1.138.064 1.502.064 4.399 0 2.897-.013 3.26-.064 4.397-.053 1.135-.233 1.91-.496 2.59a5.237 5.237 0 01-1.23 1.888 5.219 5.219 0 01-1.889 1.232c-.679.263-1.455.443-2.59.495-1.138.052-1.5.065-4.398.065-2.896 0-3.26-.013-4.398-.065-1.135-.052-1.91-.232-2.589-.495a5.223 5.223 0 01-1.889-1.232 5.227 5.227 0 01-1.23-1.89c-.264-.677-.443-1.453-.496-2.588-.051-1.138-.064-1.5-.064-4.397 0-2.897.013-3.26.064-4.399.051-1.135.231-1.91.496-2.589a5.237 5.237 0 011.23-1.889 5.225 5.225 0 011.89-1.23c.679-.264 1.454-.444 2.59-.496z" />
        <path fill-rule="evenodd" clip-rule="evenodd" d="M19.041 11.256h.957c2.848 0 3.186.01 4.31.06 1.04.048 1.605.222 1.981.368a3.31 3.31 0 011.226.798c.373.373.604.729.798 1.227.146.375.32.94.367 1.98.052 1.124.063 1.462.063 4.309 0 2.846-.011 3.184-.063 4.309-.047 1.04-.22 1.604-.367 1.98a3.298 3.298 0 01-.798 1.225 3.3 3.3 0 01-1.226.798c-.375.146-.94.32-1.98.367-1.125.051-1.463.063-4.31.063-2.849 0-3.186-.012-4.31-.063-1.04-.048-1.605-.221-1.982-.367a3.303 3.303 0 01-1.226-.798 3.307 3.307 0 01-.798-1.226c-.146-.376-.32-.94-.368-1.98-.05-1.125-.061-1.463-.061-4.311 0-2.849.01-3.184.061-4.309.048-1.04.222-1.604.368-1.98.193-.498.425-.854.798-1.227a3.31 3.31 0 011.226-.798c.377-.147.941-.32 1.981-.368.984-.045 1.365-.058 3.353-.06v.003zm6.653 1.77a1.28 1.28 0 100 2.56 1.28 1.28 0 000-2.56zM14.52 20.001a5.478 5.478 0 1110.956 0 5.478 5.478 0 01-10.956 0z" />
        <path d="M20 16.445a3.556 3.556 0 110 7.11 3.556 3.556 0 010-7.11z" />
    </symbol>

    <symbol viewBox="0 0 40 40" id="icon-vk">
        <path fill-rule="evenodd" clip-rule="evenodd" d="M26.14 0H13.86C2.653 0 0 2.653 0 13.86v12.28C0 37.346 2.653 40 13.86 40h12.28C37.346 40 40 37.346 40 26.14V13.86C40 2.653 37.346 0 26.14 0zm5.73 12.703c.876 0 1.073.451.876 1.072-.309 1.424-2.87 5.199-3.663 6.368-.15.223-.237.35-.233.35-.31.509-.423.735 0 1.3.153.208.478.527.849.89.381.375.812.797 1.155 1.198 1.242 1.412 2.202 2.597 2.456 3.416.226.819-.17 1.242-1.016 1.242h-2.908c-.77 0-1.167-.443-2.014-1.386-.363-.404-.808-.9-1.401-1.493-1.722-1.666-2.484-1.892-2.908-1.892-.593 0-.762.141-.762.988v2.625c0 .706-.226 1.13-2.089 1.13-3.077 0-6.492-1.863-8.892-5.336-3.613-5.08-4.601-8.92-4.601-9.682 0-.423.14-.819.988-.819h2.936c.733 0 1.016.31 1.298 1.13 1.44 4.15 3.84 7.79 4.827 7.79.367 0 .537-.169.537-1.1v-4.291c-.07-1.22-.495-1.751-.81-2.145-.195-.244-.348-.436-.348-.706 0-.339.282-.678.734-.678h4.573c.621 0 .847.34.847 1.073v5.787c0 .621.254.847.452.847.367 0 .677-.226 1.355-.904 2.088-2.343 3.585-5.956 3.585-5.956.197-.423.536-.818 1.27-.818h2.907z" />
    </symbol>

    <symbol viewBox="0 0 40 40" id="icon-youtube">
        <path fill-rule="evenodd" clip-rule="evenodd" d="M20 0C8.954 0 0 8.954 0 20s8.954 20 20 20 20-8.954 20-20S31.046 0 20 0zm8.333 13.124a2.71 2.71 0 011.887 1.937c.445 1.708.445 5.272.445 5.272s0 3.564-.445 5.273a2.709 2.709 0 01-1.887 1.936C26.67 28 20 28 20 28s-6.671 0-8.335-.458a2.709 2.709 0 01-1.886-1.937c-.446-1.708-.446-5.272-.446-5.272s0-3.564.446-5.272a2.708 2.708 0 011.886-1.937c1.664-.458 8.335-.458 8.335-.458s6.67 0 8.334.458z" />
        <path d="M18 24v-6.667l5.333 3.334L18 24z" />
    </symbol>

    <symbol viewBox="0 0 30 30" id="icon-twitter">
        <path fill-rule="evenodd" clip-rule="evenodd" d="M15 0C6.71573 0 0 6.71573 0 15C0 23.2843 6.71573 30 15 30C23.2843 30 30 23.2843 30 15C30 6.71573 23.2843 0 15 0ZM14.5822 12.7112L14.5508 12.1922C14.4563 10.847 15.2852 9.61822 16.5967 9.14155C17.0794 8.97207 17.8978 8.95089 18.4329 9.09918C18.6427 9.16274 19.0414 9.37459 19.3247 9.56526L19.8388 9.91481L20.4054 9.73474C20.7202 9.6394 21.1398 9.48052 21.3287 9.37459C21.5071 9.27926 21.6645 9.2263 21.6645 9.25807C21.6645 9.43815 21.2762 10.0525 20.951 10.3915C20.5103 10.8681 20.6362 10.9105 21.5281 10.5927C22.0632 10.4127 22.0737 10.4127 21.9687 10.6139C21.9058 10.7198 21.5805 11.0906 21.2343 11.4295C20.6467 12.0121 20.6152 12.0757 20.6152 12.5629C20.6152 13.315 20.2585 14.8827 19.9018 15.7407C19.2408 17.3508 17.8243 19.0138 16.4079 19.8506C14.4144 21.0264 11.7598 21.323 9.52499 20.6344C8.78005 20.4014 7.5 19.8082 7.5 19.7023C7.5 19.6705 7.88821 19.6282 8.36036 19.6176C9.34663 19.5964 10.3329 19.321 11.1723 18.8337L11.7388 18.4948L11.0883 18.2723C10.165 17.9545 9.33613 17.2237 9.12629 16.5351C9.06334 16.3127 9.08432 16.3021 9.67188 16.3021L10.2804 16.2915L9.76631 16.0479C9.15777 15.7407 8.60168 15.2217 8.32888 14.692C8.12953 14.3107 7.87772 13.3468 7.95116 13.2726C7.97215 13.2409 8.19248 13.3044 8.4443 13.3892C9.16826 13.654 9.26269 13.5904 8.843 13.1455C8.05609 12.3405 7.81477 11.1435 8.19248 10.0101L8.37085 9.5017L9.06334 10.1902C10.4798 11.5778 12.148 12.4041 14.0576 12.6477L14.5822 12.7112Z" />
    </symbol>

    <symbol viewBox="0 0 32 32" id="icon-telegram">
        <path fill-rule="evenodd" clip-rule="evenodd" d="M32 16C32 24.8365 24.8365 32 16 32C7.16347 32 0 24.8365 0 16C0 7.16347 7.16347 0 16 0C24.8365 0 32 7.16347 32 16ZM10.7143 14.5343C9.11153 15.2341 7.46473 15.9532 5.95883 16.7827C5.17251 17.3584 6.21759 17.7657 7.19807 18.1477C7.35393 18.2084 7.50813 18.2685 7.65313 18.3285C7.7738 18.3656 7.89647 18.4047 8.0208 18.4443C9.11127 18.7917 10.3271 19.1791 11.3858 18.5963C13.1249 17.5973 14.766 16.4424 16.4059 15.2883C16.9432 14.9102 17.4803 14.5322 18.0207 14.1598C18.0461 14.1436 18.0746 14.1251 18.1059 14.1049C18.5662 13.8064 19.6016 13.1353 19.2186 14.0601C18.313 15.0505 17.3429 15.9271 16.3677 16.8087C15.7103 17.4027 15.0506 17.999 14.4066 18.6337C13.8457 19.0894 13.2633 20.0059 13.8913 20.6441C15.3379 21.6567 16.8071 22.6449 18.2755 23.6325C18.7533 23.9538 19.2311 24.2751 19.7079 24.5973C20.516 25.2425 21.779 24.7205 21.9567 23.7123C22.0357 23.2485 22.115 22.7848 22.1943 22.321C22.6327 19.7579 23.0713 17.1938 23.4587 14.6223C23.5113 14.2189 23.571 13.8156 23.6307 13.4121C23.7755 12.434 23.9204 11.4547 23.9657 10.4714C23.849 9.49007 22.6591 9.70587 21.997 9.92653C18.5935 11.2216 15.2241 12.6127 11.8679 14.0283C11.4877 14.1967 11.1023 14.3649 10.7143 14.5343Z" />
    </symbol>

    <symbol viewBox="0 0 30 23" id="mobile-menu-link">
        <path d="M2.25 11.5H27.75" stroke-width="3" stroke-linecap="round" stroke-linejoin="round" />
        <path d="M2.25 1.5H27.75" stroke-width="3" stroke-linecap="round" stroke-linejoin="round" />
        <path d="M2.25 21.5H27.75" stroke-width="3" stroke-linecap="round" stroke-linejoin="round" />
    </symbol>

    <symbol viewBox="0 0 24 23" id="mobile-menu-close">
        <path d="M2.98438 2.48438L21.0156 20.5156" stroke-width="3" stroke-linecap="round" stroke-linejoin="round" />
        <path d="M21.0156 2.48438L2.9844 20.5156" stroke-width="3" stroke-linecap="round" stroke-linejoin="round" />
    </symbol>

    <symbol viewBox="0 0 6 5" id="nav-arrow">
        <path d="M3 4.5L0.401924 4.89399e-07L5.59808 3.51373e-08L3 4.5Z" />
    </symbol>

    <symbol viewBox="0 0 24 24" id="program-day-group-title">
        <path fill-rule="evenodd" clip-rule="evenodd" d="M21.0002 8.00025C21.0002 8.25625 20.9023 8.51225 20.7073 8.70725L12.7072 16.7073C12.3162 17.0983 11.6842 17.0983 11.2932 16.7073L3.29325 8.70725C2.90225 8.31625 2.90225 7.68425 3.29325 7.29325C3.68425 6.90225 4.31625 6.90225 4.70725 7.29325L12.0002 14.5863L19.2932 7.29325C19.6842 6.90225 20.3162 6.90225 20.7073 7.29325C20.9023 7.48825 21.0002 7.74425 21.0002 8.00025Z" />
    </symbol>

    <symbol viewBox="0 0 24 14" id="program-days-menu-current">
        <path d="M2 2L12 12L22 2" stroke-width="3" stroke-linecap="round" stroke-linejoin="round" />
    </symbol>

    <symbol viewBox="0 0 17 18" id="back-link">
        <rect y="9.00012" width="2.52628" height="11.9999" transform="rotate(-45 0 9.00012)" />
        <rect x="8.48535" y="0.514709" width="2.52628" height="11.9999" transform="rotate(45 8.48535 0.514709)" />
    </symbol>

    <symbol viewBox="0 0 7 13" id="pager-prev">
        <path d="M6 0.999939L1 6.49994L6 11.9999" stroke-width="1.4" />
    </symbol>

    <symbol viewBox="0 0 7 13" id="pager-next">
        <path d="M1 12.0001L6 6.50006L1 1.00006" stroke-width="1.4" />
    </symbol>

    <symbol viewBox="0 0 24 24" id="travels-menu-current">
        <path d="M6 9L12 15L18 9" stroke-width="2" stroke-linecap="round" stroke-linejoin="round" />
    </symbol>

</svg>