<svg width="542" height="490" viewBox="0 0 542 490" fill="none" xmlns="http://www.w3.org/2000/svg">
<path d="M309.873 332.524L363.671 247.644V332.524H309.873ZM363.671 370.144H373.678V340.884H391.725V332.524H373.678V240.137H359.48L296.359 337.813V340.884H363.585V370.144H363.671ZM210.231 323.822H285.155V315.633H210.231V323.822ZM175.25 370.144H185.257V240.137H176.704L145.4 261.975V271.444L175.25 250.715V370.144Z" fill="black"/>
<path d="M364.184 483.26H391.297V474.303H375.902V468.758H387.448V460.569H375.816V455.365H390.442V446.408H364.099L364.184 483.26ZM342.802 474.645V466.37H345.197C348.276 466.37 349.901 467.735 349.901 470.464V470.635C349.901 473.45 348.276 474.645 345.282 474.645H342.802ZM331.084 483.26H345.795C356.486 483.26 361.02 478.483 361.02 470.635V470.464C361.02 462.787 355.888 458.351 346.309 458.351H342.716V446.408H330.999L331.084 483.26ZM297.984 483.26H317.485L317.827 490H328.005V474.218H323.472V446.323H294.05C294.05 454.342 293.964 462.104 293.537 465.517C293.024 470.464 291.912 473.28 289.859 474.218H287.464V490H297.642L297.984 483.26ZM303.544 466.626C303.886 463.384 304.057 459.46 304.143 455.28H311.84V474.218H301.833C302.688 472.256 303.202 469.697 303.544 466.626ZM271.214 470.55H273.266V483.26H284.898V446.323H269.845C259.667 446.323 254.45 450.588 254.45 458.436V458.607C254.45 463.555 257.272 467.052 261.121 468.076L251.97 483.175H264.115L271.214 470.55ZM273.266 454.939V463.213H270.444C267.194 463.213 265.654 461.763 265.654 459.033V458.863C265.654 456.133 267.365 455.024 270.358 455.024H273.266V454.939ZM233.153 463.384V455.109H235.633C238.712 455.109 240.252 456.218 240.252 459.119V459.289C240.252 462.019 238.627 463.384 235.548 463.384H233.153ZM221.436 483.26H233.153V471.232H236.745C246.325 471.232 251.456 466.882 251.456 459.204V459.033C251.456 451.1 246.923 446.408 236.232 446.408H221.521V483.26H221.436ZM180.21 483.26H191.158L192.783 477.118H204.501L206.211 483.26H218.613L206.981 446.323H191.842L180.21 483.26ZM198.685 455.792L202.277 469.185H195.007L198.685 455.792ZM163.447 483.858C173.026 483.858 179.783 479.422 179.783 472.512C179.783 467.564 176.704 464.834 172.342 464.152C176.447 463.128 178.671 460.398 178.671 456.048C178.671 450.247 172.94 445.726 163.96 445.726C154.723 445.726 148.907 450.503 147.88 458.948H158.742C159.17 456.389 160.367 454.427 163.532 454.427C165.585 454.427 167.124 455.365 167.124 457.413C167.124 459.545 166.098 460.484 163.618 460.484H160.196V467.905H163.703C166.44 467.905 167.552 469.014 167.552 471.318C167.552 473.621 166.012 474.9 163.275 474.9C160.111 474.9 158.571 473.109 158.058 470.294H147.025C148.222 479.507 154.637 483.858 163.447 483.858Z" fill="black"/>
<path d="M338.697 422.01H340.749V434.721H352.381V397.783H337.328C327.15 397.783 321.933 402.049 321.933 409.897V410.067C321.933 415.015 324.755 418.513 328.604 419.536L319.452 434.636H331.598L338.697 422.01ZM340.749 406.485V414.759H337.927C334.677 414.759 333.137 413.309 333.137 410.579V410.323C333.137 407.594 334.848 406.485 337.841 406.485H340.749ZM296.958 420.901C297.471 416.807 297.557 411.944 297.728 406.826H304.741V434.721H316.459V397.783H287.55C287.55 406.143 287.379 413.906 286.951 417.83C286.353 423.119 285.241 426.02 282.76 426.02C281.82 426.02 281.392 425.764 281.392 425.764V434.636C281.477 434.636 282.931 435.318 285.412 435.318C293.109 435.403 295.932 429.688 296.958 420.901ZM261.036 426.19C256.845 426.19 254.108 422.693 254.108 416.465V416.039C254.108 409.726 256.845 406.399 261.036 406.399C265.227 406.399 268.049 409.726 268.049 416.039V416.465C268.049 422.608 265.312 426.19 261.036 426.19ZM260.865 435.403C272.582 435.403 280.28 427.726 280.28 416.21V415.783C280.28 404.096 271.984 397.271 261.121 397.271C251.884 397.271 244.529 402.816 242.647 411.603H239.739V397.783H228.022V434.721H239.739V420.39H242.562C243.844 429.432 250.516 435.403 260.865 435.403ZM198.599 434.721L210.317 413.224V434.721H222.034V397.783H210.402L198.685 419.025V397.783H186.882V434.721H198.599Z" fill="black"/>
<path d="M500.347 209.853H542V196.034H518.308V187.588H536.098V174.963H518.308V166.944H540.717V153.125H500.347V209.853ZM467.76 179.314V166.518H471.609C476.313 166.518 478.794 168.224 478.794 172.66V173.001C478.794 177.181 476.313 179.314 471.609 179.314H467.76ZM449.799 209.853H467.76V191.427H473.234C487.945 191.427 495.814 184.773 495.814 173.001V172.66C495.814 160.546 488.801 153.21 472.465 153.21H449.799V209.853ZM414.048 210.877C434.404 210.877 443.983 199.105 443.983 180.935V180.337C443.983 163.447 431.41 152.357 415.16 152.357C399.765 152.357 389.843 158.925 387.876 173.257H406.35C407.206 168.65 410.028 166.347 414.989 166.347C419.949 166.347 423.371 169.077 424.568 174.963H406.949V187.588H424.483C423.114 193.73 419.693 196.631 414.219 196.631C409.429 196.631 405.837 194.498 404.811 189.38H386.85C388.902 203.541 399.508 210.877 414.048 210.877ZM329.374 209.853L347.421 176.925V209.853H365.467V153.21H347.677L329.63 185.882V153.21H311.498V209.853H329.374ZM338.012 150.48C346.138 150.48 351.098 145.788 351.783 138.025H341.519C341.262 139.987 340.407 141.864 338.012 141.864C335.532 141.864 334.848 140.073 334.677 138.025H324.328C324.841 145.788 329.63 150.48 338.012 150.48ZM275.576 196.716C268.391 196.716 263.858 191.427 263.858 181.702V181.105C263.858 171.465 268.391 166.262 275.405 166.262C282.589 166.262 287.208 171.465 287.208 181.105V181.702C287.208 191.171 282.675 196.716 275.576 196.716ZM275.148 210.877C293.794 210.877 306.024 199.105 306.024 181.361V180.764C306.024 162.85 293.024 152.272 275.49 152.272C258.47 152.272 245.127 163.703 245.127 181.19V181.788C245.042 199.019 256.503 210.877 275.148 210.877ZM212.113 197.996V185.968H217.416C222.462 185.968 224.6 188.015 224.6 191.768V192.11C224.6 195.948 222.462 198.081 217.843 198.081H212.113V197.996ZM212.113 175.304V164.897H217.501C221.949 164.897 223.745 166.603 223.745 170.015V170.357C223.745 173.854 222.034 175.39 217.587 175.39H212.113V175.304ZM194.579 209.853H221.265C235.89 209.853 242.305 204.138 242.305 194.072V193.73C242.305 185.797 237.601 181.702 230.929 180.508C237.259 178.972 240.765 174.878 240.765 168.309V167.968C240.765 159.523 235.377 153.125 221.35 153.125H194.494L194.579 209.853ZM158.657 196.716C151.473 196.716 146.94 191.427 146.94 181.702V181.105C146.94 171.465 151.473 166.262 158.486 166.262C165.671 166.262 170.289 171.465 170.289 181.105V181.702C170.289 191.171 165.756 196.716 158.657 196.716ZM158.229 210.877C176.875 210.877 189.106 199.105 189.106 181.361V180.764C189.106 162.85 176.105 152.272 158.572 152.272C141.551 152.272 128.209 163.703 128.209 181.19V181.788C128.209 199.019 139.584 210.877 158.229 210.877ZM69.8775 209.853H87.9243V188.1H104.602V209.853H122.649V153.21H104.602V174.11H87.9243V153.21H69.8775V209.853ZM17.5335 197.996V185.968H22.8364C27.8826 185.968 30.0208 188.015 30.0208 191.768V192.11C30.0208 195.948 27.8826 198.081 23.264 198.081H17.5335V197.996ZM17.5335 175.304V164.897H22.9219C27.3694 164.897 29.1655 166.603 29.1655 170.015V170.357C29.1655 173.854 27.4549 175.39 23.0074 175.39H17.5335V175.304ZM0 209.853H26.6852C41.3107 209.853 47.7254 204.138 47.7254 194.072V193.73C47.7254 185.797 43.0213 181.702 36.35 180.508C42.6792 178.972 46.1859 174.878 46.1859 168.309V167.968C46.1859 159.523 40.7975 153.125 26.7707 153.125H0V209.853Z" fill="black"/>
<path d="M394.975 120.452V107.656H398.738C403.528 107.656 405.922 109.789 405.922 113.969V114.31C405.922 118.576 403.357 120.367 398.738 120.367L394.975 120.452ZM377.014 133.675H399.679C416.015 133.675 423.028 126.424 423.028 114.225V113.884C423.028 102.112 415.16 95.3724 400.449 95.3724H394.975V77.0315H377.014V133.675ZM315.603 133.675H333.65V111.922H350.328V133.675H368.375V77.0315H350.328V97.9316H333.65V77.0315H315.603V133.675ZM284.898 134.613C299.609 134.613 309.958 127.874 309.958 117.211C309.958 109.704 305.254 105.439 298.583 104.33C304.827 102.709 308.333 98.614 308.333 91.8748C308.333 82.9176 299.609 76.0078 285.668 76.0078C271.556 76.0078 262.661 83.3442 261.036 96.396H277.628C278.227 92.4719 280.109 89.4862 284.984 89.4862C288.063 89.4862 290.543 90.9364 290.543 94.0075C290.543 97.3344 288.918 98.7846 285.24 98.7846H280.023V110.216H285.412C289.517 110.216 291.399 111.922 291.399 115.419C291.399 119.002 289.089 120.964 284.898 120.964C280.023 120.964 277.714 118.234 276.859 113.884H259.838C261.549 127.874 271.299 134.613 284.898 134.613ZM219.041 133.675L237.087 100.661V133.675H255.134V77.0315H237.344L219.297 109.704V77.0315H201.165V133.675H219.041ZM147.196 133.675H164.729V109.96L177.302 133.675H196.889L178.585 102.965L195.862 77.0315H178.072L164.815 99.4671V77.0315H147.281V99.6377L134.11 77.0315H116.063L133.169 103.818L115.293 133.675H134.11L147.281 109.874L147.196 133.675Z" fill="black"/>
<path d="M475.715 58.5196C480.761 58.5196 484.61 54.7661 484.61 49.9889C484.61 45.2971 480.761 41.5436 475.715 41.5436C470.754 41.5436 466.991 45.3824 466.991 49.9889C466.991 54.7661 470.754 58.5196 475.715 58.5196ZM416.357 57.5812H446.293L446.891 67.9033H462.458V43.6762H455.53V0.852433H410.285C410.285 13.1366 410.114 24.9941 409.6 30.2831C408.831 37.7901 407.12 42.226 403.956 43.6762H400.278V67.818H415.844L416.357 57.5812ZM424.996 31.9893C425.594 27.0415 425.68 20.9847 425.851 14.6721H437.654V43.6762H422.259C423.713 40.6052 424.483 36.6811 424.996 31.9893ZM369.231 44.444C362.046 44.444 357.513 39.155 357.513 29.4301V28.8329C357.513 19.1933 362.046 13.9896 369.06 13.9896C376.244 13.9896 380.863 19.1933 380.863 28.8329V29.4301C380.777 38.8991 376.244 44.444 369.231 44.444ZM368.717 58.6049C387.363 58.6049 399.594 46.8326 399.594 29.0889V28.4064C399.594 10.4921 386.593 -0.0859375 369.06 -0.0859375C352.039 -0.000631094 338.697 11.4304 338.697 28.9182V29.5154C338.697 46.7473 350.158 58.6049 368.717 58.6049ZM307.649 27.0415V14.2455H311.498C316.202 14.2455 318.683 15.9517 318.683 20.3876V20.7288C318.683 24.9088 316.202 27.0415 311.498 27.0415H307.649ZM289.688 57.5812H307.649V39.0697H313.123C327.834 39.0697 335.703 32.4158 335.703 20.5582V20.217C335.703 8.10348 328.69 0.767127 312.353 0.767127H289.688V57.5812ZM253.766 44.444C246.581 44.444 242.048 39.155 242.048 29.4301V28.8329C242.048 19.1933 246.581 13.9896 253.595 13.9896C260.779 13.9896 265.398 19.1933 265.398 28.8329V29.4301C265.398 38.8991 260.865 44.444 253.766 44.444ZM253.338 58.6049C271.984 58.6049 284.214 46.8326 284.214 29.0889V28.4064C284.214 10.4921 271.214 -0.0859375 253.68 -0.0859375C236.66 -0.0859375 223.317 11.3451 223.317 28.8329V29.4301C223.317 46.7473 234.693 58.6049 253.338 58.6049ZM183.118 57.5812H201.251V14.7574H221.692V0.852433H183.118V57.5812ZM167.296 58.5196C172.427 58.5196 176.276 54.7661 176.276 49.9889C176.276 45.2971 172.427 41.5436 167.296 41.5436C162.335 41.5436 158.657 45.3824 158.657 49.9889C158.657 54.7661 162.335 58.5196 167.296 58.5196ZM167.296 35.9987C172.427 35.9987 176.276 32.2452 176.276 27.5533C176.276 22.7762 172.427 19.0227 167.296 19.0227C162.335 19.0227 158.657 22.8615 158.657 27.5533C158.657 32.2452 162.335 35.9987 167.296 35.9987ZM111.958 57.5812H153.611V43.7616H129.919V35.3162H147.709V22.6909H129.919V14.6721H152.328V0.852433H111.958V57.5812ZM56.7915 57.5812H74.7527V38.1313H77.5752L88.1808 57.5812H107.083L94.0823 34.3778C99.7273 31.8187 103.662 27.3827 103.662 19.5345V19.1933C103.747 7.16511 95.6219 0.852433 79.97 0.852433H56.7915V57.5812ZM74.7527 26.5297V14.3308H79.0292C83.9043 14.3308 86.3847 15.9517 86.3847 20.0464V20.3876C86.3847 24.4823 83.9899 26.5297 79.0292 26.5297H74.7527Z" fill="black"/>
</svg>
